<?xml version="1.0" encoding="UTF-8"?>
<svg width="12px" height="21px" viewBox="0 0 12 21" version="1.1" xmlns="http://www.w3.org/2000/svg" xmlns:xlink="http://www.w3.org/1999/xlink">
    <!-- Generator: sketchtool 64 (101010) - https://sketch.com -->
    <title>1999A596-44F7-4549-B88E-25605BC7D7CA</title>
    <desc>Created with sketchtool.</desc>
    <defs>
        <path d="M0.854548694,20.7272727 C0.477154808,20.7277572 0.14425968,20.4773409 0.0359607851,20.1114988 C-0.07233811,19.7456566 0.0696793472,19.3512731 0.385181196,19.1417113 C3.84825993,16.8402308 7.2498942,13.8729187 10.2222706,10.5627593 C10.3174743,10.447095 10.3171149,10.2790247 10.2214172,10.1637785 C7.2490408,6.85361918 3.84655314,3.88717064 0.385181196,1.58569018 C0.13029413,1.41630571 -0.0159329483,1.12218217 0.0015822876,0.814113074 C0.0190975235,0.506043974 0.197694092,0.230832334 0.470096394,0.0921477166 C0.742498696,-0.0465369011 1.06732234,-0.0276250036 1.3222094,0.14175948 C4.90305671,2.52182707 8.41648578,5.58499824 11.4852958,9.00137974 C12.1714258,9.76479764 12.1714258,10.9608766 11.4861492,11.7234309 C8.41819257,15.1398124 4.90391011,18.2038472 1.3222094,20.5847784 C1.18365008,20.6779722 1.02092106,20.7275547 0.854548694,20.7272727 L0.854548694,20.7272727 Z" id="path-1"></path>
    </defs>
    <g id="App" stroke="none" stroke-width="1" fill="none" fill-rule="evenodd">
        <g id="01.0_Profilo_app" transform="translate(-321.000000, -588.000000)">
            <g id="icon/edit-copy-5" transform="translate(321.000000, 588.000000)">
                <g id="ButtonColor" transform="translate(0.000000, -0.000000)">
                    <mask id="mask-2" fill="white">
                        <use xlink:href="#path-1"></use>
                    </mask>
                    <g id="Mask" fill-rule="nonzero"></g>
                    <g id="Color/EonRed" mask="url(#mask-2)" fill="#EA1B0A">
                        <g transform="translate(-8.000000, -4.000000)" id="Rectangle-3-Copy">
                            <rect x="0" y="0" width="28" height="28"></rect>
                        </g>
                    </g>
                </g>
            </g>
        </g>
    </g>
</svg>