<?xml version="1.0" encoding="UTF-8"?>
<!DOCTYPE svg PUBLIC "-//W3C//DTD SVG 1.1//EN" "http://www.w3.org/Graphics/SVG/1.1/DTD/svg11.dtd">
<!-- Creator: CorelDRAW 2020 (64-Bit Evaluation Version) -->
<svg xmlns="http://www.w3.org/2000/svg" xml:space="preserve" width="7mm" height="9mm" version="1.1" style="shape-rendering:geometricPrecision; text-rendering:geometricPrecision; image-rendering:optimizeQuality; fill-rule:evenodd; clip-rule:evenodd"
viewBox="0 0 1000 1200"
 xmlns:xlink="http://www.w3.org/1999/xlink"
 xmlns:xodm="http://www.corel.com/coreldraw/odm/2003">
 <defs>
  <style type="text/css">
   <![CDATA[
    .fil0 {fill:black;fill-rule:nonzero}
   ]]>
  </style>
 </defs>
 <g id="Layer_x0020_1">
  <metadata id="CorelCorpID_0Corel-Layer"/>
  <path class="fil0" d="M367.81 938.47l61.1 65.04 18.89 3.7c0,0 28.71,-0.64 35.76,-0.7 6.6,28.52 20.17,87.08 -2.75,120.18 -23.41,23.92 -102.26,17.98 -119.66,17.98 -17.36,0 -3.45,17.86 9.75,17.86 13.14,0 73.69,-1.97 76.99,4.57 3.27,6.66 -21.77,17.78 -34.88,20.41 -13.2,2.66 -21.68,4.66 -13.2,9.9 8.57,5.27 156.75,9.6 141.49,-62.73 15.26,0.99 30.92,10.38 40.79,14.71 9.93,4.27 15.83,-7.66 6.08,-14.71 -9.9,-7.09 -61.49,-40.88 -61.49,-40.88l3.39 -86.38c12.32,0.33 24.29,0.15 35.57,-1.61 7,-6.75 35.89,-13.83 33.59,-11.14 38.27,-19.47 135.55,-87.05 181.18,-173.4l9.77 -15.17c0,0 21.2,-65.49 9.06,-114.21 60.92,-79.36 48.47,-161.23 32.79,-156.48 87.02,-44.99 78.97,-164.41 57.83,-233.26 -21.22,-68.79 -161.35,-19.22 -207.07,76.42 -45.78,95.66 -163.65,109.52 -203.8,92.89 -40.21,-16.61 -48.48,-59.61 -72.1,-61 -0.02,-10.09 -0.75,-29.28 -0.75,-29.28l-1.18 -19.14c0,0 -0.03,-1.3 -0.03,-1.9 -14.29,-196.48 -104.28,-268.02 -104.28,-268.02 0,0 33.27,-33.85 30.31,-37.85 -2.94,-3.91 -34.52,10.6 -37.82,7.6 -3.27,-2.97 11.03,-39.73 7.88,-42.12 -3.15,-2.33 -29.92,25.32 -32.86,23.38 -3.03,-2 4.58,-36.25 -1.64,-39.15 -6.29,-2.97 -17.16,35.21 -22.4,34.24 -5.27,-1.06 -16.05,-38.33 -21.46,-38.21 -9.03,0.18 -2.91,37.85 -8.54,37.85 -5.49,0 -26.95,-20.77 -31.83,-18.35 -4.87,2.42 13.42,34.76 13.42,34.76 0,0 -21.05,25.46 -21.74,40.15 -0.54,14.72 -55.59,29.61 -52.26,39.21 3.33,9.48 47.99,0.24 47.99,0.24 0,0 -14.08,40.54 2.64,60.59 19.43,22.34 33.6,8.86 32.15,-7.18 10.68,77.93 -59.32,236.29 -59.32,236.29l-6.32 15.9c0,0 -38.88,108.11 -42.45,169.21 -8.88,150.36 258.35,319.44 258.35,319.44l13.06 10.35z"/>
 </g>
</svg>
