<svg xmlns="http://www.w3.org/2000/svg" xmlns:xlink="http://www.w3.org/1999/xlink" width="88" height="88" viewBox="0 0 88 88">
  <defs>
    <filter id="Ellipse_5" x="0" y="0" width="88" height="88" filterUnits="userSpaceOnUse">
      <feOffset dy="3" input="SourceAlpha"/>
      <feGaussianBlur stdDeviation="3" result="blur"/>
      <feFlood flood-opacity="0.161"/>
      <feComposite operator="in" in2="blur"/>
      <feComposite in="SourceGraphic"/>
    </filter>
  </defs>
  <g id="Group_14" data-name="Group 14" transform="translate(-162 -300)">
    <g id="Group_10" data-name="Group 10">
      <g id="Group_9" data-name="Group 9" transform="translate(69 -9)">
        <g transform="matrix(1, 0, 0, 1, 93, 309)" filter="url(#Ellipse_5)">
          <circle id="Ellipse_5-2" data-name="Ellipse 5" cx="35" cy="35" r="35" transform="translate(9 6)" fill="#fff"/>
        </g>
      </g>
    </g>
    <g id="animals" transform="translate(184 318)">
      <path id="Path_1" data-name="Path 1" d="M17.283,35.7a3.346,3.346,0,0,0,.128,2.382,3.507,3.507,0,0,0,2.4,1.751,26.6,26.6,0,0,0,5.408,10.382,15.909,15.909,0,0,0,11.7,5.447l1.2,3.2-2.88.576A.749.749,0,1,0,35.53,60.9l6.925-1.385.493.986a.749.749,0,1,0,1.339-.67l-.749-1.5a.749.749,0,0,0-.816-.4l-3.119.624-1.1-2.935a19,19,0,0,0,8.26-2.9,18.715,18.715,0,0,0,6.393-6.992A29.511,29.511,0,0,0,56.3,32.978c.087-.02.173-.044.259-.073a2.089,2.089,0,0,0,1.367-1.385,2.46,2.46,0,0,0-.3-2.086l-.531-.709h2.246a.749.749,0,0,0,.734-.9,4.157,4.157,0,0,0-3.064-3.476,5.036,5.036,0,0,0-.709-.138c-.026-.148-.059-.3-.1-.458a3.139,3.139,0,0,0,1.486-1.825,2.208,2.208,0,0,0-.312-2.006,2.258,2.258,0,0,0-1.824-.933h-.08a2.25,2.25,0,0,0-2.117-1.5H53.22A2.25,2.25,0,0,0,51.1,16h-1.5a.749.749,0,0,0-.749.749V21c-2.352,1.194-3.3,4.222-3.973,6.382a10.73,10.73,0,0,1-.788,2.088H22.044l-5.861-2.2a.749.749,0,0,0-1,.595C15.147,28.092,14.472,33.084,17.283,35.7Zm39.212-4.623a.6.6,0,0,1-.415.411,1.343,1.343,0,0,1-.978-.057.736.736,0,0,1-.43-.49.747.747,0,0,1,.124-.649l.8-1.066.831,1.108A1,1,0,0,1,56.494,31.076Zm.163-5.265a2.5,2.5,0,0,1,1.663,1.418H55.594V25.671a3.891,3.891,0,0,1,1.063.14Zm-6.3-8.314H51.1a.749.749,0,0,1,.749.749.749.749,0,0,0,.749.749h.749a.749.749,0,0,1,.749.749.749.749,0,0,0,.749.749h.7a.747.747,0,0,1,.611.313.726.726,0,0,1,.1.659,1.671,1.671,0,0,1-.7.928c-.067-.095-.138-.188-.215-.28a5.283,5.283,0,0,0-4.241-1.62,5.5,5.5,0,0,0-.749.05ZM46.313,27.833c1-3.2,2.049-5.844,4.79-5.844,1.477,0,3.227.412,3.673,2.247l-.077.013a.749.749,0,0,0-.6.734v2.994a.745.745,0,0,0,.189.5l-.689.919a2.245,2.245,0,0,0,.93,3.42q.137.057.274.1a28.1,28.1,0,0,1-2.94,12.069,17.13,17.13,0,0,1-14.232,9.2c-9.566,0-14.057-7.38-16.161-14.037l3.1.516c1,.881,6.017,5.037,12.088,5.037q.338,0,.68-.017c3.691-.191,7-1.951,9.846-5.231,2.635-3.039,3.512-5.584,2.608-7.564a5.487,5.487,0,0,0-3.554-2.724c-.229-.075-.461-.141-.693-.2A14.183,14.183,0,0,0,46.313,27.833Zm-4.941,3.139c4.347,0,6.493,1.308,7.052,2.531.63,1.379-.193,3.44-2.378,5.961-2.564,2.958-5.519,4.545-8.783,4.716-5.1.269-9.661-2.983-11.25-4.265,1.8-1.751,7.419-7.059,11.049-8.944Zm-18.789,0H34.2A82.265,82.265,0,0,0,25,38.814,13.118,13.118,0,0,1,22.582,30.971Zm-5.989-1.942,4.507,1.69a13.96,13.96,0,0,0,2.18,8.206l-2.733-.456A2.379,2.379,0,0,1,18.76,37.43a2.125,2.125,0,0,1,.075-1.633.749.749,0,0,0-.22-.934C16.726,33.447,16.547,30.534,16.593,29.029Z" transform="translate(-15.086 -16)"/>
      <path id="Path_28" data-name="Path 28" d="M1.139,0A1.139,1.139,0,1,1,0,1.139,1.139,1.139,0,0,1,1.139,0Z" transform="translate(36 6.568)"/>
    </g>
  </g>
</svg>
