<svg xmlns="http://www.w3.org/2000/svg" xmlns:xlink="http://www.w3.org/1999/xlink" width="88" height="88" viewBox="0 0 88 88">
  <defs>
    <filter id="Ellipse_5" x="0" y="0" width="88" height="88" filterUnits="userSpaceOnUse">
      <feOffset dy="3" input="SourceAlpha"/>
      <feGaussianBlur stdDeviation="3" result="blur"/>
      <feFlood flood-opacity="0.161"/>
      <feComposite operator="in" in2="blur"/>
      <feComposite in="SourceGraphic"/>
    </filter>
  </defs>
  <g id="Group_8" data-name="Group 8" transform="translate(-93 -309)">
    <g transform="matrix(1, 0, 0, 1, 93, 309)" filter="url(#Ellipse_5)">
      <circle id="Ellipse_5-2" data-name="Ellipse 5" cx="35" cy="35" r="35" transform="translate(9 6)" fill="#fff"/>
    </g>
    <g id="Group_5" data-name="Group 5" transform="translate(827.739 147.931)">
      <path id="Path_2" data-name="Path 2" d="M81.445,214.212a.708.708,0,1,0,.708.708A.708.708,0,0,0,81.445,214.212Z" transform="translate(-787.38 -15.585)"/>
      <path id="Path_3" data-name="Path 3" d="M151.68,215.62a.708.708,0,1,0-.708-.707A.708.708,0,0,0,151.68,215.62Z" transform="translate(-851.442 -15.579)"/>
      <path id="Path_4" data-name="Path 4" d="M77.385,119.142a.718.718,0,0,0,.718-.718.419.419,0,1,1,.837,0,.718.718,0,0,0,1.436,0,1.854,1.854,0,1,0-3.709,0A.718.718,0,0,0,77.385,119.142Z" transform="translate(-783.667 73.475)"/>
      <path id="Path_5" data-name="Path 5" d="M132.119,119.131a.718.718,0,0,0,.718-.718.419.419,0,0,1,.837,0,.718.718,0,1,0,1.436,0,1.854,1.854,0,0,0-3.709,0A.718.718,0,0,0,132.119,119.131Z" transform="translate(-833.591 73.485)"/>
      <path id="Path_6" data-name="Path 6" d="M45,37.79a7.178,7.178,0,0,0-3.8-6.315,2.589,2.589,0,0,0-1.075-2.968,6.173,6.173,0,0,0-2.907-.775,2.029,2.029,0,0,0-1.872.8c-.9,1.417,1.022,3.712,2.007,4.337a2.585,2.585,0,0,0,3.042-.2,5.7,5.7,0,0,1,.795,9.741,13.421,13.421,0,0,0-3.771-3.575A23.341,23.341,0,0,0,24.761,35.4a26.862,26.862,0,0,0-2.889.159V33.851a3.21,3.21,0,0,0-3.207-3.207h-.178A5.447,5.447,0,0,0,20.652,28.6a2.851,2.851,0,0,0,.161-2.3.718.718,0,1,0-1.356.472,1.392,1.392,0,0,1-.078,1.167c-.574,1.107-2.42,1.924-3.385,2.252a3.839,3.839,0,0,0-1.978-.546H7.856a3.837,3.837,0,0,0-2.035.582c-.928-.3-2.89-1.132-3.489-2.286a1.392,1.392,0,0,1-.079-1.168A.718.718,0,0,0,.9,26.3a2.85,2.85,0,0,0,.161,2.3,5.448,5.448,0,0,0,2.165,2.042H3.207A3.21,3.21,0,0,0,0,33.851V38.71a.718.718,0,0,0,.718.718h1.5a3.188,3.188,0,0,0,1.771-.535v.6a5.05,5.05,0,0,0-2.5,4.1,5.239,5.239,0,0,0,2.9,4.358,10.7,10.7,0,0,0,2.467,1.076,10.479,10.479,0,0,0,3.919,6.075l.012.01c.094.077.19.153.287.229v6.568H8.935V54.072a.718.718,0,1,0-1.436,0V65.563a.718.718,0,0,0,.894.7l1.613-.407,1.614.407.012,0,.058.011.022,0,.057,0h.042a.721.721,0,0,0,.085-.007h.017l2.6-.432,2.6.432a.718.718,0,0,0,.836-.708v-2.9c0-.012,0-.023,0-.035V58.638a25.32,25.32,0,0,0,4.675.8,4.912,4.912,0,0,0,7.921,2.8v3.327a.718.718,0,0,0,.894.7l1.613-.407,1.614.407.012,0,.058.011.022,0,.057,0h.042a.718.718,0,0,0,.085-.007h.017l2.6-.432,2.6.432A.718.718,0,0,0,41,65.563V62.63a.719.719,0,0,0-.006-.085V52.768a10.273,10.273,0,0,0,.817-1.314,5.433,5.433,0,0,0,.327-.7,8.473,8.473,0,0,0,.685-3.3,8.565,8.565,0,0,0-.9-3.8A7.2,7.2,0,0,0,45,37.79ZM39.706,31.3a1.148,1.148,0,0,1-1.586.353,4.616,4.616,0,0,1-1.177-1.287c-.424-.671-.413-1.019-.389-1.068.022-.028.2-.134.661-.134a4.765,4.765,0,0,1,2.137.551A1.15,1.15,0,0,1,39.706,31.3ZM11.077,64.641l-.9-.226a.717.717,0,0,0-.352,0l-.895.226V63.349h2.142v1.293ZM28.229,37.069a21.828,21.828,0,0,1,6.634,1.967,3.474,3.474,0,0,1-6.634-1.967ZM17.88,33.509V32.08h.786a1.773,1.773,0,0,1,1.771,1.771v4.141h-.786c-.046,0-.09,0-.135-.007a1.894,1.894,0,0,1-.421-.094A.706.706,0,0,0,19,37.867a1.773,1.773,0,0,1-1.121-1.646ZM5.429,36.221V33.51a2.43,2.43,0,0,1,2.427-2.428h6.16a2.43,2.43,0,0,1,2.427,2.428v5.184c-.192-.087-.39-.168-.591-.245l-.035-.013q-.138-.052-.278-.1l-.066-.023c-.091-.031-.182-.062-.274-.091l-.048-.015q-.278-.087-.564-.163l-.064-.017-.218-.053-.169-.04-.2-.043-.2-.04-.186-.035-.24-.041-.153-.025q-.194-.029-.391-.054l-.112-.012c-.1-.012-.2-.022-.3-.032l-.15-.013-.273-.02-.153-.009-.288-.013-.134,0c-.14,0-.281-.006-.422-.006s-.282,0-.422.006l-.134.005-.288.013-.153.009-.272.02-.15.013c-.1.009-.2.02-.3.032l-.112.012q-.2.024-.391.054l-.154.025-.24.04-.187.035-.2.04-.2.044-.168.039c-.073.017-.147.035-.219.054l-.058.016q-.291.076-.574.165l-.043.013c-.093.03-.185.061-.277.092l-.063.022q-.142.05-.28.1l-.031.012c-.2.077-.4.158-.593.246V36.221ZM2.222,37.992H1.436V33.851A1.773,1.773,0,0,1,3.207,32.08h.786v4.14A1.773,1.773,0,0,1,2.222,37.992Zm.7,5.6c0-2.481,3.669-4.577,8.012-4.577,3.521,0,6.6,1.378,7.638,3.222l.012.022c.033.06.063.12.092.181l.02.042c.025.054.047.109.068.164l.022.058c.018.05.034.1.049.152.007.023.014.046.021.07.013.049.024.1.034.147.005.025.011.05.016.075.009.051.015.1.021.153,0,.023.007.046.009.069.007.074.01.148.01.223,0,2.481-3.669,4.577-8.012,4.577q-.2,0-.406-.006C6.367,48.042,2.924,46,2.924,43.6Zm13.59,21.119L14.632,64.4a.72.72,0,0,0-.235,0l-1.884.313V63.349h4Zm14.363-5.743c0,.026-.009.052-.014.079s-.011.061-.017.092-.012.052-.018.078-.014.062-.022.092-.013.048-.02.072-.019.066-.03.1l-.021.064c-.012.036-.025.072-.039.108l-.02.053c-.016.04-.033.08-.05.12a3.48,3.48,0,0,1-6.495-.314h.079l.238,0,.224,0h.16q.268,0,.536-.006h.022q.294-.007.587-.02l.075,0q.263-.012.524-.03l.068,0q.283-.02.565-.045L27.3,59.4q.22-.021.439-.045l.179-.02q.194-.023.388-.049c.123-.016.246-.034.369-.052l.208-.031.349-.057.064-.011q.812-.14,1.6-.328Q30.889,58.892,30.876,58.973Zm3.249,5.668-.9-.226a.717.717,0,0,0-.352,0l-.895.226V63.349h2.142v1.293Zm-1.772-6.23q.9-.279,1.764-.625v4.127H31.984V60.3h0c.011-.027.02-.054.031-.081.016-.042.033-.083.048-.126s.025-.074.038-.111.026-.076.038-.115.026-.089.038-.133.018-.063.026-.1c.013-.052.025-.1.036-.156.006-.026.012-.052.017-.078.012-.057.021-.115.031-.172,0-.022.008-.044.012-.067.009-.06.016-.121.023-.182,0-.021.005-.041.008-.062.006-.062.01-.125.014-.188,0-.02,0-.039,0-.059q.006-.124.006-.249C32.354,58.425,32.354,58.418,32.354,58.412Zm7.208,6.3L37.681,64.4a.72.72,0,0,0-.235,0l-1.884.313V63.349h4Zm1.292-14.6a.72.72,0,0,0-.064.141s-.027.073-.084.2c-.018.039-.038.078-.057.117a12.309,12.309,0,0,1-3.857,4.178h0q-.183.134-.376.269a.718.718,0,1,0,.823,1.177q.206-.144.4-.287h0a18.435,18.435,0,0,0,1.915-1.6v7.61h-4V56.691a.716.716,0,0,0-.981-.666l-.041.016c-.154.072-.31.141-.467.21l-.172.074c-.1.041-.192.08-.288.119a21.246,21.246,0,0,1-2.2.75,23.346,23.346,0,0,1-2.388.538l-.082.014q-.29.049-.582.09l-.224.032-.27.034-.335.038-.2.021q-.261.026-.524.046l-.171.013q-.251.018-.5.032l-.068,0c-.191.009-.382.016-.575.022l-.141,0c-.2,0-.391.007-.587.007-.224,0-.448,0-.673-.01l-.115,0c-.228-.007-.455-.016-.681-.029h-.005a23.79,23.79,0,0,1-5.837-1.051.718.718,0,0,0-.934.685v4.234h-4V54.987a.718.718,0,0,0-.292-.578c-.11-.081-.216-.163-.322-.245l-.128-.1-.169-.138c-.058-.048-.116-.1-.172-.145l-.079-.069a9.943,9.943,0,0,1-2.486-3.191.72.72,0,0,0-.071-.118,7.5,7.5,0,0,1-.373-1l.067.011q.163.027.328.051l.247.034.163.019.256.027.132.013c.129.011.258.021.387.029l.077,0q.168.009.338.015l.111,0c.136,0,.273.006.409.006a12.791,12.791,0,0,0,6.545-1.655,5.239,5.239,0,0,0,2.9-4.358c0-.092,0-.183-.01-.274V43.3c-.007-.089-.016-.177-.029-.265l0-.024q-.02-.134-.048-.266l0-.014a5.431,5.431,0,0,0-2.41-3.237V39.06a3.056,3.056,0,0,0,.775.209,3.192,3.192,0,0,0,1,.159h1.5a.718.718,0,0,0,.718-.718V37a25.485,25.485,0,0,1,2.889-.167q1.03,0,2.037.079a4.911,4.911,0,0,0,9.333,2.814q.253.153.5.313c3.066,2.005,4.754,4.641,4.754,7.42A6.958,6.958,0,0,1,40.855,50.117Z" transform="translate(-713.739 156.25)"/>
      <path id="Path_7" data-name="Path 7" d="M259.21,226.572a2.824,2.824,0,1,0,2.824,2.824A2.827,2.827,0,0,0,259.21,226.572Zm0,4.212A1.388,1.388,0,1,1,260.6,229.4,1.39,1.39,0,0,1,259.21,230.784Z" transform="translate(-947.591 -26.859)"/>
    </g>
  </g>
</svg>
