<?xml version="1.0" encoding="UTF-8"?>
<!DOCTYPE svg PUBLIC "-//W3C//DTD SVG 1.1//EN" "http://www.w3.org/Graphics/SVG/1.1/DTD/svg11.dtd">
<!-- Creator: CorelDRAW 2020 (64-Bit Evaluation Version) -->
<svg xmlns="http://www.w3.org/2000/svg" xml:space="preserve" width="20mm" height="12mm" version="1.1" style="shape-rendering:geometricPrecision; text-rendering:geometricPrecision; image-rendering:optimizeQuality; fill-rule:evenodd; clip-rule:evenodd"
viewBox="0 0 2000 1200"
 xmlns:xlink="http://www.w3.org/1999/xlink"
 xmlns:xodm="http://www.corel.com/coreldraw/odm/2003">
 <defs>
  <style type="text/css">
   <![CDATA[
    .fil0 {fill:black;fill-rule:nonzero}
   ]]>
  </style>
 </defs>
 <g id="Layer_x0020_1">
  <metadata id="CorelCorpID_0Corel-Layer"/>
  <path class="fil0" d="M1904.08 709.57c-16.35,20.91 -6.85,50.65 -6.85,50.65 0,0 -39.84,-23.91 -45.31,-75.03 -5.47,-51.18 29.14,-68.1 40.65,-83.91 -0.57,-1.2 -1.22,-2.33 -1.84,-3.59 -9.54,-19.26 -19.41,-39.09 -19.59,-65.32 -0.02,-18.31 1.42,-36.03 3.02,-54.69 2.49,-28.74 5,-58.41 1.92,-94.71 -1.45,-16.68 -6.66,-44.35 -14.6,-73.64 -0.69,8.85 -1.66,14.22 -1.66,14.22 0,0 -82.09,274.67 -77.76,308.47 2.63,20.64 13.89,53.33 26.05,84.52 6.3,12.8 1.96,5.96 9.01,22.57 8.86,21.83 17.14,40.83 21.62,51.1 6.9,16 -11.98,154.62 -11.98,154.62l-1.74 15.92c-4.86,48.14 -16.73,95.52 -12.19,135.5 7.9,46.18 3.82,102.41 -24.99,102.41 -28.81,0 -40.27,1.34 -85.64,1.34 -7.98,-72.62 57.42,-80.35 57.42,-147.5 0,-26.77 -4.52,-86.04 -4.52,-86.04l-2.35 -15.55c0,0 -16.56,-61.86 -35.28,-63.19 -7.55,11.36 -33.93,68.33 -33.93,68.33l-7.31 16.45c0,0 -47.25,226.16 -88.23,226.16l-91 0c0,-98.19 87.8,-24.83 87.39,-181.9 -1.17,-8.61 -0.54,-22.02 1.12,-37.96l1.78 -16.06c9.3,-75.13 31.85,-191.51 3.73,-218.65 -3.36,-3.2 -41.3,-10.17 -41.95,-9.72 -80.35,0.55 -243.62,49.2 -327.11,59.77 -104.17,13.08 -357.17,-64.59 -357.17,-64.59l22.46 171.33c0,0 2.72,36.58 9.36,79.66l2.59 16c6.5,37.43 8,62.25 21.07,86.08 13.18,27.69 19.95,116.04 -11.51,116.04l-102.24 0c0,-70.02 98.01,-50.31 21.02,-206.71 1.82,0.13 -12.78,-17.06 -12.78,-17.06 0,0 -49.08,-170.34 -76.5,-172.85 -12.33,-1.18 -36.96,110.91 -55.17,157.66 -1.85,-0.21 -6.63,15.19 -6.06,15.19 -15.03,47.29 -5.39,210.1 -65.67,223.77 -10.55,1.34 -52.13,0 -84.86,0 0,-80.59 103.92,-119.42 90.55,-232.74 -11.4,-67.96 11.43,-179.43 11.43,-179.43l-11.32 -11.08c0,0 -64.01,-8.17 -85.84,-32.72 -14.02,-15.68 -65.06,-131.85 -65.06,-131.85l-7.31 -14.65 -77.3 -123.89 -14.01 -15.6c0,0 -4.19,-4.5 -6.24,-6.5 -89.68,-88.41 -112.11,-71.22 -214.9,-71.22 -102.79,0 -81.65,-84.32 -47.46,-90.96 72.48,-42.15 63.26,-137.06 54.06,-154.26 -9.27,-17.07 -56.69,-38.76 -26.33,-75.73 27.63,43.47 43.49,34.98 43.49,34.98 0,0 32.93,-51.45 73.75,-57.95 40.89,-6.64 106.82,36.84 106.82,36.84 0,0 23.07,-19.12 11.2,-71.9 42.15,6.63 21.7,94.34 21.7,94.34l96.47 18.58 16.99 2.25c0,0 65.16,5.97 88.81,2.2 61.5,-9.84 215.88,-10.97 215.88,-10.97l16.85 1.74c0,0 386.42,-11.81 638.49,-11.42l16.73 0.12c71.2,0.28 135.65,1.74 185.51,5.32 103.04,7.38 154.46,49.73 179.58,95.4 29.27,51.77 54.2,141.06 57.85,183.61 3.25,38.18 0.48,70.16 -1.95,98.32 -1.54,18.16 -3.02,35.3 -2.94,52.68 0.11,21.45 8.53,38.38 17.44,56.23 8.79,17.66 18.21,31.74 19.47,55.04 1.6,28.02 -8.37,45.22 -24.83,66.13z"/>
 </g>
</svg>
