<?xml version="1.0" encoding="UTF-8"?>
<!DOCTYPE svg PUBLIC "-//W3C//DTD SVG 1.1//EN" "http://www.w3.org/Graphics/SVG/1.1/DTD/svg11.dtd">
<!-- Creator: CorelDRAW 2020 (64-Bit Evaluation Version) -->
<svg xmlns="http://www.w3.org/2000/svg" xml:space="preserve" width="14mm" height="12mm" version="1.1" style="shape-rendering:geometricPrecision; text-rendering:geometricPrecision; image-rendering:optimizeQuality; fill-rule:evenodd; clip-rule:evenodd"
viewBox="0 0 1400 1200"
 xmlns:xlink="http://www.w3.org/1999/xlink"
 xmlns:xodm="http://www.corel.com/coreldraw/odm/2003">
 <defs>
  <style type="text/css">
   <![CDATA[
    .fil0 {fill:black;fill-rule:nonzero}
   ]]>
  </style>
 </defs>
 <g id="Layer_x0020_1">
  <metadata id="CorelCorpID_0Corel-Layer"/>
  <path class="fil0" d="M1068.88 1199.99l0.18 -0.07c5.51,-2.42 7.33,-9.34 7.51,-15.38 0.63,-21.58 13.72,-45.63 22.92,-65.36 10.53,-22.42 23.12,-43.87 37.65,-63.91 6.58,-9.09 13.75,-18.35 15.75,-29.38 3.04,-16.85 -6.58,-33.04 -12.62,-49.07 -6.07,-16.03 -6.92,-37.67 7.64,-46.7 39.33,35.24 63.26,87.04 64.58,139.8 0.72,29.15 -5.45,58.38 -17.44,84.93 -8.02,17.76 -19.4,31.83 -32.06,45.14l56.54 0c0.9,-1.26 2.08,-2.24 3.64,-2.73 3.69,-1.19 8.45,0.71 11.11,-2.1 1.63,-1.76 1.48,-4.48 1.29,-6.86 -1.73,-23.31 6.85,-43.13 12.71,-64.86 12.31,-45.63 22.02,-91.82 37.02,-136.76 3.92,-11.77 7.98,-25.21 1.94,-36.1 -5.36,-9.68 -16.88,-13.81 -25.93,-20.27 -17.85,-12.71 -23.64,-33.29 -21.98,-54.14 0.87,-10.87 7.54,-20.27 12.83,-29.82 42.41,-76.72 -1.43,-170.92 -0.53,-258.6 0.12,-11.03 9.06,-38.72 25.15,-32.29 5.95,2.34 9.59,8.36 12.15,14.25 14.78,33.94 7.2,73.59 17.2,109.23 5.88,21.1 18,40.39 34.44,54.83 2.16,1.91 5.08,3.82 7.7,2.63 1.6,-0.75 2.48,-2.48 3.23,-4.06 44.03,-94.05 -28.87,-200 -89.66,-268.14 -29.44,-32.97 -63.82,-63.79 -106.07,-76.78 -43.59,-13.44 -90.44,-6.55 -135.73,-1.13 -156.54,18.7 -315.34,18.13 -471.74,-1.7 -20.64,-2.6 -41.81,-5.73 -59.79,-16.15 -14.84,-8.58 -26.61,-21.65 -36.82,-35.42 -27.62,-37.39 -45.16,-81.15 -68.93,-121.1 -23.77,-39.97 -39.62,-78.67 -83.92,-92.79 -3.38,1.75 -6.77,3.47 -10.15,5.23 15.5,-30.94 47.97,-51.58 82.18,-56.75 34.22,-5.16 69.61,3.94 99.61,21.24 11.37,6.54 22.45,14.62 28.84,26.11 8.4,15 8.89,35.55 23.17,45.12 15.1,-26.83 11.91,-61.59 -3.63,-88.18 -15.5,-26.61 -41.83,-45.63 -70.34,-57.34 -44.68,-18.41 -96.7,-19.94 -141.26,-1.25 -44.56,18.7 -80.61,58.18 -92.29,105.1 -17.98,-28.56 -47.85,-49.36 -80.89,-56.31 3.13,17.54 8.45,34.7 15.82,50.92 13.43,29.56 17.37,44.13 -10.62,67.58 -10.62,8.89 -22.48,16.38 -32.01,26.46 -13.96,14.84 -21.45,34.95 -36.01,49.26 -15.03,14.75 -40,25.12 -35.73,51.02 6.04,36.85 49.6,55.71 82.3,41.02 8.14,-3.66 15.5,-9.14 24.02,-11.87 14.02,-4.51 28.02,-0.19 42.18,-1.85 11.49,-1.34 22.33,-5.79 33.73,-8.61 6.57,-1.62 13.62,-3.22 19.98,-0.94 11.08,4.01 10.05,10.62 12.4,22.18 70.99,78.51 122.51,174.49 148.71,277.02 10.03,39.2 16.7,80.14 36.84,115.25 15.53,27.11 28.71,60.44 38.42,90.41 11.22,34.66 12.74,71.64 14.19,108.09 1.56,40.25 3.16,80.49 4.72,120.77 1.17,29.02 1.72,58.71 -4.82,87.21 -3.16,13.84 -8.01,27.56 -15.66,39.59 -3.26,5.17 -7.42,9.87 -11.91,14.38l48.88 0 -0.36 -5.24c-0.12,-2.07 -0.25,-4.23 0.54,-6.14 2.28,-4.63 8.11,-6.05 12.11,-8.86 1.98,-1.38 3.98,-2.83 5.24,-4.88 1.75,-2.92 1.66,-6.52 1.56,-9.94 -0.66,-28.18 7.8,-53.29 10.99,-80.51 3.36,-28.4 5.61,-57.03 7.87,-85.56 2.06,-26.59 1.78,-53.89 1.93,-80.67 0,3.29 11.84,20.2 13.81,24.93 5.29,12.5 10.37,25.03 14.6,37.93 8.08,24.58 13.81,49.95 16.97,75.63 3.89,31.38 2.17,61.97 -6.39,92.63 -5.13,18.51 -13.49,36.51 -26.37,50.68l51.33 0c1.51,-1.91 3.42,-3.38 5.89,-4.11 2.23,-0.69 4.63,-0.66 6.74,-1.6 5.1,-2.32 6.19,-8.99 6.57,-14.59 2.38,-35.3 6.17,-69.62 5.17,-105.01 -1.04,-36.57 -4.38,-73.06 -9.59,-109.26 -4,-28 -7.17,-55.96 -7.73,-84.3 -0.28,-15.44 0.03,-30.88 0.84,-46.29 0.47,-8.4 8.37,-41.24 4.11,-47.35 13.71,19.64 39.17,26.59 62.72,31.03 87.72,16.54 188.47,19.11 276.43,3.86 21.52,34.07 43.03,68.17 64.55,102.28 10.77,17.03 21.67,34.42 26.83,53.92 5.05,19.04 4.33,39.12 2.29,58.72 -3.95,37.49 -13.38,74.98 -30.72,108.58 -8.52,16.43 -18.94,31.93 -31.57,45.5 -2.87,3.08 -5.9,5.91 -9.02,8.62l82.03 0z"/>
 </g>
</svg>
