<svg xmlns="http://www.w3.org/2000/svg" width="18" height="17.308" viewBox="0 0 18 17.308">
  <path id="Icon_ionic-ios-heart-empty" data-name="Icon ionic-ios-heart-empty" d="M16.529,3.938h-.043a4.923,4.923,0,0,0-4.111,2.25,4.923,4.923,0,0,0-4.111-2.25H8.221A4.892,4.892,0,0,0,3.375,8.827a10.533,10.533,0,0,0,2.068,5.742,36.245,36.245,0,0,0,6.932,6.676,36.245,36.245,0,0,0,6.932-6.676,10.533,10.533,0,0,0,2.068-5.742A4.892,4.892,0,0,0,16.529,3.938Zm1.8,9.917a33.187,33.187,0,0,1-5.954,5.867A33.237,33.237,0,0,1,6.421,13.85,9.335,9.335,0,0,1,4.587,8.827,3.671,3.671,0,0,1,8.23,5.153h.039a3.628,3.628,0,0,1,1.778.467,3.781,3.781,0,0,1,1.315,1.233,1.216,1.216,0,0,0,2.034,0,3.819,3.819,0,0,1,1.315-1.233,3.628,3.628,0,0,1,1.778-.467h.039a3.671,3.671,0,0,1,3.643,3.674A9.453,9.453,0,0,1,18.329,13.855Z" transform="translate(-3.375 -3.938)" fill="#ffffff"/>
</svg>
