<?xml version="1.0" encoding="utf-8"?>
<!-- Generator: Adobe Illustrator 24.2.3, SVG Export Plug-In . SVG Version: 6.00 Build 0)  -->
<svg version="1.1" id="Layer_1" xmlns="http://www.w3.org/2000/svg" xmlns:xlink="http://www.w3.org/1999/xlink" x="0px" y="0px"
	 viewBox="0 0 56.69 85.04" style="enable-background:new 0 0 56.69 85.04;" xml:space="preserve" width="12mm" height="12mm">
<path d="M24.45,23.44c3.96,2.07,6.59,6.87,3.78,12.38c0.66,0,1.26,0,1.86,0c-2.53,1.04-3.75,3.25-5.01,5.36
	c-2.24,3.75-1.99,5.78,1.31,8.83c-0.77-1.62-1.39-2.73-1.82-3.9c-0.17-0.47-0.09-1.2,0.19-1.62c0.78-1.19,1.74-2.25,2.59-3.4
	c0.53-0.72,0.84-1.66,1.49-2.22c1.13-0.98,2.42-0.5,3.17,1.06c-0.93,0-2.11-0.35-2.69,0.09c-0.73,0.55-0.92,1.79-1.45,2.66
	c-0.62,1.03-1.35,1.99-2.13,3.11c0.14,0.29,0.38,0.74,0.58,1.21c1.43,3.32,1.42,3.31,4.71,2.08c0.6-0.22,1.24-0.35,1.88-0.43
	c0.63-0.07,1.27-0.02,2.37-0.02c-0.47-1.4-0.85-2.54-1.3-3.87c0.5,0.2,0.92,0.37,1.44,0.58c-0.38-3.79-2.6-6.56-4.79-9.35
	c0.14-0.16,0.29-0.33,0.43-0.49c0.64,0.36,1.47,0.58,1.87,1.12c1.12,1.48,2.18,3.04,3.04,4.68c1.09,2.08,2.07,4.24,2.88,6.45
	c0.32,0.88,0.05,1.98,0.05,2.96c1.58,1.74,3.7,3.5,5.05,5.73c1.35,2.23,2.74,4.8,1.51,7.18c0.81,1.54,1.49,2.73,2.05,3.97
	c0.45,1,0.6,2.14,1.12,3.09c1.7,3.09,1.46,4.5-1.52,7.28c0.46,1.12,0.93,2.27,1.4,3.41c-0.21,0.11-0.42,0.23-0.63,0.34
	c-0.32-0.62-0.57-1.29-0.99-1.84c-0.45-0.59-1.05-1.07-1.58-1.6c-0.15,0.12-0.29,0.23-0.44,0.35c0.38,0.92,0.75,1.83,1.13,2.75
	c-0.12,0.15-0.25,0.31-0.37,0.46c-0.59-0.44-1.42-0.75-1.72-1.34c-0.49-0.94-0.91-1.25-2.05-1.14c-2.02,0.2-3.9-0.47-5.05-2.26
	c-1.29-2.01-2.55-4.06-3.54-6.23c-0.65-1.43-0.78-3.06,1.21-3.89c0.27-0.11,0.39-0.59,0.7-1.08c-2.08-0.08-3.52-0.7-4-2.79
	c-0.15-0.66-0.96-1.19-1.53-1.72c-1.39-1.32-1.96-2.88-1.38-4.74c0.29-0.91,0.35-1.57-0.73-2.02c-0.45-0.19-0.74-0.83-1.06-1.29
	c-0.44-0.64-0.71-1.43-1.27-1.93c-3.19-2.89-4.68-6.06-1.45-10.34c-1.17,0.24-1.76,0.42-2.37,0.48c-2.19,0.23-3.79-0.92-4.36-3.03
	c-0.15-0.54-0.42-1.08-0.77-1.52c-1.4-1.74-1.98-3.6-1.08-5.77c-3.04-0.07-5.09-2.22-5.81-5.95c-0.18-0.92-0.51-1.81-0.81-2.7
	c-0.58-1.71,0-3.05,1.32-4.13c0.63-0.52,1.36-0.94,1.99-1.37c-2.16-5.54-4.3-11-6.43-16.46C5.65,0.52,5.86,0.4,6.07,0.29
	C6.72,1.1,7.49,1.85,8.02,2.74c2.3,3.82,4.58,7.65,6.76,11.53c0.57,1.01,1.09,1.49,2.25,1.13c0.67-0.21,1.41-0.19,2.1-0.36
	c3.98-1.01,6.17,2.09,5.76,5.78C24.79,21.71,24.59,22.59,24.45,23.44z M38.92,54.17c0.07-0.26,0.14-0.51,0.21-0.77
	c-0.58-0.24-1.22-0.78-1.73-0.68c-1.87,0.37-4.02,0.5-5.46,1.55c-2.97,2.16-3.12,3.64-0.81,6.19c0.67,0.74,1.2,1.65,1.62,2.56
	c0.78,1.7,2.72,1.98,4.02,0.56c0.45-0.49,1.08-0.91,1.7-1.13c1.12-0.39,2.29-0.61,3.34-0.87c-0.35-1.13-0.65-2.17-1-3.19
	c-0.35-1.01-0.74-2-1.04-2.8c-1.02,0-1.73,0.1-2.39-0.02c-3.93-0.7-5.19,0.12-5.66,3.75c-1.59-0.99-1.7-2.66-0.19-3.83
	c1.67-1.29,3.56-1.75,5.66-1.35C37.74,54.26,38.34,54.17,38.92,54.17z M20.86,39.39c0.26,0.16,0.52,0.32,0.78,0.49
	c1.64-2.12,3.29-4.23,4.89-6.37c0.15-0.2,0.12-0.62,0.05-0.91c-0.35-1.33-0.66-2.69-1.17-3.97c-0.23-0.59-0.82-1.09-1.35-1.48
	c-0.17-0.12-0.79,0.18-1.05,0.44c-1.43,1.38-2.9,2.72-4.18,4.23c-0.82,0.97-1.73,2.15-1.88,3.34c-0.14,1.08,0.58,2.32,1.11,3.4
	c0.27,0.55,0.96,0.9,1.15,1.07c1.17-1.71,2.1-3.06,3.02-4.41c0.2,0.1,0.4,0.21,0.6,0.31C22.18,36.83,21.52,38.11,20.86,39.39z
	 M44.69,68.73c-1.45-0.26-2.41-2.2-4.29-1.22c-0.14,0.07-0.56-0.58-0.86-0.59c-1.28-0.07-2.7-0.34-3.8,0.11
	c-0.68,0.27-1.46,1.92-1.21,2.58c0.81,2.15,2.08,4.13,3.17,6.17c0.2-0.09,0.4-0.18,0.6-0.26c-0.42-1.8-0.84-3.6-1.27-5.4
	c-0.33-1.4,0.06-1.79,1.27-1.47c0.32,1.82,0.67,3.55,0.93,5.29c0.18,1.2,0.66,1.45,1.85,1.1c1.07-0.31,2.26-0.2,3.38-0.35
	c0.9-0.12,1.79-0.34,2.68-0.51c0-0.17-0.01-0.34-0.01-0.52C44.39,73.01,45.22,70.69,44.69,68.73z M13.34,28.52
	c1.67-1.42,3.14-2.71,4.65-3.95c0.65-0.53,1.55-0.82,2.02-1.46c0.59-0.8,1.32-1.96,1.13-2.76c-0.28-1.22-3.32-2.04-4.35-1.43
	c-1.49,0.88-2.99,1.78-4.42,2.76c-1.81,1.23-2.26,3.87-0.89,5.49C12.02,27.8,12.85,28.18,13.34,28.52z M27.13,51.33
	c0.21,0.32,0.42,0.96,0.86,1.25c0.43,0.28,1.2,0.45,1.64,0.26c1.86-0.8,3.65-1.76,5.48-2.65c0.78-0.38,1.57-0.71,2.83-1.26
	c-0.71-0.61-1.07-0.92-1.68-1.44c-0.13,2.01-1.22,2.26-2.7,2.27c-1.05,0.01-2.09,0.51-3.14,0.78
	C29.35,50.81,28.28,51.05,27.13,51.33z M18.47,16.91c1.38,1,3.36,1.71,3.84,2.98c0.46,1.22-0.64,3.02-0.97,4.25
	c2.05-1.2,2.71-3.29,1.53-5.93C22.18,16.68,20.76,16.27,18.47,16.91z M9.73,22.4c2-1.49,4.27-3.17,6.73-5.01
	C11.98,18.16,10.23,19.66,9.73,22.4z M38.68,76.54c1.86,1.6,4.16,1.47,6.31-0.75C42.95,76.03,40.91,76.28,38.68,76.54z M43.6,62.72
	c1.16-0.96,0.21-4.53-2.42-7.26C42.08,58.16,42.83,60.42,43.6,62.72z M17.15,30.91c0.13,0.16,0.26,0.31,0.4,0.47
	c1.41-1.3,2.81-2.61,4.22-3.91c-0.15-0.16-0.31-0.33-0.46-0.49C19.92,28.29,18.54,29.6,17.15,30.91z"/>
</svg>
