<?xml version="1.0" encoding="UTF-8"?>
<!DOCTYPE svg PUBLIC "-//W3C//DTD SVG 1.1//EN" "http://www.w3.org/Graphics/SVG/1.1/DTD/svg11.dtd">
<!-- Creator: CorelDRAW 2020 (64-Bit Evaluation Version) -->
<svg xmlns="http://www.w3.org/2000/svg" xml:space="preserve" width="19mm" height="20.5mm" version="1.1" style="shape-rendering:geometricPrecision; text-rendering:geometricPrecision; image-rendering:optimizeQuality; fill-rule:evenodd; clip-rule:evenodd"
viewBox="0 0 1900 2050"
 xmlns:xlink="http://www.w3.org/1999/xlink"
 xmlns:xodm="http://www.corel.com/coreldraw/odm/2003">
 <defs>
  <style type="text/css">
   <![CDATA[
    .fil0 {fill:black}
   ]]>
  </style>
 </defs>
 <g id="Layer_x0020_1">
  <metadata id="CorelCorpID_0Corel-Layer"/>
  <g id="_1918751904448">
   <path class="fil0" d="M1877.36 2025.53l7.57 0c6.53,-18.56 -0.69,-106.33 -2.55,-131.71 -4.64,-63.27 -16.09,-117.43 -32.63,-174.73 -4.67,-16.18 -11.01,-32.4 -17.96,-50.1 -1.13,-2.88 -1.7,-4.48 -2.86,-7.27 -0.46,-1.11 -2.22,-5.08 -2.52,-5.76 -2.04,-4.45 -3.63,-7.4 -5.34,-11.23 -16.81,-37.83 -36.84,-76.3 -65.08,-106.95 -5.98,-6.49 -11.35,-11.21 -17.02,-18.67l-169.02 -174.1c-6.83,-6.8 -11.86,-11.42 -17.76,-17.77l-42.37 -43.23c-1.94,-1.89 -2.66,-2.67 -4.15,-4.21l-468.26 -469.71c-19.26,-19.26 -49.52,-46.49 -66.8,-67.76 -9.93,2.44 -17.63,13.89 -24.89,21.15l-62.96 62.55c-1.86,1.99 -3.01,3.4 -4.93,5.36l-45.42 45.12c-10.58,8.91 -11.56,11.87 -22.47,22.79 -9.5,9.51 -15.67,13.16 -22.13,21.08 -13,15.93 -30.08,31.08 -44.76,45.77 -13.65,13.65 -128.53,124.43 -135.02,137.02 13.9,8.59 40.71,32.79 55.28,45.95 2.82,2.55 3.83,4.34 7.29,7.32l15.84 12.94c3.79,2.9 10.05,8.17 15.22,12.66 1.2,1.04 3.5,3.32 4.4,4.09l11.78 9.22c27.17,24.64 57.03,45.52 85.28,68.42l98.6 73.09 376.63 240.16c1.41,0.77 2.16,1.11 4.14,2.19 0.44,0.24 0.98,0.51 1.41,0.75l7.59 4.45c7.03,4.07 12.24,6.1 18.65,9.87l319.85 161.59c33.11,15.49 32.15,6.08 41.09,42.89 2.92,12.01 9.23,32.55 9.94,46.24 -19.39,-0.59 -96.66,-39.47 -121.5,-51.87 -13.17,-6.57 -24.96,-11.34 -37.65,-17.75 -37.29,-18.84 -77.68,-35.35 -113.41,-56.52 -33.94,-20.11 -89.27,-44.42 -129.68,-68.86l-317.2 -194.23c-7.01,-4.72 -10.44,-6.95 -16.06,-10.69 -11.98,-7.98 -19.31,-14.08 -34.55,-23.84 -39.19,-25.12 -78.44,-55.26 -114.99,-82.21l-172.52 -138.52c-3.28,-2.83 -1.13,-1.09 -3.69,-3.7 -2.78,-2.84 0.79,0.36 -2.92,-2.96 -4.33,-3.88 -4.72,-3.34 -8.43,-6.83l-44.66 -39.55c-15.63,9.25 -53.94,53.49 -67.92,66.81 4.65,11.37 58.74,54.96 71.85,66.46l15.39 12.42c14.09,12.61 35.9,32.53 50.84,42.79 4.41,3.03 5.65,3.45 9.92,7.17l156.2 119.55c0.28,0.23 0.73,0.65 1.01,0.89 0.28,0.23 0.72,0.66 1,0.9 0.28,0.23 0.73,0.65 1.02,0.89l16.21 11.3c2.37,1.78 3.24,2.48 6.02,4.52l94.48 64.96c5.64,4 6.4,4.35 11.64,7.82l19.31 13c2.02,1.27 2.95,1.72 5.16,3.14l37.43 23.93c3.93,2.25 1.98,0.96 5.51,3.28l131.04 80.27c29.95,17.44 58.11,34.73 87.53,50.16l33.22 18.34c2.07,1.21 2.82,1.64 5.61,3.09 0.47,0.25 1,0.51 1.46,0.74 0.46,0.24 0.99,0.5 1.44,0.72l24.82 13.58c8.32,4.26 12.02,6.05 21.46,11.3 15.28,8.5 30.35,15.71 46.22,23.93l186.66 89.87c0.43,0.21 0.95,0.49 1.36,0.69 0.41,0.2 0.94,0.46 1.34,0.65l236.13 98.37c15.72,5.98 33.02,12.5 49.68,18.26 13.59,4.7 37.85,10.91 50.56,18.26z"/>
   <path class="fil0" d="M137.3 25.53l-32.85 0c-3.02,1.59 -17.02,4.72 -21.94,6.4 -6.66,2.26 -12.5,4.47 -18.73,8.27 -34.36,20.95 -62.54,56.91 -66.23,98.76 -5.11,57.9 26.59,104.54 73.23,126.82l8.21 3.82c0.51,0.19 1.04,0.39 1.56,0.58 45.74,16.27 53.44,-6.27 78.78,34.23 14.4,23.02 25.38,49.13 40.03,69.96 16.73,23.77 45.77,65.26 67.53,84.36 11.91,10.45 20.99,23.28 32.02,34.3 21.38,21.33 40.1,40.44 63.61,59.59l103.76 72.61c5.93,3.45 11.18,7.15 16.43,10.17l32.77 22.69c6.36,4.07 11.94,8.55 16.05,11.9 23.14,18.94 46.72,37.24 63.1,60.19 20.62,28.89 27.31,57.14 5.09,88.5 -20.3,28.67 -74.77,68.06 -46.24,102.64 7.32,8.87 15.81,22.8 27.7,26.22 13.13,-11.73 24.95,-24.66 37.82,-37.53l255.15 -255.16c6.69,-8.69 -2.11,-16.04 -14.32,-31.24 -2.51,-3.12 -2.86,-3.17 -5.76,-6.95l-42.94 -51.48c-3.93,-4.66 -4.95,-6.04 -9.82,-10.97 -5.77,-5.85 -6.14,-6.93 -10.55,-11.98l-41.59 -44.57c-3.9,-3.9 -5.26,-5.69 -10.52,-11.17l-177.68 -171.41c-4.7,-4.72 1.39,0.86 -2.83,-2.96 -0.44,-0.4 -1.79,-1.52 -2.28,-1.9l-129.29 -105.73c-21.13,-14.34 -39.34,-32.71 -60.81,-46.64l-25.24 -18.2c-4.76,-3.46 -7.78,-4.95 -11.75,-7.85l-52.63 -34.73c-7.17,-4.85 -15.93,-10.05 -25.1,-16.11l-39.02 -23.93c-13.77,-8.3 -26.86,-16.64 -41.77,-22.94 -9.24,-3.91 -24.03,-4.55 -32.95,-8.56z"/>
  </g>
 </g>
</svg>
