<?xml version="1.0" encoding="UTF-8"?>
<!DOCTYPE svg PUBLIC "-//W3C//DTD SVG 1.1//EN" "http://www.w3.org/Graphics/SVG/1.1/DTD/svg11.dtd">
<!-- Creator: CorelDRAW 2020 (64-Bit Evaluation Version) -->
<svg xmlns="http://www.w3.org/2000/svg" xml:space="preserve" width="16mm" height="12mm" version="1.1" style="shape-rendering:geometricPrecision; text-rendering:geometricPrecision; image-rendering:optimizeQuality; fill-rule:evenodd; clip-rule:evenodd"
viewBox="0 0 1600 1200"
 xmlns:xlink="http://www.w3.org/1999/xlink"
 xmlns:xodm="http://www.corel.com/coreldraw/odm/2003">
 <defs>
  <style type="text/css">
   <![CDATA[
    .fil0 {fill:black;fill-rule:nonzero}
   ]]>
  </style>
 </defs>
 <g id="Layer_x0020_1">
  <metadata id="CorelCorpID_0Corel-Layer"/>
  <path class="fil0" d="M630.02 1154.88c8.78,-6.58 22.75,-4.5 29.77,-12.97 4.27,-5.16 4.34,-12.55 4.27,-19.25 -0.41,-47.11 4.33,-94.22 14.12,-140.3 2.76,-13.15 5.36,-43.5 20.38,-47.42 7.5,-1.96 15.81,-1.1 22.62,-4.84 11.19,-6.17 14.28,-22.6 26.15,-27.38 4.3,-1.73 9.11,-1.6 13.67,-2.5 13.09,-2.53 23.75,-14.54 24.68,-27.85 12.48,3.31 28.42,5.48 35.97,-5.01 3.33,-4.68 4.49,-11.46 9.65,-14.02 12.01,-6 20.92,18.22 34.25,16.36 4.35,-0.61 8.09,-4.1 12.48,-3.97 7.67,0.22 10.88,10.56 18,13.41 11.29,4.56 21.4,-11.81 33.56,-11.1 23.23,1.38 44.93,20.43 68.06,6.57 3.25,-1.95 6.42,-4.43 10.2,-4.55 9.18,-0.32 12.9,12.41 21.25,16.27 15.78,7.28 31.64,-20.96 47.55,-14.03 4.65,2.02 7.8,6.74 12.61,8.34 14.32,4.69 31.25,-20.18 41.02,-8.69 2.5,2.98 2.69,7.22 3.72,10.98 3.55,13.25 20.27,21.11 32.76,15.39 -3.38,14.35 8.24,30.29 22.91,31.49 3.27,0.29 6.87,0 9.5,1.95 3.78,2.83 3.43,8.41 3.88,13.13 1.73,17.71 23.3,30.32 39.6,23.14 0.32,7.82 0.61,15.62 0.92,23.45 8.42,0.39 16.79,0.73 25.2,1.12 -6.07,6.29 2.95,16.01 11.29,18.71 37.9,12.29 12.81,72.97 8.48,102.81 -3.63,25.03 -9.05,53.04 -30.01,67.22 -12.8,8.67 -29.2,10.37 -42.45,18.26l-0.66 0.41 107.04 0c0.54,-2.13 1.3,-4.14 2.62,-5.86 6.74,-8.86 22.21,-4.11 30.52,-11.52 4.81,-4.27 5.74,-11.29 6.38,-17.71 4.92,-50.64 9.86,-101.28 14.79,-151.91 1.9,-19.57 -6.32,-54.61 16.82,-65.39 8.24,-3.82 18.51,-1.7 26.41,-6.26 20.63,-11.91 3.63,-51.98 24.39,-63.64 5.32,-3.01 12.13,-3.13 16.88,-6.95 15.69,-12.62 -9.09,-42.49 4.93,-56.93 3.18,-3.27 7.8,-4.85 10.95,-8.16 13.86,-14.66 -13.99,-39.05 -5.3,-57.24 2.48,-5.1 7.42,-8.5 10.72,-13.12 18,-25.13 -14.24,-52.89 4.24,-79.39 7.18,-10.33 16.59,-21.24 14.72,-33.72 -1.02,-7 -5.64,-13.38 -5.06,-20.45 0.44,-5.64 4.2,-10.59 4.9,-16.24 1.67,-13.25 -13.63,-25.66 -8.76,-38.08 1.48,-3.75 4.66,-6.68 6.04,-10.5 9.72,-26.46 -31.45,-36.76 -24.84,-63.85 0.29,-1.12 0.65,-2.31 1.51,-3.08 3.34,-3.05 7.7,2.73 7.99,7.22 0.48,6.99 7.66,21.4 14.8,23.75 5.06,1.66 10.74,-0.52 15.9,0.93 5.4,1.51 8.9,6.57 13.38,9.98 25.71,19.48 47.4,-20.57 49.42,-40.73 1.16,-11.77 2.09,-24.7 -4.62,-34.45 -2.86,-4.22 -6.99,-7.58 -9.14,-12.2 -4.75,-10.3 1.99,-23.14 -2.63,-33.5 -3.25,-7.35 -11.42,-10.33 -15.09,-17.07 -2.4,-4.4 0.29,-11.87 -1.83,-15.05 -4.29,-6.55 -22.29,-15.53 -23.65,-21.56 -0.54,-2.44 0.39,-5.01 0.23,-7.51 -0.61,-10.69 -17.33,-11.59 -23,-20.7 -2.64,-4.2 -2.54,-9.75 -5.36,-13.83 -6.8,-9.76 -23.59,-3.98 -32.76,-11.52 -4.69,-3.85 -6.3,-10.4 -10.4,-14.85 -8.7,-9.44 -23.84,-6.36 -36.68,-6.97 -16.2,-0.77 -20.25,-10.21 -32.02,-15.88 -9.92,-4.82 -22.95,-5.59 -32.26,-11.01 -3.81,-2.25 -5.38,-6.99 -8.78,-9.82 -9.76,-8.18 -25.42,3.88 -37,-1.38 -8.79,-4.01 -11.56,-16.46 -20.61,-19.76 -10.42,-3.8 -21.65,7.02 -32.37,4.23 -9.3,-2.41 -13.93,-13.93 -23.2,-16.5 -8.28,-2.27 -16.37,3.44 -24.16,7.04 -16.88,7.73 -49.06,-16.4 -67.52,-19.8 -3.88,-0.71 -7.86,-1.41 -11.71,-0.58 -7.64,1.7 -14.38,9.31 -21.85,7 -3.98,-1.22 -6.61,-5.01 -10.3,-7 -14.89,-8.12 -33.66,16.56 -47.91,7.38 -3.95,-2.54 -6.13,-7.1 -10.01,-9.69 -14.67,-9.85 -31.96,15.95 -49.16,11.87 -6.57,-1.57 -11.4,-7.32 -17.72,-9.79 -11.35,-4.46 -23.65,2.61 -34.45,8.32 -21.95,11.61 -43.2,-1.13 -64.06,-10.47 -5.16,-2.31 -10.39,-4.94 -16.04,-5.26 -11.94,-0.67 -22.56,9.02 -34.49,8.53 -11.94,-0.44 -22.5,-11 -34.24,-8.88 -11.74,2.08 -19.55,16.23 -31.45,15.62 -9.46,-0.48 -16.69,-10.46 -26.15,-10.07 -11.71,0.45 -18.77,16.3 -30.46,15.85 -10.61,-0.42 -16.71,-14.09 -27.27,-15.34 -11.84,-1.41 -21.72,13.51 -33.2,10.47 -9.92,-2.67 -12.65,-16.7 -22.16,-20.54 -4.9,-2 -10.42,-0.78 -15.71,-0.51 -26.42,1.15 -49.04,-29.88 -75.51,-36.59 -16.17,-4.07 -33.12,-4.78 -49.1,-9.62 -16.03,-4.91 -40.52,-10.4 -52.62,-22.47 19.06,-5.9 33.21,-21.78 44.99,-37.89 9.66,-13.25 18.61,-31.42 9.63,-45.15 -40.92,11.61 -102.42,54.23 -142.96,43.83 -6.93,-1.76 -13.6,-0.09 -20.34,-1.16 -5.13,-0.8 -9.92,-4.01 -14.89,-5.73 -12.42,-4.31 -25.55,-6.33 -38.57,-7.94 -28.4,-3.46 -39.34,-13.44 -63.41,-30.31 -14.5,-10.21 -33.75,-17.39 -49.76,-9.73 -1.51,0.7 13.7,30.61 15.36,33.28 6.07,9.69 12.74,13.12 21.38,19.7 15.24,11.59 -50.32,65.52 -49.78,88.66 0.23,9.34 3.8,18.8 1.32,27.82 -2.02,7.41 -7.79,13.15 -13.31,18.52 -19.61,18.96 -39.18,37.92 -58.79,56.89 -19.47,18.9 -42.55,45.59 -35.65,75.12 2.99,12.67 10.55,23.9 19.64,33.24 6.16,6.35 13.28,12.04 21.6,15.02 15.49,5.51 32.78,3.18 44.66,-8 11.52,-10.81 23.3,-24 39.08,-24.83 7.9,-0.41 15.54,2.44 23.1,4.65 18.08,5.36 61.97,-0.61 67.27,14.32 2.31,6.45 -10.08,26.15 -10.82,34.11 -1.28,14.12 2.19,28.78 10.75,40.23 3.21,4.34 7.22,8.54 7.99,13.93 1.67,11.48 -12.22,22.46 -7.41,33.05 4.43,9.72 21.65,10.17 22.97,20.79 0.84,6.94 -6.36,12.39 -7.28,19.29 -2.02,15.4 24.48,18.74 29.23,33.53 3.02,9.44 -4.01,20.89 1.51,29.14 3.43,5.16 10.65,6.8 14.08,11.99 5.59,8.42 -1.73,20.87 3.67,29.4 4.62,7.35 16.01,7.48 21.27,14.38 6.64,8.69 -0.45,21.69 3.18,31.99 5.38,15.18 30.19,16.5 34.4,32.02 2.53,9.34 -3.57,21.21 3.26,28.08 3.8,3.78 9.95,3.95 14.39,6.97 4.45,3.05 32.85,38.37 33.79,43.22 1.56,7.89 2.43,17.87 9.94,20.72 3.63,1.38 7.86,0.48 11.42,2 7.83,3.31 7.16,14.5 4.88,22.72 -2.25,8.17 -3.72,19.05 3.65,23.25 6.13,3.54 15.22,-0.25 20.29,4.72 6.13,6.04 -0.32,18.33 5.87,24.3 5.62,5.42 15.98,0.13 22.4,4.56 6.42,4.35 4.36,14.69 8.88,21.01 7.23,10.08 24.52,3.53 34.53,10.88 10.21,7.51 9.41,27.02 21.82,29.61 22.05,4.66 23.75,-2.27 33.44,23.08 6.58,17.16 8.57,35.33 10.01,53.56 4.08,52.43 3.21,120.1 -40.69,156.84 -9.11,7.62 -20.25,14.48 -28.16,23.03l88.54 0c1.64,-16.13 -3.42,-35.66 9.26,-45.13z"/>
 </g>
</svg>
