<svg xmlns="http://www.w3.org/2000/svg" xmlns:xlink="http://www.w3.org/1999/xlink" width="39" height="39" viewBox="0 0 39 39">
  <defs>
    <clipPath id="clip-path">
      <circle id="Ellipse_6" data-name="Ellipse 6" cx="19.5" cy="19.5" r="19.5" transform="translate(314 762)" fill="#4b2727"/>
    </clipPath>
  </defs>
  <g id="Mask_Group_1" data-name="Mask Group 1" transform="translate(-314 -762)" clip-path="url(#clip-path)">
    <g id="Group_29" data-name="Group 29" transform="translate(-201.213 546.558)">
      <path id="Path_29" data-name="Path 29" d="M42.427,45.91l2.687.811-.307-6.309-2.38.137Z" transform="translate(501.001 196.05)" fill="#f2f2ee" fill-rule="evenodd"/>
      <path id="Path_30" data-name="Path 30" d="M44.612,47.1,56.925,47l-.009-1.057-.235-5.178L50.026,39l-5.72,1.787Z" transform="translate(501.502 195.674)" fill="#fff" fill-rule="evenodd"/>
      <path id="Path_31" data-name="Path 31" d="M42.427,41.086l2.38-.133,5.834-1.769,6.546,1.857c.314.089-.005-.125-.005-.125l-7.124-2.482H42.427Z" transform="translate(501.001 195.522)" fill="#fd7429" fill-rule="evenodd"/>
      <path id="Path_32" data-name="Path 32" d="M46.453,25.44l.187.08-.187-.08m-.5-.2c.079.03.156.061.232.092C46.111,25.3,46.034,25.269,45.956,25.238Zm-18.317.728.018-.01a22.833,22.833,0,0,1,18.29-.722,22.583,22.583,0,0,0-5.739-1.423,41,41,0,0,0-8.221,3.756l-.105-.041C29.505,26.617,27.695,25.986,27.639,25.967ZM46.832,25.6h0l-.1-.043Z" transform="translate(497.054 191.58)" fill="#dadcd3" fill-rule="evenodd"/>
      <path id="Path_33" data-name="Path 33" d="M46.881,34.3l-.2-.12.2.12" transform="translate(502.135 194.386)" fill="#8ccb42" fill-rule="evenodd"/>
      <path id="Path_34" data-name="Path 34" d="M47.136,34.452l-.209-.125.209.125" transform="translate(502.202 194.426)" fill="#8ccb42" fill-rule="evenodd"/>
      <path id="Path_35" data-name="Path 35" d="M47.4,34.613l-.236-.143.236.143" transform="translate(502.266 194.464)" fill="#8ccb42" fill-rule="evenodd"/>
      <path id="Path_36" data-name="Path 36" d="M48.234,35.125h0q-.433-.27-.877-.54.443.27.877.54" transform="translate(502.317 194.495)" fill="#8ccb42" fill-rule="evenodd"/>
      <path id="Path_37" data-name="Path 37" d="M31.071,27.537a41,41,0,0,1,8.221-3.756,22.7,22.7,0,0,1,14.641,7.725c-2.166,1.281-4.138,2.6-5.876,3.861-1.866-1.025-3.82-2.027-5.821-2.994.035-.1.068-.2.1-.3.36-1.368-.611-1.614-1.122-1.42-.322-5.669-6.005-6.312-8.227-2.359q-.958-.386-1.91-.754" transform="translate(497.97 191.611)" fill="#8ccb42" fill-rule="evenodd"/>
      <path id="Path_38" data-name="Path 38" d="M44.479,33.74c1.738-1.262,3.709-2.581,5.877-3.861A22.688,22.688,0,0,1,55.612,41.11,68.694,68.694,0,0,0,44.479,33.74" transform="translate(501.548 193.239)" fill="#52b249" fill-rule="evenodd"/>
      <path id="Path_39" data-name="Path 39" d="M51.252,36.558h0l-.019,0Zm.451-.092c-.063.018-.129.033-.2.046l-.018,0C51.563,36.5,51.635,36.486,51.7,36.466Zm-3.625-.041.023-.005h0ZM61.593,54.115a22.785,22.785,0,0,1-42.546,0l.573-.209,1.53,3.119a16.744,16.744,0,0,0,.873,1.561,17.355,17.355,0,0,0,1.043,1.482,18,18,0,0,0,1.2,1.378q.507.532,1.045,1.014c.31.236.39.4.688.592A20.912,20.912,0,0,0,28.7,64.924a22.055,22.055,0,0,0,3.519,1.642,22.915,22.915,0,0,0,3.955,1.053,24.167,24.167,0,0,0,8.28,0,22.885,22.885,0,0,0,3.955-1.053,22,22,0,0,0,3.519-1.642,20.676,20.676,0,0,0,3.1-2.2c.464-.4.911-.825,1.345-1.278a17.984,17.984,0,0,0,1.2-1.378,17.366,17.366,0,0,0,1.044-1.482,17.036,17.036,0,0,0,.873-1.561l1.53-3.119Zm-2.872,2.273-.148.3a15.424,15.424,0,0,1-.831,1.485,17.256,17.256,0,0,1-1,1.413q-.542.688-1.139,1.314-.414.431-.872.85H49.329a7.8,7.8,0,0,1,.089-1.372c.435-.091,2.562.792,3.492.69.28-.03.038-.043.314.143.193-.205.4-.253.535-.536.321-.661.435-1.258.7-1.927.106-.267.332-.369.5-.573a3.811,3.811,0,0,0,.583-1.875Zm4.124-13.836.016.115c.011.077.023.156.033.233.013.1.025.2.037.293s.027.217.038.326c.006.068.014.137.02.205.014.138.027.276.037.416l.01.123c.011.161.023.324.03.486l0,.07c.009.181.016.362.022.545v.013c.005.194.006.388.006.583,0,.389-.009.777-.028,1.16v.02c-.01.188-.022.374-.035.56l0,.022c-.014.185-.03.369-.048.552l0,.028c-.018.18-.038.361-.061.541l-.005.035c-.023.176-.047.352-.073.528l-.006.043c-.028.174-.056.346-.086.518l-.01.054c-.03.166-.062.332-.1.5l-.014.07c-.033.158-.067.317-.1.474l-.019.084c-.035.152-.072.3-.111.455l-.027.106c-.038.146-.077.293-.119.437l-.029.1c-.041.142-.082.284-.127.426l-.037.12c-.044.141-.089.28-.136.418l-.028.082-.944-.345a.529.529,0,0,0-.651.229l-.735,1.5-.02-1.833.45.277L60,53.076,57.421,50.9l-2.379-.025a13.554,13.554,0,0,0-.589-3.661,7.839,7.839,0,0,0,2.3-.725c3.536-1.914,1.572-3.212-.234-4.755-.887-.758.139-.854,1.668-.608a1.473,1.473,0,0,0-.237,1.1l-.058.153.267.124v.011l.778.351a.069.069,0,0,1,0-.023l.291.051,1.477.072c-.041-.57-.022-.972-.025-1.257A12.638,12.638,0,0,1,62.844,42.552Zm-.043-.27h0l0,.009V42.3ZM45.847,31.92a90.858,90.858,0,0,1,15.41,9.115,10.3,10.3,0,0,0-5.372-.907c-4.086.679-.934,2.641-.934,2.641.3.189,1.331,1.723-.8,2.462-.037-.262-.1-.512-.146-.734-.721-3.2-.854-.359-.973-3.412,0-.166-.005-.329-.01-.485a20.2,20.2,0,0,0-.3-4.771.019.019,0,0,0-.016.011l-.528-.1a28.722,28.722,0,0,0-4.734.242,2.42,2.42,0,0,0-.409.106l.094,4.7c-1.1.025-.774-1.183-1.955-1.285-.331-.028-.417.02-.673-.156l-1.357-1.084c1.446-1.33,1.2-2.323,1.713-4.41h0l.03-.124.033-.127.034-.128c.3-.081.2-.038.333-.317.079-.157.152-.329.236-.5A6.5,6.5,0,0,0,45.847,31.92Zm-23.336-.163.2-.248.079-.094C22.7,31.528,22.6,31.642,22.511,31.757Zm-3.19,5.364.046-.109.03-.07Zm-.209.511.013-.03c.039-.1.081-.2.123-.305C19.2,37.407,19.156,37.519,19.112,37.631Zm8.252,5.06a10.112,10.112,0,0,0-.753,1.458,6.892,6.892,0,0,0-.271,1.277,2.179,2.179,0,0,0,.053.754l.155.478-.366.277A7.477,7.477,0,0,0,25.72,48.7a2.609,2.609,0,0,0-.1.585c.006.314.029-.008.024.251,0,.019,0,.042,0,.061s-.006.043-.009.065c0,0-.037.176-.042.212a13.092,13.092,0,0,0-.038,2.387,8.794,8.794,0,0,0-.707,2.625c-.052,1.337.228,2.93.97,3.552.405.34.471,1.062.664,1.56.37.959.679,1.236,1.249,1.2a16.759,16.759,0,0,0,2.113-.5v0c1.539-.375,1.366-.685,1.31,1.055H25.9q-.458-.418-.872-.85-.6-.625-1.14-1.314a16.952,16.952,0,0,1-1-1.413,15.975,15.975,0,0,1-.83-1.485l-1.724-3.513a.531.531,0,0,0-.652-.229l-.943.343h0l-.024-.072c-.049-.147-.1-.3-.144-.443l-.028-.091c-.046-.147-.09-.3-.132-.445l-.027-.092c-.042-.147-.082-.3-.12-.445l-.027-.1c-.038-.151-.075-.3-.11-.454l-.02-.087q-.053-.234-.1-.467L18,50.513c-.033-.161-.063-.323-.092-.485l-.013-.071c-.029-.165-.057-.331-.082-.5L17.8,49.4c-.025-.168-.049-.338-.071-.509l-.006-.054c-.023-.174-.042-.347-.061-.522l-.005-.049c-.016-.175-.033-.351-.047-.527l0-.047c-.014-.177-.025-.356-.034-.533l0-.051c-.009-.18-.015-.361-.02-.543v-.03c0-.184-.006-.369-.006-.554v-.016c0-.181,0-.361.006-.541l0-.113c0-.152.01-.3.016-.455l0-.09c.01-.177.02-.353.034-.53l.008-.089c.011-.148.024-.3.039-.442l.011-.124q.055-.521.132-1.036l.019-.119c.022-.143.046-.285.071-.427l.016-.1c.03-.17.062-.34.1-.508l.016-.084c.015-.072.03-.144.047-.217a23.261,23.261,0,0,0-.386,2.375Zm.265-6.111c-.089.732-.054,1.508-.1,2.249-.005.081-.009.155-.013.226L19.6,36.49c-.022.044-.041.089-.061.133.011-.025.022-.051.034-.076.066-.146.133-.29.2-.435.018-.038.037-.075.056-.113q.08-.167.163-.331l.075-.146c.062-.12.124-.238.187-.357l.047-.085c.072-.134.148-.269.223-.4l.087-.149c.054-.094.11-.187.166-.281.03-.049.06-.1.09-.149.077-.127.156-.252.236-.378l.1-.157.165-.25.115-.171c.06-.087.12-.174.181-.26l.141-.2c.068-.1.138-.191.208-.286l.079-.1a8.425,8.425,0,0,1,2.9,1.134A9.664,9.664,0,0,1,27.629,36.58Zm7.024-5,.019.071a3.531,3.531,0,0,0,1,1.866v.1l-.008-.01c-.023,1.85.318,3.706,1.368,4.8a12.426,12.426,0,0,1-2,1.167c-.57.25-.742,1.077-1.644,1.252l.128-4.786c-.6-.075-2.316-.274-3.741-.324a10.167,10.167,0,0,0-3.22-3.521A12.12,12.12,0,0,0,23.232,30.9l-.275.318.058-.068.155-.179.176-.2c.071-.08.143-.158.215-.238l.209-.226.056-.057,4.48,1.386Zm-4.319-6.1c2.047.716,4.147,1.506,6.258,2.355a6.831,6.831,0,0,0-.774,2.3,1.985,1.985,0,0,0-.954.147l-.091-2.059h0c.167.048,0-.068,0-.068L30.954,26.8H28l.2-.125.157-.1c.081-.049.162-.1.243-.148l.12-.072c.153-.09.308-.179.462-.266.053-.03.106-.061.161-.09l.247-.136.163-.086c.146-.076.294-.151.441-.224C30.236,25.53,30.284,25.5,30.334,25.482Z" transform="translate(494.359 192.065)" fill="#46ad54" fill-rule="evenodd"/>
      <path id="Path_40" data-name="Path 40" d="M22.273,29.757A12.12,12.12,0,0,1,25.6,31.05c4.808,2.774,5.88,13.613,14.076,13.34,0,0,4.724.156,10.538.094s4.178-2.609,3.78-2.856c0,0-3.152-1.962.932-2.641a10.322,10.322,0,0,1,5.382.91q.806.621,1.535,1.239c.014.092.029.184.043.275-2.293-1.216-8.093-2.323-6.332-.817,1.808,1.543,3.772,2.84.237,4.755s-13.528.692-19.876.865-7.472-10.9-11.88-13.926a8.432,8.432,0,0,0-2.9-1.134c.361-.48.742-.946,1.139-1.4" transform="translate(495.318 193.206)" fill="#ededed" fill-rule="evenodd"/>
      <path id="Path_41" data-name="Path 41" d="M18.487,36.332c3.524.262,9.7.7,9.7.7l-8.836-2.863a22.364,22.364,0,0,0-.859,2.161" transform="translate(494.612 194.384)" fill="#fd7429" fill-rule="evenodd"/>
      <path id="Path_42" data-name="Path 42" d="M22.5,29.683l4.481,1.386-.163-3.461-2.217.129a22.944,22.944,0,0,0-2.1,1.946" transform="translate(495.683 192.633)" fill="#ededed" fill-rule="evenodd"/>
      <path id="Path_43" data-name="Path 43" d="M26.073,31.276l6.594-.054,0-.58L32.537,27.8l-3.564-.967-3.063.981Z" transform="translate(496.592 192.426)" fill="#fff" fill-rule="evenodd"/>
      <path id="Path_44" data-name="Path 44" d="M24.156,28.031l2.221-.127,3.124-.97,3.507,1.019c.167.049,0-.068,0-.068l-3.815-1.362H26.23a22.85,22.85,0,0,0-2.074,1.509" transform="translate(496.125 192.343)" fill="#fd7429" fill-rule="evenodd"/>
      <path id="Path_45" data-name="Path 45" d="M39.914,46.821l.132,1.636L48.9,50.59l-.211-3.541Z" transform="translate(500.33 197.76)" fill="#f2f2ee" fill-rule="evenodd"/>
      <path id="Path_46" data-name="Path 46" d="M51.653,47.323l.02,1.875-.841,1.713-3.175-.085a9.948,9.948,0,0,0-.038-2.522c-.163-.936-.448-.808-.519-1.192L49.454,46Z" transform="translate(502.248 197.542)" fill="#fff" fill-rule="evenodd"/>
      <path id="Path_47" data-name="Path 47" d="M47.1,47.239l2.354-1.107,2.649,1.638.011-.043-2.582-2.175-2.379-.025a10.029,10.029,0,0,1-.051,1.176,1.96,1.96,0,0,0,0,.537" transform="translate(502.244 197.415)" fill="#fd7429" fill-rule="evenodd"/>
      <path id="Path_48" data-name="Path 48" d="M28.2,36.566l.232,3.266-10.782.861a22.708,22.708,0,0,1,1.064-4.823Z" transform="translate(494.388 194.838)" fill="#ededed" fill-rule="evenodd"/>
      <path id="Path_49" data-name="Path 49" d="M52.02,39.709l-1.477-.071-.49-1.957c2.45.108,1.822-.024,1.967,2.028" transform="translate(503.036 195.321)" fill="#bfbfbf" fill-rule="evenodd"/>
      <path id="Path_50" data-name="Path 50" d="M49.446,38.974c-.152-1.714,1.309-1.6,1.259-.47l.015,1.138-.372-.066-.96-.448Z" transform="translate(502.859 195.318)" fill="#bfbfbf" fill-rule="evenodd"/>
      <path id="Path_51" data-name="Path 51" d="M49.6,39.2s.029-1.3.353-1.28.547,1.041.475,1.307-.051.323-.051.323Z" transform="translate(502.915 195.384)" fill="#ededed" fill-rule="evenodd"/>
      <path id="Path_52" data-name="Path 52" d="M49.015,22.7l-.875-1.359-1.333.749a.316.316,0,0,1-.407-.073l-1.012-1.262-1.252.889a.317.317,0,0,1-.407-.034L42.59,20.462l-1.148,1.008a.316.316,0,0,1-.414.013l-1.252-1.022-1.022,1.11a.316.316,0,0,1-.423.07l-1.354-.886-.9,1.209a.317.317,0,0,1-.413.115l-1.438-.741-.783,1.321a.315.315,0,0,1-.385.133l-1.508-.585-.64,1.394a.318.318,0,0,1-.371.174l-1.56-.424L28.489,24.8a.316.316,0,0,1-.35.21l-1.6-.258-.333,1.485a.318.318,0,0,1-.329.258l-1.614-.091-.177,1.525a.316.316,0,0,1-.3.277l-1.615.08L22.158,29.8a.318.318,0,0,1-.267.336l-1.6.246.142,1.528a.317.317,0,0,1-.233.336l-1.565.412.3,1.505a.316.316,0,0,1-.2.356l-1.513.574.459,1.466a.317.317,0,0,1-.16.375l-1.444.728.6,1.39a.315.315,0,0,1-.109.41l-1.359.875.75,1.333a.314.314,0,0,1-.075.405L14.63,43.085l.888,1.252a.316.316,0,0,1-.035.407l-1.148,1.139,1.01,1.148a.317.317,0,0,1,.013.414L14.334,48.7l1.11,1.022a.316.316,0,0,1,.071.423l-.859,1.311,2.31-1.359.237,1.572c.181,1.254.357,2.458.611,3.618l.88-.319a23.748,23.748,0,1,1,44.967,0l.878.319c.253-1.16.429-2.364.612-3.618l.234-1.572,2.284,1.344-.835-1.177a.316.316,0,0,1,.035-.407l1.149-1.14-1.011-1.145a.319.319,0,0,1-.013-.416L68.018,45.9l-1.11-1.021a.319.319,0,0,1-.071-.423l.887-1.352-1.21-.9a.315.315,0,0,1-.114-.413l.74-1.438-1.32-.782a.315.315,0,0,1-.134-.386l.587-1.508-1.395-.64a.316.316,0,0,1-.174-.369l.424-1.562-1.456-.49a.316.316,0,0,1-.209-.351l.258-1.6-1.486-.333a.318.318,0,0,1-.258-.329l.091-1.614-1.525-.177a.316.316,0,0,1-.277-.3l-.08-1.617-1.509-.016a.316.316,0,0,1-.334-.267l-.247-1.6-1.528.144a.315.315,0,0,1-.334-.234l-.413-1.565-1.505.3a.318.318,0,0,1-.357-.2l-.573-1.51-1.466.457a.317.317,0,0,1-.376-.16l-.728-1.444-1.39.6a.313.313,0,0,1-.41-.109" transform="translate(493.503 190.725)" fill="#d72206" fill-rule="evenodd"/>
      <path id="Path_53" data-name="Path 53" d="M20.32,56.5l.322-1.2a.171.171,0,0,1,.212-.123l1.2.321a.173.173,0,0,1,.122.213l-.321,1.2a.172.172,0,0,1-.213.122l-1.2-.321a.173.173,0,0,1-.123-.212m44.3,0L64.3,55.3a.173.173,0,0,0-.213-.123l-1.2.321a.175.175,0,0,0-.123.213l.322,1.2a.171.171,0,0,0,.212.122l1.2-.321A.174.174,0,0,0,64.622,56.5ZM54.353,66.788,54,65.948l-.071-1.976-1.219-1.186-.361-.855,2.164-.913.389.922-1.078.455,1.168,1.128.073,1.9,1.116-.47.383.907Zm-3.364-3.471c.138-.043.286.081.753,1.609s.412,1.706.272,1.748-.286-.081-.754-1.609S50.835,63.363,50.989,63.316Zm1.3,4.271c.934-.285,1.086-1.167.527-3s-1.168-2.472-2.094-2.188-1.087,1.167-.528,3S51.35,67.873,52.285,67.587Zm-3.432.73,1.109-.22-1.026-5.155-1.107.22Zm-2.7-.536-.01.937-1.073.137.327-5.34,1.058-.136,1.649,5.088-1.049.133-.253-.9Zm.4-.97-.369-1.3-.015,1.345Zm-2.5-2.171.7-.014-.019-.992-2.534.048.019.992.7-.013.081,4.262,1.13-.022Zm-3.462,4.234.869.072.437-5.237-1.038-.086-.176,2.108-.549-2.169-.965-.08-.436,5.237,1.014.084.205-2.469Zm-4.285-1.519-.294.891-1.064-.2,1.927-4.99,1.048.191L37.96,68.6l-1.04-.189.03-.939Zm.671-.8L37.02,65.2,36.6,66.48Zm-4.965.569.267-.873,1.212-1.562-.175-1.691.272-.888,2.246.688-.294.958-1.119-.343.172,1.615-1.16,1.5,1.158.355-.289.943ZM30.7,61.787c.129.066.151.257-.574,1.682s-.888,1.514-1.017,1.448-.151-.257.574-1.682S30.553,61.714,30.7,61.787Zm-2.031,3.975c.872.442,1.594-.086,2.46-1.793s.873-2.59.01-3.028-1.594.086-2.46,1.791S27.8,65.321,28.665,65.763ZM17.641,44.877,13.8,47.136,9.481,45.807a43.164,43.164,0,0,0,1.448,6.225A35.774,35.774,0,0,0,13.3,57.76l3.437-1.667.385.606q.646,1.017,1.39,1.967.779.992,1.655,1.9t1.857,1.764a28.515,28.515,0,0,0,4.29,3.044A30.435,30.435,0,0,0,31.2,67.658a32.077,32.077,0,0,0,5.508,1.467,33.665,33.665,0,0,0,11.522,0,32.064,32.064,0,0,0,5.507-1.467,30.5,30.5,0,0,0,4.888-2.28,28.743,28.743,0,0,0,4.29-3.046q.969-.838,1.857-1.764c.581-.607,1.135-1.242,1.653-1.9q.743-.95,1.39-1.967l.386-.606,3.436,1.667a35.779,35.779,0,0,0,2.374-5.728,43.158,43.158,0,0,0,1.447-6.225l-4.321,1.329L67.3,44.878l-.058.39c-.182,1.228-.356,2.459-.621,3.673l-.2.9-3.377-1.23-1.6,3.257a17.062,17.062,0,0,1-.872,1.56,17.7,17.7,0,0,1-1.045,1.48,18.043,18.043,0,0,1-1.191,1.375c-.424.445-.873.865-1.338,1.267a20.517,20.517,0,0,1-3.07,2.182,21.7,21.7,0,0,1-3.476,1.627,22.834,22.834,0,0,1-3.9,1.038,24.188,24.188,0,0,1-8.166,0,22.834,22.834,0,0,1-3.9-1.038,21.691,21.691,0,0,1-3.475-1.627,20.463,20.463,0,0,1-3.071-2.182c-.465-.4-.913-.822-1.338-1.267a18.093,18.093,0,0,1-1.192-1.375,17.494,17.494,0,0,1-1.044-1.481,17.044,17.044,0,0,1-.872-1.558l-1.6-3.257-3.378,1.23-.2-.9c-.265-1.212-.437-2.445-.621-3.671Z" transform="translate(492.208 197.242)" fill="#fea635" fill-rule="evenodd"/>
      <path id="Path_54" data-name="Path 54" d="M32.108,66.381l-.45,1.389-1.458,0,1.182.856-.454,1.387,1.179-.86,1.178.86-.454-1.387,1.183-.856-1.461,0Zm-6.172,0-.448,1.389H24.028l1.182.855-.454,1.387,1.179-.861,1.179.861-.454-1.387,1.182-.855H26.384Zm18.548,0-.448,1.389-1.458,0,1.182.856-.454,1.387,1.178-.86,1.179.86-.454-1.387,1.183-.856-1.461,0Zm6.172,0-.447,1.39-1.461,0,1.183.855-.454,1.387,1.178-.86,1.179.86-.454-1.387,1.182-.855-1.459,0Zm-12.377,0-.447,1.39-1.461,0,1.183.855L37.1,70.012l1.178-.86,1.179.86-.454-1.387,1.182-.855-1.459,0Z" transform="translate(496.09 202.979)" fill="#e51701" fill-rule="evenodd"/>
      <path id="Path_55" data-name="Path 55" d="M38.485,48.354c-.74-.058-.527-.635-.632-1.465a16.977,16.977,0,0,1-.037-2.012,3.8,3.8,0,0,1,.988-.7c.285.3.228.974.988,1.223a3.035,3.035,0,0,1-.379-.96,1.246,1.246,0,0,1,.015-.578c.1-.291.1-.234.281-.274a5.93,5.93,0,0,0,.372.753,3.986,3.986,0,0,0,1.044.934l.865.593a2.9,2.9,0,0,0,.251,1.253c.247.378.754.2,1.206.281a3.62,3.62,0,0,1,.014,1.254,17.46,17.46,0,0,1-3.205-.048Zm4.656-1.494a3.37,3.37,0,0,1,.1-.589c.062-.535-.086-.418.65-.839,1.584-.906,1.476-1.794,1.751-1.962a.321.321,0,0,1,.025.06l.067.188a1.314,1.314,0,0,1,.046.8,7.037,7.037,0,0,0-.265.9,2.078,2.078,0,0,0,.869-1.267c.347.141.727.466,1.1.649l-.168,3.242a6.748,6.748,0,0,1-3.459.552L43.8,47.049ZM29.594,48.934l-.008-.474.3.046a12.011,12.011,0,0,0,.309,3.181l.054.124c.313.063,3.035-.422,2.726.177-.175.341-.168.328-.11.8-.7.3-.455.946-.426,1.428.025.419.058-.023-.1.426a1.77,1.77,0,0,0,.025.959,4.346,4.346,0,0,0-2.04,1.14c-.285.294-.384.388-.429.63a5.055,5.055,0,0,1,2.647-1.11,5.5,5.5,0,0,1,.27.661,5.98,5.98,0,0,0-2.847,1.269,6.228,6.228,0,0,0-1.02,1.043c-.127.171-.267.366-.4.578-.171.265-.123.355-.375.618-.588-.926-.148-2.225.17-2.958a4.273,4.273,0,0,1,2.873-2.559l.177-.08a4.551,4.551,0,0,0-2.169.471,2.06,2.06,0,0,1-.526.252,10.963,10.963,0,0,1,.427-3.645c.443.18.12.109.5.587a1.709,1.709,0,0,0,.54.45,2.465,2.465,0,0,0-.361-.8,1,1,0,0,1-.09-.229A5.882,5.882,0,0,1,29.594,48.934Zm18.988,2.647a51.736,51.736,0,0,1-.032-6.014,1.759,1.759,0,0,1,.96.3c-.042,2.6-.072,3.223-.114,5.573ZM44.507,55.52a13.863,13.863,0,0,0,1.893-1.15,4,4,0,0,0,.269-.475l.954-1.353c.424-.533,2.355-.816,1.576-.073-.318.3-.5.2-.76.726a6.8,6.8,0,0,1,.8-.356c.3-.1.57-.136.836-.231.7-.25,1.081-.578,1.7-.364.228.478.07.4.086.812.013.329.2.218.355.559.136.293-.039.483-.062.746-.049.583.422.494.105.925-.352.513-.177.466-.117.7.092.359-.134.53-.26.817-.783-.046-1.367-.153-2.211-.152a41.1,41.1,0,0,1-4.362-.094,6.11,6.11,0,0,1-1.784-.478Zm-10.6-14.4a.644.644,0,1,1-.644.644A.644.644,0,0,1,33.9,41.123Zm6.256,1.928a2.911,2.911,0,0,0,.366.167,6.41,6.41,0,0,0,3.654-.009c-.239.2-.505.328-.685.511l-.041.042-.11.134-.033.049a1.458,1.458,0,0,0-.149.937c.011.6.038.2-.175.556s-.044.483-.181.884c-.1.308-.067.146-.13.232-.706-.251.286-1.095-1.069-1.524l-.513-.207C40.628,44.043,40.217,44.127,40.159,43.051Zm-7.8-2.154a3.913,3.913,0,0,0-1.212-.384l-.341-.186a17.535,17.535,0,0,1,4.168.233,18.479,18.479,0,0,1-.073,2.69c-.13,3.013.176,5.726.109,8.223l-.9-.087-.242-2.968c-.052-1.269.066-3.4-.018-4.594l-.005.013v-.011a34.368,34.368,0,0,0-.448,6.49c.035.581.208.383.193.8a1.015,1.015,0,0,1-.394.229c-.2.035-.327-.12-.851-.163a1.6,1.6,0,0,0-.474.011H31.86l-.057.011h-.01a.935.935,0,0,1-.28.006c-.114-2.093-.317-8.615.176-10.245l.666-.072h.006Zm17.923-.362a1.261,1.261,0,0,1,.177-.049l.038-.008h0a29.545,29.545,0,0,1,3.956-.148,1.2,1.2,0,0,1-.59.247l-.018,0h-.006l-.019,0-.187.034-.019,0h-.006l-.02,0a1.586,1.586,0,0,0-.7.285l.654.062a1.78,1.78,0,0,1,.168.54l.129,1.828c.066,1.064.115,7.4-.137,7.7a.5.5,0,0,1-.18.1c-.052.009-.117,0-.281.019-.128.014-.293.025-.436.035-.347.025-.683.018-1.031.041.033-.989.123-1.9.085-2.9-.018-.471-.06-.939-.073-1.409-.014-.454.076-1-.3-1.144v0h-.005a23.481,23.481,0,0,0-.11,3.013l-.1,1.272c-.053.893.123,1.249-.374,1.354l-.024.005h0a3.327,3.327,0,0,1-.639.028l.105-2.883c.062-.982.072-2.149.066-3.2,0-.44-.015-.916-.032-1.339C50.317,42.668,49.961,42.342,50.284,40.535ZM35.387,57.6a.824.824,0,0,0-.41-.1,4.389,4.389,0,0,1-1.462-.658c-.426-.247-.483-.328-.371-.991.11-.525-.3-.446-.2-.875.122-.546.266-.048.071-.932-.105-.475.122-.639.37-.844-.023-.765-.136-1.193.8-.983a1.478,1.478,0,0,1,.409.172c.635.3,1.248.353,1.793.6.274.124.117.12.433.2-.361-.528-1.5-.972-.488-1.144a2.73,2.73,0,0,1,1.158.334c1.008,1.024.892,1.8,1.8,2.315,5.837,3.323,5.482,2.7,10.632,2.7A15.877,15.877,0,0,1,52.8,57.8c.6.19,1.319.014,1.584.777l-2,.068c-1.544.028-2.639-.208-4.053-.275a1.557,1.557,0,0,0,.152.11,19.082,19.082,0,0,0,6.362.972l.114-.044a.722.722,0,0,1,.089-.029c.337-.044-.125-.044.128.015.35.081.429.105.569.322a4.32,4.32,0,0,1,.006,3.683c-.3.74-.493.841-1.406.692a37.013,37.013,0,0,1-7.51-2.212l-1.609-.627c-.248-.118-.338-.171-.531-.029a6.036,6.036,0,0,1,.685.378,27.283,27.283,0,0,0,4.96,2.2c.336.108.215-.075.334.265A13.662,13.662,0,0,1,45.3,62.747c-1-.56-.512-.454-1.579-.863l-.043-.016-2.475-1.527c-1.42-.968-2.13-1.875-3.239-2.356-1.109-.457-.845-.346-2.291-.346A1.653,1.653,0,0,1,35.387,57.6Zm.134,1.048c1.111.091,1.231-.117.982-.38a.889.889,0,0,1,.079-.353c.341.313.152.19.289.587.166.48,1.442.994,2.416,2.368.431.606.144.706-.051,1.274.308-.127.649-.174,1.3-.466.875-.394.6-.461,1.236,0-.321.647-2.529,1.276-3.3,1.484-1.406.381-2.337.35-3.125.633a.253.253,0,0,1-.039.015l-.456-.034c-.022-.005-.047-.014-.067-.019l-.137-.06a4.559,4.559,0,0,0,2.185-1.357l-3.423,1.1c-.855.286-1.993.424-2.845.775-.158.066-.3-.005-.576-.142-.821-.4-1.077-2.468-.6-3.5a3.633,3.633,0,0,1,.944-1.362,4.34,4.34,0,0,1,.666-.494c1.262-.747.669-.827,3.447-.827.687,0,.493.062.682.718C35.271,58.622,35.4,58.635,35.521,58.644Zm.326-7.181a7.609,7.609,0,0,0-.053-1.354l-.034-4.25a1.445,1.445,0,0,1,.94-.276c.025.816.052,1.283.051,2.013l-.009,2.14c-.009.438.1,1.492-.193,1.834l-.7-.1Zm19.26.366h.006c.058-.5.143-1.055.2-1.538.042-.333.051-1.079.061-1.771.706.445.3,2.947.071,3.532a7.133,7.133,0,0,0-.362.894,1.734,1.734,0,0,0,.55-.461c.2-.214.231-.419.46-.521a11.443,11.443,0,0,1,.478,3.6,7.546,7.546,0,0,0-2.292-.747l-.416.108a4.117,4.117,0,0,1,2.666,1.788c.393.626,1.131,2.657.551,3.652l-.179-.318c-.975-2.748-3.844-2.793-4.489-3.147l.3-.646a5.213,5.213,0,0,1,2.644,1.138c-.067-.331-.253-.432-.456-.622a3.761,3.761,0,0,0-2.021-1.148c.174-1.447-.1-.806-.085-1.345.005-.266.367-1.092-.412-1.465a2.231,2.231,0,0,0-.024-.589c-.076-.293.013.039-.1-.215l-.051-.161h.005a7.34,7.34,0,0,1,2.886-.013ZM51.733,41.123a.644.644,0,1,1-.644.644A.644.644,0,0,1,51.733,41.123ZM42.9,47.7a.281.281,0,1,1-.281.281A.28.28,0,0,1,42.9,47.7ZM71.462,59.987l-4.481-1.634c.285-1.259.47-2.53.664-3.856l.027-.176,3.637,2.14,4.148-1.276a42.936,42.936,0,0,1-1.428,6.106,35.705,35.705,0,0,1-1.942,4.874C72.111,65.491,72.3,60.287,71.462,59.987ZM19.435,67.119a31.789,31.789,0,0,1-3.726-6.236l5.767-2.151a50.261,50.261,0,0,0,2.681,4.9,14.373,14.373,0,0,1-3.46-3.773c-2.2.831-3.57,1.293-3.57,1.293A29.973,29.973,0,0,0,19.435,67.119Zm46.488,0a31.852,31.852,0,0,0,3.726-6.236l-5.768-2.151a49.982,49.982,0,0,1-2.681,4.9,14.357,14.357,0,0,0,3.461-3.773c2.2.831,3.569,1.293,3.569,1.293A29.971,29.971,0,0,1,65.923,67.119Zm-52.653-.955h0c-.024-.67-.207-5.877.625-6.177l4.481-1.634c-.284-1.259-.47-2.53-.663-3.856l-.027-.176L14.05,56.46,9.9,55.184a43.1,43.1,0,0,0,1.43,6.106A35.536,35.536,0,0,0,13.271,66.164Zm14.4.361c.31.236.39.4.688.592a20.778,20.778,0,0,0,2.707,1.871,21.949,21.949,0,0,0,3.519,1.643,22.916,22.916,0,0,0,3.955,1.053,24.169,24.169,0,0,0,8.28,0,22.886,22.886,0,0,0,3.955-1.053,21.9,21.9,0,0,0,3.519-1.643,20.577,20.577,0,0,0,3.1-2.2c.464-.4.912-.825,1.345-1.278a17.984,17.984,0,0,0,1.2-1.378,17.366,17.366,0,0,0,1.044-1.482,17.04,17.04,0,0,0,.873-1.561l1.53-3.119,7.238,2.638a39.365,39.365,0,0,1-4.176,7.315q-.777.992-1.646,1.9t-1.851,1.752A28.3,28.3,0,0,1,58.682,74.6a30.365,30.365,0,0,1-4.846,2.265,31.829,31.829,0,0,1-5.454,1.452,33.5,33.5,0,0,1-11.407,0,31.874,31.874,0,0,1-5.455-1.452A30.4,30.4,0,0,1,26.675,74.6a28.224,28.224,0,0,1-4.262-3.028q-.988-.849-1.852-1.752t-1.644-1.9a39.412,39.412,0,0,1-4.177-7.315l7.239-2.638,1.53,3.119a16.742,16.742,0,0,0,.873,1.561,17.35,17.35,0,0,0,1.043,1.482,18,18,0,0,0,1.2,1.378Q27.131,66.044,27.669,66.525ZM15.2,54.739l-1.3.763L8.7,53.9l.1.7a45.013,45.013,0,0,0,1.565,6.921,36.389,36.389,0,0,0,2.568,6.124l.226.427,3.49-1.7q.669,1.053,1.435,2.032c.527.67,1.1,1.326,1.706,1.961s1.25,1.247,1.913,1.817a29.134,29.134,0,0,0,4.411,3.133,31.55,31.55,0,0,0,5.016,2.342,33.019,33.019,0,0,0,5.646,1.5,34.422,34.422,0,0,0,11.8,0,32.974,32.974,0,0,0,5.645-1.5,31.512,31.512,0,0,0,5.017-2.342,29.186,29.186,0,0,0,4.41-3.133q.994-.855,1.914-1.817c.609-.635,1.178-1.291,1.705-1.961q.766-.979,1.435-2.032l3.49,1.7.227-.427a36.383,36.383,0,0,0,2.567-6.124A44.864,44.864,0,0,0,76.554,54.6l.1-.7L71.45,55.5l-1.3-.764.4-.317-1.1-1.544,1.4-1.392L69.6,50.063l1.25-1.532-1.394-1.283,1.083-1.653-1.52-1.13.9-1.756-1.63-.965.717-1.842-1.722-.791.518-1.905-1.8-.607.317-1.95-1.848-.416.111-1.973-1.881-.218-.1-1.975-1.894-.023-.3-1.951-1.886.176-.5-1.912-1.856.374-.7-1.847-1.808.565-.891-1.766-1.741.751-1.069-1.661-1.651.929-1.238-1.541-1.544,1.1-1.392-1.4-1.421,1.253-1.532-1.252L39.9,23.25l-1.653-1.083-1.13,1.52-1.756-.9-.965,1.63L32.554,23.7l-.791,1.72L29.857,24.9l-.606,1.794L27.3,26.376l-.416,1.848-1.971-.111-.22,1.881-1.975.1-.02,1.894-1.952.3.177,1.885-1.912.5.372,1.856-1.848.7L18.1,39.04l-1.765.891.751,1.739-1.662,1.069.93,1.651-1.541,1.238,1.1,1.543-1.4,1.392,1.253,1.421-1.25,1.532L15.9,52.8l-1.083,1.653ZM20.2,57.69l-.88.319c-.253-1.16-.429-2.364-.611-3.618l-.237-1.572-2.31,1.359.859-1.311a.316.316,0,0,0-.071-.423l-1.11-1.022,1.024-1.252a.317.317,0,0,0-.013-.414l-1.01-1.148,1.148-1.139a.316.316,0,0,0,.035-.407l-.888-1.252L17.394,44.8a.314.314,0,0,0,.075-.405l-.75-1.333,1.359-.875a.315.315,0,0,0,.109-.41l-.6-1.39,1.444-.728a.317.317,0,0,0,.16-.375l-.459-1.466,1.513-.574a.316.316,0,0,0,.2-.356l-.3-1.505,1.565-.412a.317.317,0,0,0,.233-.336L21.8,33.1l1.6-.246a.318.318,0,0,0,.267-.336l.016-1.508,1.615-.08a.316.316,0,0,0,.3-.277l.177-1.525,1.614.091a.318.318,0,0,0,.329-.258l.333-1.485,1.6.258a.316.316,0,0,0,.35-.21l.492-1.454,1.56.424a.318.318,0,0,0,.371-.174l.64-1.394,1.508.585a.315.315,0,0,0,.385-.133l.783-1.321,1.438.741a.317.317,0,0,0,.413-.115l.9-1.209,1.354.886a.316.316,0,0,0,.423-.07l1.022-1.11,1.252,1.022a.316.316,0,0,0,.414-.013l1.148-1.008,1.139,1.149a.317.317,0,0,0,.407.034l1.252-.889L47.9,24.743a.316.316,0,0,0,.407.073l1.333-.749.875,1.359a.313.313,0,0,0,.41.109l1.39-.6.728,1.444a.317.317,0,0,0,.376.16l1.466-.457.573,1.51a.318.318,0,0,0,.357.2l1.505-.3.413,1.565a.315.315,0,0,0,.334.234l1.528-.144.247,1.6a.316.316,0,0,0,.334.267l1.509.016.08,1.617a.316.316,0,0,0,.277.3l1.525.177-.091,1.614a.318.318,0,0,0,.258.329l1.486.333-.258,1.6a.316.316,0,0,0,.209.351l1.456.49-.424,1.562a.316.316,0,0,0,.174.369l1.395.64-.587,1.508a.315.315,0,0,0,.134.386l1.32.782-.74,1.438a.315.315,0,0,0,.114.413l1.21.9-.887,1.352a.319.319,0,0,0,.071.423l1.11,1.021L68.5,49.878a.319.319,0,0,0,.013.416l1.011,1.145-1.149,1.14a.316.316,0,0,0-.035.407l.835,1.177-2.284-1.344-.234,1.572c-.182,1.254-.359,2.458-.612,3.618l-.878-.319a23.749,23.749,0,1,0-44.967,0ZM38.606,34.938a3.513,3.513,0,0,1,.19-1.356c2.1-6.114,7.866-4.038,7.847,1.11-.005,1.411.023,1.66-.528,2.559-.274.445,0,.992-.294,1.248s-.954.047-1.239-.125c-.421-.255-.252-.674-.307-1.235a2.853,2.853,0,0,1,.011-1.418c.261-.281,1.318-.1,1.705-.378-.261-.76-1.779-.851-2.154-.338-.072.1.281-1.909,2.24-.474a1.413,1.413,0,0,0-2.479-.366c-.792,1.484,1.057,4.834-1.807,3.35a1.4,1.4,0,0,1,.223-.954c-.568.155-.664.735-.568,1.38.027.656-.675,1.3-1.973,1.38-.664-.671-.787-.82-.787-2.111A22.647,22.647,0,0,1,38.606,34.938Zm1.705,4.66c.735.052,1.544,1.16,3.7.505.514-.156.633-.433,1.086-.5a1.775,1.775,0,0,1-.647,1.423c-.759.381-.386-.293-1.706-.291-.636,0-.484-.058-.875.223C41.209,41.435,40.422,40.872,40.311,39.6Zm1.477-.137a1.958,1.958,0,0,1,1.981.052A2.916,2.916,0,0,1,41.788,39.461ZM39.5,34.531c.783-.243.922-1.171,2.285.2l-.5-.118c-.627,0-1.268.07-1.461.73.457.264.594.047,1.217.081l.973.108a1.308,1.308,0,0,0-.219-1.594A1.391,1.391,0,0,0,39.5,34.531ZM20.529,65.737l.322-1.2a.171.171,0,0,1,.212-.123l1.2.321a.173.173,0,0,1,.122.213l-.321,1.2a.172.172,0,0,1-.213.122l-1.2-.321A.173.173,0,0,1,20.529,65.737ZM54.561,76.029l-.355-.84-.071-1.976-1.219-1.186-.361-.855,2.164-.913.389.922-1.078.455L55.2,72.763l.073,1.9,1.116-.47.383.907ZM51.2,72.558c.138-.043.286.081.753,1.609s.412,1.706.272,1.748-.286-.081-.754-1.609S51.043,72.6,51.2,72.558Zm1.3,4.271c.934-.285,1.086-1.167.527-3s-1.168-2.472-2.094-2.188-1.087,1.167-.528,3S51.558,77.115,52.493,76.829Zm-3.432.73,1.109-.22-1.026-5.155-1.107.22Zm-2.7-.536-.01.937-1.073.137.327-5.34,1.058-.136,1.649,5.088-1.049.133-.253-.9Zm.4-.97-.369-1.3L46.377,76.1Zm-2.5-2.171.7-.014-.019-.992-2.534.048.019.992.7-.013.081,4.262,1.13-.022ZM40.8,78.115l.869.072.437-5.237-1.038-.086-.176,2.108L40.345,72.8l-.965-.08-.436,5.237,1.014.084.205-2.469ZM36.517,76.6l-.294.891-1.064-.2,1.927-4.99,1.048.191.035,5.347-1.04-.189.03-.939Zm.671-.8.041-1.347-.422,1.277Zm-4.965.569.267-.873L33.7,73.925l-.175-1.691.272-.888,2.246.688-.294.958-1.119-.343.172,1.615-1.16,1.5,1.158.355-.289.943ZM30.9,71.029c.129.066.151.257-.574,1.682s-.888,1.514-1.017,1.448-.151-.257.574-1.682S30.761,70.955,30.9,71.029ZM28.874,75c.872.442,1.594-.086,2.46-1.793s.873-2.59.01-3.028-1.594.086-2.46,1.791S28,74.562,28.874,75ZM64.83,65.737l-.322-1.2a.173.173,0,0,0-.213-.123l-1.2.321a.175.175,0,0,0-.123.213l.322,1.2a.171.171,0,0,0,.212.122l1.2-.321A.174.174,0,0,0,64.83,65.737ZM13.874,31.764,13.482,30.3a.211.211,0,0,0-.258-.149l-1.459.39a.213.213,0,0,0-.149.26l.391,1.458a.21.21,0,0,0,.258.149l1.459-.39A.212.212,0,0,0,13.874,31.764Zm56.589.443.391-1.459a.209.209,0,0,1,.258-.149l1.459.39a.214.214,0,0,1,.149.26l-.391,1.458a.211.211,0,0,1-.258.149l-1.459-.39A.212.212,0,0,1,70.463,32.208ZM64.795,28l-1.452.962-1.33-1.508,8.555-5.066,1.31,1.485-6.1,7.846-1.3-1.473L65.6,28.908Zm1.908-.4,1.608-1.919-2.085,1.378Zm-2.182-8.389c.524.4.11.97-.217,1.4-.3.394-.787.986-1.3.594Zm-2.472,3.323c1.3.991,2.655,1.021,3.963-.7s.85-2.877-.128-3.622l-2.007-1.527-5.913,7.775,1.624,1.235L62.014,22.5ZM58.36,15.56c.245.114.3.467-.946,3.166S55.876,21.6,55.63,21.489s-.3-.467.945-3.166S58.088,15.434,58.36,15.56Zm-3.484,7.53c1.649.76,2.952-.276,4.439-3.505s1.434-4.874-.2-5.626-2.952.276-4.439,3.507S53.227,22.331,54.876,23.09Zm-4.881-2.007,2.116-7.634,2.1.581.493-1.779-4.106-1.138-2.61,9.413Zm-5.9-2.7-.369,1.7-2.005-.151,2.59-9.6,1.975.148,1.106,9.879-1.96-.148L45.3,18.477Zm1.084-1.619-.187-2.5-.531,2.443Zm-5.3-4.527,1.3-.161-.227-1.831-4.675.578.226,1.831,1.3-.16.972,7.862,2.085-.258Zm-5.989,7.5.258,1.723-1.928.569-.983-9.894,1.9-.56,4.538,8.844-1.885.556L35.055,19.4Zm.441-1.9-1.062-2.268.37,2.472Zm-6.2,6.206,3.865-1.964-.836-1.646L29.15,21.46l-1.074-2.113,1.511-.768-.836-1.646-1.511.768L26.4,16.042l1.926-.979-.836-1.644L23.7,15.343ZM20.208,19.59c.519-.407.967.139,1.3.565.305.39.753,1.012.245,1.409Zm2.584,3.234c1.29-1.006,1.662-2.307.332-4.01s-2.567-1.554-3.536-.8L17.6,19.569l6.014,7.7,1.609-1.257-2.467-3.157Zm-4.432,4.71.111.193,2.621,2.221-1.348,1.591-7.452-6.314,1.348-1.591,2.152,1.824-1.571-2.511,1.368-1.614,2.089,3.638,5.382,2.653L21.7,29.238ZM57.093,65.817h-5.4a7.8,7.8,0,0,1,.089-1.372c.435-.091,2.562.792,3.492.69.28-.03.038-.043.313.143.194-.205.4-.253.536-.536.321-.661.435-1.258.7-1.927.106-.266.332-.369.5-.571.689-.829.741-3.274.545-4.4-.214-1.221-.631-.632-.517-1.729a12.709,12.709,0,0,0-.547-4.867c-.205-.673-.369-.391-.274-1.264a4.4,4.4,0,0,0-.165-1.421c-.721-3.2-.854-.359-.973-3.412,0-.166-.005-.329-.01-.485a20.2,20.2,0,0,0-.3-4.771.019.019,0,0,0-.016.011l-.528-.1a28.721,28.721,0,0,0-4.734.242,2.42,2.42,0,0,0-.409.106l.094,4.7c-1.1.025-.774-1.183-1.955-1.285-.331-.028-.417.02-.673-.156L45.5,42.324c1.446-1.33,1.2-2.323,1.713-4.41l.03-.124h0c.011-.042.022-.084.033-.127l.034-.128c.3-.081.2-.038.333-.317.077-.157.152-.329.236-.5a5.469,5.469,0,0,0,.419-1.041c.36-1.368-.611-1.614-1.122-1.42-.375-6.6-8.007-6.388-9-.054-.991-.009-1.511.152-1.148,1.514a3.541,3.541,0,0,0,1,1.866v.1l-.008-.01c-.023,1.85.318,3.706,1.368,4.8a12.524,12.524,0,0,1-2,1.167c-.57.25-.742,1.077-1.644,1.252l.128-4.786a27.287,27.287,0,0,0-5.451-.258,1.12,1.12,0,0,0-.3.1,15.03,15.03,0,0,0-.237,2.956,5.23,5.23,0,0,0-.014.63,6.293,6.293,0,0,1-.047.692c-.022.536-.008,1.111-.005,1.651.006,1.42-.357.927-.849,2.349a6.883,6.883,0,0,0-.271,1.278,2.174,2.174,0,0,0,.053.753l.155.478L28.542,51a7.411,7.411,0,0,0-.462,1.77,2.586,2.586,0,0,0-.1.584c.006.314.029-.008.024.25,0,.02,0,.043,0,.062s-.006.043-.009.065c0,0-.037.176-.042.212a13.092,13.092,0,0,0-.038,2.387,8.794,8.794,0,0,0-.707,2.625c-.052,1.337.228,2.93.97,3.552.405.34.471,1.062.664,1.558.674,1.746,1.143,1.234,3.347.7,1.556-.378,1.381-.7,1.325,1.052H28.264q-.458-.418-.872-.85-.6-.625-1.14-1.314a16.947,16.947,0,0,1-1-1.413,15.975,15.975,0,0,1-.83-1.485L22.7,57.243a.531.531,0,0,0-.652-.229l-1.52.554.578-.21a22.778,22.778,0,1,1,43.144,0l-.944-.345a.529.529,0,0,0-.651.229l-1.724,3.513a15.423,15.423,0,0,1-.831,1.485,17.249,17.249,0,0,1-1,1.413q-.542.688-1.139,1.314Q57.552,65.4,57.093,65.817Z" transform="translate(492 188)" fill="#6b0000" fill-rule="evenodd"/>
      <path id="Path_56" data-name="Path 56" d="M28.314,36.773A3.923,3.923,0,0,0,27.1,36.39l-.343-.187a17.644,17.644,0,0,1,4.177.233,18.476,18.476,0,0,1-.073,2.69c-.13,3.013.176,5.728.109,8.225l-.906-.087-.242-2.968c-.052-1.269.066-3.394-.018-4.594a34.37,34.37,0,0,0-.448,6.49c.035.581.208.383.193.8-.568.448-.469.13-1.252.067-.557-.044-.459.07-.832.034-.114-2.094-.317-8.617.176-10.245Zm17.923-.364a23.118,23.118,0,0,1,4.178-.205c-.412.364-1.048.179-1.567.584l.654.062a1.78,1.78,0,0,1,.168.54l.129,1.828c.066,1.064.115,7.4-.137,7.7-.2.147-.147.09-.467.123-.128.013-.293.025-.436.035-.347.025-.682.018-1.031.041.033-.989.123-1.9.085-2.9-.019-.471-.06-.939-.073-1.409-.014-.454.076-1-.3-1.143a23.482,23.482,0,0,0-.11,3.013l-.1,1.272c-.07,1.167.252,1.418-1.044,1.389l.105-2.883c.062-.982.072-2.149.066-3.2,0-.44-.015-.916-.033-1.339C46.27,38.543,45.914,38.219,46.237,36.41ZM34.445,44.229c-.74-.058-.527-.635-.632-1.465a16.978,16.978,0,0,1-.037-2.012,3.8,3.8,0,0,1,.988-.7c.285.3.228.974.988,1.223a3.035,3.035,0,0,1-.379-.96,1.246,1.246,0,0,1,.015-.578c.1-.291.1-.234.281-.274a5.93,5.93,0,0,0,.372.753,3.985,3.985,0,0,0,1.044.934l.865.593a2.9,2.9,0,0,0,.251,1.253c.247.378.754.2,1.206.281a3.62,3.62,0,0,1,.014,1.254,17.462,17.462,0,0,1-3.205-.048ZM39.1,42.735a3.371,3.371,0,0,1,.1-.589c.062-.535-.086-.418.65-.839,1.584-.906,1.476-1.794,1.751-1.962a.32.32,0,0,1,.025.06l.067.188a1.314,1.314,0,0,1,.046.8,7.038,7.038,0,0,0-.265.9,2.078,2.078,0,0,0,.869-1.267c.347.141.727.466,1.1.649l-.168,3.242a6.748,6.748,0,0,1-3.459.552l-.062-1.543ZM37.051,40.7c-.5-.835-.929-.683-.94-2.008-.005-.689.014-.675.338-.46a4.621,4.621,0,0,0,.765.564c.788.457,1.2.7,1.862.428.6-.247.784-.473,1.5-.777-.239.688-.812.831-1.125,1.148l-.041.042-.11.134-.033.049a1.458,1.458,0,0,0-.149.937c.011.6.038.2-.175.556s-.044.483-.181.884c-.1.308-.067.146-.13.232-.706-.251.286-1.095-1.069-1.524ZM31.7,41.741a1.466,1.466,0,0,1,.954-.284c.025.816.052,1.283.051,2.013L32.7,45.61c-.009.438.1,1.492-.193,1.834l-.708-.105a7.608,7.608,0,0,0-.053-1.354Zm-6.151,3.068-.008-.474.3.046a12.011,12.011,0,0,0,.309,3.181l.054.124c.313.063,3.035-.422,2.726.177-.175.341-.168.328-.11.8-.7.3-.455.946-.426,1.428.025.419.058-.023-.1.426a1.77,1.77,0,0,0,.025.959,4.345,4.345,0,0,0-2.04,1.14c-.285.294-.384.388-.429.63a5.055,5.055,0,0,1,2.647-1.11,5.5,5.5,0,0,1,.27.661,5.981,5.981,0,0,0-2.847,1.269,6.229,6.229,0,0,0-1.02,1.043c-.127.171-.267.366-.4.578-.171.265-.123.355-.375.618-.588-.926-.148-2.225.17-2.958a4.273,4.273,0,0,1,2.873-2.559l.177-.08a4.551,4.551,0,0,0-2.169.471,2.06,2.06,0,0,1-.526.252,10.963,10.963,0,0,1,.427-3.645c.443.18.12.109.5.587a1.709,1.709,0,0,0,.54.45,2.466,2.466,0,0,0-.361-.8,1,1,0,0,1-.09-.229A5.882,5.882,0,0,1,25.554,44.809Zm18.988,2.647a51.738,51.738,0,0,1-.032-6.014,1.759,1.759,0,0,1,.96.3c-.042,2.6-.072,3.223-.114,5.573Zm6.5,1.366a1.735,1.735,0,0,0,.55-.461c.2-.214.231-.419.46-.521a11.443,11.443,0,0,1,.478,3.6,7.546,7.546,0,0,0-2.292-.747l-.416.108a4.117,4.117,0,0,1,2.666,1.788c.393.626,1.131,2.657.551,3.652l-.179-.318c-.976-2.748-3.844-2.793-4.489-3.147l.3-.646a5.213,5.213,0,0,1,2.644,1.138c-.067-.331-.253-.432-.456-.622a3.761,3.761,0,0,0-2.021-1.148c.174-1.447-.1-.806-.085-1.345.005-.266.367-1.092-.412-1.465a2.231,2.231,0,0,0-.024-.589c-.076-.293.013.039-.1-.215l-.051-.162a7.367,7.367,0,0,1,2.891-.013c.058-.5.143-1.055.2-1.538.073-.588.008-1.185.065-1.774.709.44.3,2.947.073,3.533A7.132,7.132,0,0,0,51.045,48.821Zm-18.756-.908a2.73,2.73,0,0,1,1.158.334c1.008,1.024.892,1.8,1.8,2.315,5.837,3.323,5.482,2.7,10.632,2.7a15.877,15.877,0,0,1,2.882.407c.6.19,1.319.014,1.584.777l-2,.068c-1.544.028-2.639-.208-4.053-.275a1.554,1.554,0,0,0,.152.11,19.082,19.082,0,0,0,6.362.972l.114-.044a.723.723,0,0,1,.089-.029c.337-.044-.125-.044.128.015.35.081.429.105.569.322a4.32,4.32,0,0,1,.006,3.683c-.3.74-.493.841-1.406.692a37.013,37.013,0,0,1-7.51-2.212l-1.609-.627c-.248-.118-.338-.171-.531-.029a6.036,6.036,0,0,1,.685.378,27.284,27.284,0,0,0,4.96,2.2c.336.108.215-.075.334.265a13.661,13.661,0,0,1-5.378-1.315c-1-.56-.512-.454-1.579-.863l-.043-.016-2.475-1.527c-1.42-.968-2.13-1.875-3.239-2.356-1.109-.457-.845-.346-2.291-.346a5.333,5.333,0,0,1-2.161-.8c-.426-.247-.483-.328-.371-.991.11-.524-.3-.446-.2-.875.122-.546.266-.048.071-.932-.105-.475.122-.639.37-.844-.023-.765-.136-1.193.8-.983a1.478,1.478,0,0,1,.409.172c.635.3,1.248.353,1.793.6.274.124.117.12.433.2C32.415,48.529,31.28,48.085,32.288,47.913Zm8.178,3.481a13.863,13.863,0,0,0,1.893-1.15,4,4,0,0,0,.269-.475l.954-1.353c.424-.533,2.355-.816,1.576-.073-.318.3-.5.2-.76.726a6.8,6.8,0,0,1,.8-.356c.3-.1.57-.136.836-.231.7-.25,1.081-.578,1.7-.364.228.478.07.4.086.812.013.329.2.218.355.559.136.293-.039.483-.062.746-.049.583.422.494.105.925-.352.513-.177.466-.117.7.092.359-.134.53-.26.817-.783-.046-1.367-.153-2.211-.152a41.1,41.1,0,0,1-4.362-.094,6.11,6.11,0,0,1-1.784-.478ZM30.4,53.761c.687,0,.493.062.682.718,1.765.21,1.235-.28,1.459-.694.341.313.152.19.289.587.166.48,1.442.995,2.416,2.368.431.606.144.706-.051,1.274.308-.127.649-.174,1.3-.466.875-.394.6-.461,1.236,0-.321.647-2.529,1.276-3.3,1.484-1.406.381-2.337.35-3.125.633a.251.251,0,0,1-.039.015l-.456-.034c-.022-.005-.047-.014-.067-.019l-.137-.06a4.559,4.559,0,0,0,2.185-1.357l-3.423,1.1c-.855.286-1.993.424-2.845.775-.158.066-.3-.005-.576-.142-.821-.4-1.077-2.468-.6-3.5a3.633,3.633,0,0,1,.944-1.362,4.34,4.34,0,0,1,.666-.494C28.214,53.841,27.621,53.761,30.4,53.761ZM29.862,37a.644.644,0,1,1-.644.644A.644.644,0,0,1,29.862,37Zm4.7-6.185a3.513,3.513,0,0,1,.19-1.356c2.1-6.114,7.866-4.038,7.847,1.11-.005,1.411.023,1.66-.528,2.559-.274.445,0,.992-.294,1.248s-.954.047-1.239-.125c-.421-.255-.252-.674-.307-1.235a2.853,2.853,0,0,1,.011-1.418c.261-.281,1.318-.1,1.705-.378-.261-.76-1.779-.851-2.154-.338-.072.1.281-1.909,2.24-.474a1.413,1.413,0,0,0-2.479-.366c-.792,1.484,1.057,4.834-1.807,3.35a1.4,1.4,0,0,1,.223-.954c-.568.155-.664.735-.568,1.38.027.656-.675,1.3-1.973,1.38-.664-.671-.787-.82-.787-2.111A22.648,22.648,0,0,1,34.565,30.813Zm1.705,4.66c.735.052,1.544,1.16,3.7.505.514-.156.633-.433,1.086-.5A1.775,1.775,0,0,1,40.41,36.9c-.759.381-.386-.293-1.706-.291-.636,0-.484-.058-.875.223C37.168,37.309,36.382,36.747,36.27,35.472Zm1.477-.137a1.958,1.958,0,0,1,1.981.052A2.916,2.916,0,0,1,37.747,35.335Zm-2.289-4.929c.783-.243.922-1.171,2.285.2l-.5-.118c-.627,0-1.268.07-1.461.73.457.264.594.047,1.217.081l.973.108a1.308,1.308,0,0,0-.219-1.594A1.391,1.391,0,0,0,35.458,30.406ZM26.034,61.143a16.214,16.214,0,0,0,2.123-.5v0l-.015,0A17.086,17.086,0,0,1,26.034,61.143Z" transform="translate(496.041 192.125)" fill="#fff" fill-rule="evenodd"/>
    </g>
  </g>
</svg>
