<?xml version="1.0" encoding="UTF-8"?>
<!DOCTYPE svg PUBLIC "-//W3C//DTD SVG 1.1//EN" "http://www.w3.org/Graphics/SVG/1.1/DTD/svg11.dtd">
<!-- Creator: CorelDRAW 2020 (64-Bit Evaluation Version) -->
<svg xmlns="http://www.w3.org/2000/svg" xml:space="preserve" width="30mm" height="25.523mm" version="1.1" style="shape-rendering:geometricPrecision; text-rendering:geometricPrecision; image-rendering:optimizeQuality; fill-rule:evenodd; clip-rule:evenodd"
viewBox="0 0 3000 2552.3"
 xmlns:xlink="http://www.w3.org/1999/xlink"
 xmlns:xodm="http://www.corel.com/coreldraw/odm/2003">
 <defs>
  <style type="text/css">
   <![CDATA[
    .fil6 {fill:#FEFEFE}
    .fil9 {fill:#F9B454}
    .fil5 {fill:#F18C48}
    .fil4 {fill:#F4F4F4}
    .fil8 {fill:#CE4429}
    .fil0 {fill:#E1E2E1}
    .fil7 {fill:#C9CACB}
    .fil10 {fill:#802723}
    .fil11 {fill:#802723}
    .fil1 {fill:#A1C858}
    .fil2 {fill:#59B35F}
    .fil3 {fill:#41AF69}
   ]]>
  </style>
 </defs>
 <g id="Layer_x0020_1">
  <metadata id="CorelCorpID_0Corel-Layer"/>
  <g id="_1918676322752">
   <path class="fil0" d="M1899.32 324.07l0 0.01 -4.92 -2.17 4.92 2.16zm-847.22 15.97c133.1,-65.03 282.68,-101.56 440.79,-101.56 129.61,0 253.46,24.57 367.21,69.23 -79.91,-31.35 -164.82,-52.78 -253.2,-62.75 -122.87,40.38 -244.7,95.28 -362.93,165.86l0 0c-72.25,-27.38 -162.84,-60.54 -191.96,-70.73 -60.45,29.51 -121.88,59.52 0.09,-0.05z"/>
   <path class="fil1" d="M1243.97 410.82c118.22,-70.59 240.05,-125.48 362.94,-165.86 257.41,29.05 485.4,155.23 646.38,341.06 -95.68,56.54 -182.68,114.79 -259.44,170.47 -232.14,-127.51 -494.94,-247.13 -749.88,-345.67zm949.54 462.22l-0.01 0c-12.75,-7.95 -25.65,-15.88 -38.7,-23.8 13.05,7.92 25.95,15.85 38.71,23.8zm-38.95 -23.94c-3.47,-2.1 -6.95,-4.2 -10.43,-6.29 3.48,2.09 6.96,4.19 10.43,6.29zm-14.54 -8.76c-3.06,-1.85 -6.14,-3.68 -9.22,-5.52 3.08,1.84 6.16,3.67 9.22,5.52zm-14.23 -8.51c-2.99,-1.77 -5.97,-3.55 -8.97,-5.32 3,1.77 5.98,3.55 8.97,5.32zm-14.51 -8.59c-2.82,-1.66 -5.64,-3.31 -8.47,-4.97 2.83,1.66 5.65,3.31 8.47,4.97z"/>
   <path class="fil2" d="M1993.85 756.49c76.76,-55.68 163.77,-113.93 259.44,-170.47 119.22,137.65 201.62,308.01 232.08,495.79 -128.23,-108.87 -299.36,-219.79 -491.52,-325.32z"/>
   <path class="fil3" d="M1052.01 340.09c517.04,181.05 1110.89,467.87 1433.35,741.66 8.58,52.85 13.11,107.05 13.11,162.31 0,555.41 -450.19,1005.58 -1005.58,1005.58 -555.37,0 -1005.58,-450.17 -1005.58,-1005.58 0,-397.2 230.34,-740.59 564.7,-903.97z"/>
   <path class="fil4" d="M738.52 579.23c50.24,11.73 99.7,29.9 146.81,57.08 212.25,122.48 259.54,600.93 621.42,588.91 0,0 208.53,6.86 465.17,4.14 256.65,-2.72 184.44,-115.14 166.89,-126.05 0,0 -139.14,-86.62 41.2,-116.62 77.68,-12.92 164.2,9.97 237.54,40.19 23.72,18.27 46.35,36.5 67.78,54.68 0.66,4.04 1.33,8.07 1.94,12.12 -101.23,-53.66 -357.29,-102.56 -279.51,-36.09 79.76,68.16 166.47,125.42 10.4,209.94 -156.06,84.53 -597.17,30.52 -877.43,38.18 -280.27,7.66 -329.85,-481.14 -524.43,-614.75 -33.37,-22.9 -78.1,-39 -128.06,-50.06 15.95,-21.23 32.74,-41.78 50.28,-61.67z"/>
   <path class="fil5" d="M540.18 921.48c155.62,11.56 428,30.99 428,30.99l-390.1 -126.38c-14.18,30.99 -26.87,62.8 -37.9,95.39z"/>
   <path class="fil4" d="M764.67 550.61l197.85 61.2 -7.25 -152.82 -97.84 5.76c-32.68,26.68 -63.69,55.34 -92.76,85.86z"/>
   <polygon class="fil6" points="962.52,611.81 1253.63,609.41 1253.42,583.82 1247.86,458.38 1090.51,415.69 955.27,458.99 "/>
   <path class="fil5" d="M857.26 464.89l98.02 -5.6 137.94 -42.86 154.77 44.99c7.42,2.15 -0.13,-3.04 -0.13,-3.04l-168.43 -60.11 -130.61 0c-31.8,20.5 -62.36,42.76 -91.56,66.62z"/>
   <polygon class="fil4" points="1738.53,1533.58 1744.34,1605.79 2135.03,1699.95 2125.73,1543.64 "/>
   <polygon class="fil6" points="2341.43,1546.06 2343.17,1705.44 2135.03,1699.95 2125.73,1543.63 2244.33,1487.87 "/>
   <polygon class="fil5" points="1738.53,1533.58 2125.73,1543.64 2244.33,1487.87 2361.3,1560.18 2361.77,1558.26 2247.82,1462.28 1836.2,1457.7 "/>
   <path class="fil6" d="M959.06 951.82l10.28 144.17 -476 38.02c8.01,-73.65 23.93,-144.93 46.97,-212.92l418.75 30.73z"/>
   <path class="fil7" d="M2392.47 1111.94c-21.75,-1.04 -43.5,-2.09 -65.25,-3.14 -7.2,-28.8 -14.4,-57.6 -21.6,-86.41 108.13,4.73 80.42,-1.08 86.85,89.55z"/>
   <path class="fil7" d="M2270.96 1079.31c-6.7,-75.68 57.78,-70.69 55.62,-20.74l0.64 50.23 -16.41 -2.91 -42.4 -19.83 2.55 -6.75z"/>
   <path class="fil4" d="M2280.18 1092.06c0,0 1.27,-57.23 15.57,-56.48 14.3,0.75 24.16,45.98 20.98,57.73 -3.18,11.75 -2.23,14.24 -2.23,14.24l-34.32 -15.49z"/>
   <path class="fil8" d="M1838.93 158.23l-38.66 -60.01 -58.83 33.08c-5.85,3.46 -13.52,2.19 -17.91,-3.27l-44.71 -55.67 -55.26 39.22c-5.45,3.86 -13.06,3.37 -17.94,-1.51l-50.31 -50.74 -50.62 44.55c-5.03,4.63 -12.85,5.02 -18.3,0.58l-55.3 -45.17 -45.13 48.98c-4.43,5.7 -12.54,7.13 -18.66,3.12l-59.77 -39.13 -39.73 53.37c-3.78,6.16 -11.73,8.4 -18.24,5.08l-63.48 -32.68 -34.53 58.29c-3.42,5.77 -10.57,8.4 -17,5.91l-66.59 -25.85 -28.26 61.51c-2.78,6.1 -9.64,9.47 -16.33,7.67l-68.89 -18.75 -21.67 64.22c-2.14,6.33 -8.63,10.38 -15.47,9.26l-70.45 -11.41 -14.72 65.57c-1.26,6.83 -7.39,11.81 -14.5,11.41l-71.27 -4.04 -7.83 67.32c-0.8,6.64 -6.29,11.96 -13.19,12.3l-71.33 3.47 -0.74 66.59c0.51,7.16 -4.57,13.67 -11.79,14.79l-70.54 10.88 6.32 67.46c0.61,6.64 -3.65,13.03 -10.34,14.79l-69.04 18.2 13.35 66.45c1.3,6.54 -2.27,13.27 -8.73,15.71l-66.74 25.32 20.22 64.7c1.96,6.39 -0.87,13.45 -7.03,16.58l-63.78 32.15 26.48 61.32c3.29,6.3 1.28,14.26 -4.84,18.16l-60.02 38.64 33.11 58.84c3.46,5.86 2.17,13.51 -3.29,17.91l-55.65 44.68 39.22 55.23c3.87,5.47 3.34,13.13 -1.55,17.96l-50.72 50.3 44.58 50.64c4.66,5.02 5.02,12.83 0.57,18.3l-45.16 55.27 48.97 45.13c5.72,4.44 7.14,12.55 3.11,18.69l-37.89 57.84 101.97 -59.99 10.42 69.43c8.04,55.37 15.78,108.45 26.99,159.73l0 0 38.84 -14.15c-36.18,-106.16 -55.84,-219.98 -55.84,-338.4l0 0c0,-578.97 469.38,-1048.37 1048.38,-1048.37 579.02,0 1048.4,469.4 1048.4,1048.37 0,118.42 -19.66,232.25 -55.85,338.43l38.77 14.12c11.19,-51.28 18.96,-104.36 27.01,-159.73l10.37 -69.43 100.85 59.32 -36.87 -51.94c-3.86,-5.47 -3.36,-13.09 1.53,-17.97l50.74 -50.3 -44.59 -50.59c-4.64,-5.02 -5,-12.83 -0.56,-18.3l45.17 -55.31 -49 -45.09c-5.67,-4.44 -7.11,-12.54 -3.11,-18.68l39.15 -59.72 -53.43 -39.72c-6.14,-3.8 -8.39,-11.76 -5.04,-18.24l32.66 -63.48 -58.29 -34.54c-5.77,-3.41 -8.4,-10.59 -5.92,-17.04l25.89 -66.54 -61.56 -28.24c-6.08,-2.78 -9.46,-9.62 -7.66,-16.29l18.73 -68.95 -64.23 -21.67c-6.35,-2.14 -10.41,-8.63 -9.28,-15.46l11.43 -70.45 -65.61 -14.68c-6.79,-1.28 -11.8,-7.42 -11.4,-14.54l4.02 -71.24 -67.32 -7.85c-6.64,-0.78 -11.94,-6.3 -12.28,-13.17l-3.47 -71.33 -66.65 -0.73c-7.16,0.49 -13.66,-4.58 -14.75,-11.8l-10.9 -70.56 -67.46 6.35c-6.68,0.63 -13.03,-3.66 -14.79,-10.35l-18.21 -69.04 -66.44 13.32c-6.55,1.33 -13.29,-2.24 -15.74,-8.73l-25.33 -66.68 -64.69 20.19c-6.4,1.95 -13.49,-0.87 -16.59,-7.03l-32.17 -63.77 -61.33 26.44c-6.31,3.32 -14.23,1.34 -18.16,-4.82z"/>
   <path class="fil9" d="M515.03 1937.74l14.18 -52.93c1.08,-4.1 5.3,-6.55 9.37,-5.42l52.93 14.15c4.08,1.12 6.51,5.32 5.41,9.42l-14.18 52.89c-1.09,4.08 -5.32,6.54 -9.37,5.41l-52.95 -14.14c-4.07,-1.14 -6.5,-5.33 -5.39,-9.38z"/>
   <path class="fil9" d="M2470.74 1937.74l-14.2 -52.93c-1.1,-4.1 -5.3,-6.55 -9.38,-5.42l-52.92 14.15c-4.06,1.12 -6.51,5.32 -5.42,9.42l14.18 52.89c1.08,4.08 5.33,6.54 9.38,5.41l52.94 -14.14c4.07,-1.14 6.5,-5.33 5.42,-9.38z"/>
   <path class="fil9" d="M396.73 1424.83l-169.45 99.71 -190.76 -58.67c14.87,93.03 35.46,184.94 63.91,274.82 27.63,87.42 62.54,171.59 104.77,252.87l151.69 -73.62 17.05 26.77c19.01,29.92 39.48,58.95 61.34,86.86 22.89,29.16 47.33,57.17 73,83.95 26.07,27.28 53.44,53.23 82.01,77.86 58.73,50.61 122.33,95.49 189.37,134.42 68.72,39.91 141.09,73.58 215.74,100.75 78.92,28.79 160.41,50.35 243.16,64.75 83.95,14.58 169.14,21.91 254.33,21.91 85.21,0 170.4,-7.33 254.35,-21.91 82.72,-14.4 164.2,-35.96 243.09,-64.75 74.68,-27.22 147.05,-60.78 215.77,-100.69 67.03,-38.99 130.62,-83.87 189.35,-134.48 28.54,-24.63 55.96,-50.62 82.02,-77.86 25.66,-26.78 50.1,-54.79 72.96,-83.95 21.9,-27.96 42.38,-56.94 61.39,-86.86l17.03 -26.77 151.68 73.62c42.29,-81.24 77.11,-165.45 104.78,-252.87 28.44,-89.88 49.08,-181.79 63.92,-274.82l-190.8 58.67 -169.42 -99.67 -2.58 17.23c-8.08,54.21 -15.76,108.56 -27.44,162.12l-8.68 39.82 -149.12 -54.35 -70.57 143.83c-11.59,23.6 -24.49,46.59 -38.52,68.84 -14.26,22.53 -29.63,44.34 -46.1,65.32 -16.52,21.07 -34.04,41.32 -52.56,60.7 -18.75,19.61 -38.55,38.19 -59.1,55.91 -42.04,36.25 -87.54,68.4 -135.5,96.31 -48.89,28.4 -100.34,52.45 -153.45,71.77 -55.92,20.4 -113.64,35.67 -172.3,45.85 -59.46,10.35 -119.83,15.32 -180.2,15.32 -60.38,0 -120.74,-4.97 -180.27,-15.32 -58.61,-10.18 -116.34,-25.45 -172.27,-45.85 -53.12,-19.32 -104.55,-43.37 -153.44,-71.77 -47.98,-27.91 -93.47,-60.06 -135.51,-96.31 -20.55,-17.72 -40.33,-36.3 -59.1,-55.91 -18.53,-19.32 -36.06,-39.63 -52.61,-60.7 -16.44,-20.98 -31.87,-42.79 -46.08,-65.38 -13.98,-22.25 -26.91,-45.18 -38.49,-68.78l-70.57 -143.83 -149.11 54.35 -8.72 -39.82c-11.68,-53.52 -19.28,-107.91 -27.41,-162.07l-2.58 -17.32z"/>
   <path class="fil10" d="M2129.22 1941.25l-238.63 0c0.11,-24.74 1.15,-47.64 3.94,-60.53 19.17,-4.07 113.12,34.93 154.15,30.47 12.35,-1.35 1.68,-1.91 13.83,6.33 8.52,-9.09 17.59,-11.18 23.64,-23.67 14.12,-29.18 19.17,-55.57 31.03,-85.08 4.73,-11.77 14.64,-16.24 22.13,-25.24 30.43,-36.54 32.74,-144.48 24.06,-194.14 -9.43,-53.92 -27.87,-27.91 -22.81,-76.35 7.32,-70.21 -3.54,-146.92 -24.18,-214.87 -9.03,-29.74 -16.29,-17.31 -12.06,-55.86 2.4,-21.93 -3.18,-44.57 -7.27,-62.71 -31.83,-141.11 -37.71,-15.83 -42.94,-150.64 -0.1,-7.3 -0.25,-14.51 -0.47,-21.4 6.45,-43.06 -6.34,-214.17 -13.26,-210.61 -0.24,-0.03 -0.47,0.12 -0.69,0.47l-23.37 -4.53c-38.85,-2.22 -156.97,0.76 -209.01,10.7 -7.51,1.42 -13.67,2.99 -18.03,4.7l4.14 207.34c-48.65,1.09 -34.15,-52.24 -86.33,-56.71 -14.59,-1.25 -18.35,0.89 -29.65,-6.89l-59.89 -47.86c63.77,-58.76 53,-102.56 75.58,-194.73l0 0c0.44,-1.8 0.9,-3.62 1.36,-5.46l0 0c0.47,-1.84 0.95,-3.69 1.45,-5.57 0.49,-1.88 1,-3.77 1.53,-5.69 13.28,-3.54 8.58,-1.68 14.66,-13.95 3.46,-6.97 6.71,-14.55 10.41,-21.87 6.47,-12.76 14.09,-29.13 18.52,-45.96 15.9,-60.4 -26.97,-71.27 -49.55,-62.73 -16.54,-291.21 -353.44,-281.96 -397.38,-2.38 -43.69,-0.39 -66.69,6.7 -50.63,66.84 6.81,25.5 22.42,69.16 44.3,82.37 -0.03,1.42 -0.05,2.85 -0.07,4.27l-0.34 -0.44c-1.02,81.67 14.03,163.58 60.38,211.7 -33.71,23.41 -64.12,40.98 -88.18,51.5 -25.16,11.01 -32.78,47.56 -72.58,55.25l5.63 -211.25c-39.46,-4.93 -187.37,-21.96 -240.65,-11.44 -5.58,1.08 -10.14,2.47 -13.44,4.19 -11.22,40.89 -7.64,86.98 -10.47,130.49 -0.66,10.13 -1.02,17.76 -0.57,27.81 0.63,13.86 -1.45,14.23 -2.09,30.53 -0.93,23.67 -0.34,49.06 -0.23,72.87 0.28,62.68 -15.74,40.95 -37.47,103.69 -4.32,12.46 -10.96,41.91 -11.97,56.4 -0.97,13.98 -0.46,21.21 2.35,33.24l6.85 21.11 -16.2 12.24c-9.24,12.24 -16.83,61.35 -20.38,78.1 -1.96,9.24 -4.71,17.09 -4.55,25.82 0.26,13.85 1.3,-0.33 1.05,11.04 -0.02,0.87 -0.07,1.85 -0.14,2.73 -0.07,0.93 -0.27,1.88 -0.39,2.83 0,0.04 -1.63,7.78 -1.88,9.32 -8.61,53.18 0.33,70.22 -1.66,105.37 -0.53,9.3 -28.92,56.72 -31.23,115.89 -2.29,59.03 10.09,129.35 42.87,156.85 17.88,15 20.79,46.83 29.28,68.8 29.76,77.01 50.46,54.44 147.75,30.88 68.73,-16.64 60.98,-30.68 58.51,46.42l-231.47 0c-13.5,-12.31 -26.35,-24.83 -38.5,-37.52 -17.58,-18.39 -34.36,-37.75 -50.28,-58 -16,-20.44 -30.73,-41.28 -43.98,-62.36 -13.45,-21.31 -25.67,-43.18 -36.66,-65.51l-76.11 -155.1c-4.73,-9.67 -17.61,-14.15 -28.79,-10.11l-67.09 24.44 25.48 -9.29c-34.52,-101.59 -53.26,-210.47 -53.26,-323.74 0,-555.36 450.21,-1005.57 1005.57,-1005.57 555.36,0 1005.58,450.21 1005.58,1005.57 0,113.28 -18.74,222.17 -53.27,323.76l-41.66 -15.17c-11.17,-4.04 -24.06,0.44 -28.78,10.11l-76.1 155.1c-10.94,22.33 -23.17,44.2 -36.67,65.51 -13.3,21.08 -27.96,41.92 -43.99,62.36 -15.9,20.25 -32.69,39.61 -50.27,58 -12.17,12.69 -25,25.21 -38.51,37.52zm341.52 -3.51l-14.2 -52.93c-1.09,-4.1 -5.3,-6.54 -9.38,-5.42l-52.92 14.15c-4.06,1.12 -6.51,5.32 -5.41,9.42l14.17 52.88c1.08,4.1 5.33,6.54 9.38,5.42l52.94 -14.14c4.07,-1.14 6.5,-5.33 5.42,-9.38zm-1955.71 0l14.17 -52.93c1.08,-4.1 5.3,-6.54 9.38,-5.42l52.93 14.15c4.08,1.12 6.51,5.32 5.4,9.42l-14.17 52.88c-1.09,4.1 -5.33,6.54 -9.38,5.42l-52.94 -14.14c-4.06,-1.14 -6.5,-5.33 -5.39,-9.38zm837.46 -1377.58c34.56,-10.77 40.72,-51.7 100.88,8.79l-22.06 -5.2c-27.7,0 -56.02,3.11 -64.49,32.24 20.15,11.63 26.19,2.06 53.74,3.58l42.94 4.75c10.79,-24.37 11.63,-51.45 -9.67,-70.36 -37.49,-33.28 -92.05,-13.64 -101.34,26.2zm101.07 217.57c15.9,-10.26 57.26,-19.02 87.46,2.31 -17.27,6.72 -71.29,11.41 -87.46,-2.31zm-65.25 6.05c32.44,2.3 68.22,51.25 163.45,22.33 22.7,-6.89 27.98,-19.13 47.93,-21.92 -1.81,25.96 -11.51,54.17 -28.59,62.77 -33.49,16.88 -17.04,-12.9 -75.32,-12.83 -28.11,0.02 -21.37,-2.58 -38.66,9.83 -29.13,20.91 -63.86,-3.93 -68.81,-60.18zm-75.23 -205.69c-0.56,-25.04 1.76,-40.6 8.35,-59.83 92.61,-269.92 347.27,-178.28 346.41,48.98 -0.23,62.28 1.04,73.28 -23.32,112.96 -12.05,19.63 -0.08,43.83 -12.98,55.08 -12.68,11.07 -42.08,2.1 -54.67,-5.51 -18.58,-11.22 -11.12,-29.75 -13.55,-54.53 -2.21,-22.51 -7.78,-41.88 0.54,-62.61 11.47,-12.41 58.11,-4.42 75.23,-16.64 -11.49,-33.56 -78.48,-37.61 -95.09,-14.93 -3.15,4.31 12.45,-84.31 98.94,-20.9 -10.09,-46.3 -86.86,-58.59 -109.47,-16.19 -34.93,65.48 46.63,213.41 -79.77,147.85 -1.98,-20.08 3.19,-30.13 9.85,-42.09 -25.02,6.82 -29.32,32.46 -25.08,60.9 1.22,28.95 -29.75,57.64 -87.03,60.91 -29.3,-29.65 -34.77,-36.2 -34.77,-93.15 -3.92,-53.35 -1.7,-15.01 -3.59,-100.3zm-812.73 1004.37l-38.84 14.15 0 0c-11.21,-51.28 -18.95,-104.36 -26.99,-159.73l-10.42 -69.43 -101.97 59.99 37.89 -57.84c4.03,-6.14 2.61,-14.25 -3.11,-18.69l-48.97 -45.13 45.16 -55.27c4.45,-5.47 4.09,-13.28 -0.57,-18.3l-44.58 -50.64 50.72 -50.3c4.89,-4.83 5.42,-12.49 1.55,-17.96l-39.22 -55.23 55.65 -44.68c5.46,-4.4 6.75,-12.05 3.29,-17.91l-33.11 -58.84 60.02 -38.64c6.12,-3.9 8.13,-11.86 4.84,-18.16l-26.48 -61.32 63.78 -32.15c6.16,-3.13 8.99,-10.19 7.03,-16.58l-20.22 -64.7 66.74 -25.32c6.46,-2.44 10.03,-9.17 8.73,-15.71l-13.35 -66.45 69.04 -18.2c6.69,-1.76 10.95,-8.15 10.34,-14.79l-6.32 -67.46 70.54 -10.88c7.22,-1.12 12.3,-7.63 11.79,-14.79l0.74 -66.59 71.33 -3.47c6.9,-0.34 12.39,-5.66 13.19,-12.3l7.83 -67.32 71.27 4.04c7.11,0.4 13.24,-4.58 14.5,-11.41l14.72 -65.57 70.45 11.41c6.84,1.12 13.33,-2.93 15.47,-9.26l21.67 -64.22 68.89 18.75c6.69,1.8 13.55,-1.57 16.33,-7.67l28.26 -61.51 66.59 25.85c6.43,2.49 13.58,-0.14 17,-5.91l34.53 -58.29 63.48 32.68c6.51,3.32 14.46,1.08 18.24,-5.08l39.73 -53.37 59.77 39.13c6.12,4.01 14.23,2.58 18.66,-3.12l45.13 -48.98 55.3 45.17c5.45,4.44 13.27,4.05 18.3,-0.58l50.62 -44.55 50.31 50.74c4.88,4.88 12.49,5.37 17.94,1.51l55.26 -39.22 44.71 55.67c4.39,5.46 12.06,6.73 17.91,3.27l58.83 -33.08 38.66 60.01c3.93,6.16 11.85,8.14 18.16,4.82l61.33 -26.44 32.17 63.77c3.1,6.16 10.19,8.98 16.59,7.03l64.69 -20.19 25.33 66.68c2.45,6.49 9.19,10.06 15.74,8.73l66.44 -13.32 18.21 69.04c1.76,6.69 8.11,10.98 14.79,10.35l67.46 -6.35 10.9 70.56c1.09,7.22 7.59,12.29 14.75,11.8l66.65 0.73 3.47 71.33c0.34,6.87 5.64,12.39 12.28,13.17l67.32 7.85 -4.02 71.24c-0.4,7.12 4.61,13.26 11.4,14.54l65.61 14.68 -11.43 70.45c-1.13,6.83 2.93,13.32 9.28,15.46l64.23 21.67 -18.73 68.95c-1.8,6.67 1.58,13.51 7.66,16.29l61.56 28.24 -25.89 66.54c-2.48,6.45 0.15,13.63 5.92,17.04l58.29 34.54 -32.66 63.48c-3.35,6.48 -1.1,14.44 5.04,18.24l53.43 39.72 -39.15 59.72c-4,6.14 -2.56,14.24 3.11,18.68l49 45.09 -45.17 55.31c-4.44,5.47 -4.08,13.28 0.56,18.3l44.59 50.59 -50.74 50.3c-4.89,4.88 -5.39,12.5 -1.53,17.97l36.87 51.94 -100.85 -59.32 -10.37 69.43c-8.05,55.37 -15.82,108.45 -27.01,159.73l-38.77 -14.12c36.19,-106.18 55.85,-220.01 55.85,-338.43 0,-578.97 -469.38,-1048.37 -1048.4,-1048.37 -579,0 -1048.38,469.4 -1048.38,1048.37l0 0c0,118.42 19.66,232.24 55.84,338.4zm-220.39 -130.21l-57.21 33.65 -229.88 -70.68 4.55 30.69c16.47,110.11 39.11,210.77 69.05,305.51 30.06,94.94 67.45,183.83 113.37,270.39l9.98 18.82 154.07 -74.83c19.67,30.98 40.83,60.93 63.38,89.71 23.25,29.63 48.39,58.56 75.29,86.61 27.03,28.29 55.22,55.02 84.5,80.21 59.6,51.42 124.84,97.72 194.72,138.26 69.44,40.35 143.59,75.04 221.41,103.43 80.58,29.37 164.03,51.53 249.27,66.31 85.76,14.92 172.93,22.49 260.43,22.49 87.46,0 174.65,-7.57 260.43,-22.49 85.21,-14.78 168.66,-36.94 249.2,-66.31 77.85,-28.39 152,-63.08 221.47,-103.43 69.78,-40.54 135.09,-86.84 194.7,-138.26 29.26,-25.19 57.46,-51.92 84.5,-80.21 26.91,-28.05 52.02,-56.98 75.26,-86.61 22.54,-28.78 43.73,-58.73 63.41,-89.71l154.06 74.83 9.99 -18.82c45.91,-86.56 83.32,-175.45 113.33,-270.39 30,-94.74 52.6,-195.4 69.07,-305.51l4.56 -30.69 -229.9 70.68 -57.32 -33.71 17.43 -14 -48.43 -68.15 61.98 -61.47 -55.29 -62.75 55.21 -67.62 -61.53 -56.64 47.8 -72.99 -67.09 -49.9 39.88 -77.53 -71.94 -42.6 31.63 -81.33 -76.01 -34.88 22.9 -84.16 -79.24 -26.74 13.97 -86.11 -81.58 -18.35 4.92 -87.03 -83.08 -9.67 -4.23 -87.18 -83.63 -0.97 -13.3 -86.16 -83.27 7.8 -22.25 -84.4 -81.96 16.49 -30.95 -81.53 -79.8 24.93 -39.3 -77.96 -76.83 33.18 0 0 -47.21 -73.34 -72.87 40.99 -54.64 -68.01 -68.2 48.4 -61.46 -61.97 -62.76 55.28 -67.61 -55.22 -56.67 61.51 -72.98 -47.81 -49.92 67.09 -77.54 -39.91 -42.61 71.97 -81.32 -31.62 -34.88 75.96 -84.18 -22.88 -26.73 79.23 -86.15 -14.01 -18.3 81.58 -87.07 -4.92 -9.68 83.08 -87.19 4.2 -0.95 83.62 -86.16 13.31 7.83 83.25 -84.41 22.24 16.47 81.96 -81.6 30.89 24.96 79.82 -77.94 39.32 33.19 76.8 -73.37 47.22 41.02 72.85 -68.01 54.64 48.39 68.15 -61.94 61.47 55.29 62.75 -55.21 67.61 61.53 56.65 -47.8 73 16.98 12.63zm550.25 520.29c13.73,10.39 17.22,17.48 30.41,26.1 37.1,30.33 77.08,58 119.52,82.64 48.65,28.25 100.68,52.6 155.33,72.49 56.46,20.64 114.95,36.16 174.65,46.5 60.27,10.5 121.41,15.77 182.77,15.77 61.27,0 122.46,-5.27 182.72,-15.77 59.73,-10.34 118.2,-25.86 174.63,-46.5 54.67,-19.89 106.7,-44.24 155.39,-72.49 49.01,-28.49 94.85,-61.03 136.65,-97.04 20.49,-17.67 40.26,-36.45 59.39,-56.44 18.97,-19.77 36.63,-40.11 52.87,-60.86 16.37,-20.86 31.75,-42.67 46.08,-65.41 14.08,-22.45 27,-45.43 38.52,-68.94l67.58 -137.68 319.51 116.45c-56.46,114.7 -104.5,220.92 -184.35,322.94 -22.86,29.17 -47.14,57.13 -72.63,83.81 -25.41,26.5 -52.68,52.35 -81.74,77.37 -57.75,49.78 -120.83,94.56 -188.18,133.64 -67.49,39.18 -139.07,72.75 -213.89,100.02 -77.86,28.39 -158.5,49.76 -240.78,64.06 -82.35,14.4 -166.66,21.61 -251.77,21.61 -85.15,0 -169.48,-7.21 -251.81,-21.61 -82.27,-14.3 -162.92,-35.67 -240.8,-64.06 -74.77,-27.27 -146.45,-60.84 -213.9,-100.02 -67.32,-39.08 -130.4,-83.86 -188.12,-133.64 -29.09,-25.02 -56.39,-50.87 -81.76,-77.37 -25.55,-26.68 -49.79,-54.64 -72.64,-83.81 -80.12,-102.12 -127.59,-208.18 -184.35,-322.94l0 0 319.55 -116.45 67.55 137.68c11.54,23.51 24.4,46.49 38.54,68.94 14.3,22.74 29.65,44.55 46.05,65.41 16.24,20.75 33.9,41.09 52.87,60.86 14.96,15.64 30.37,30.54 46.14,44.74zm-635.58 -15.97l0 0c-1.09,-29.56 -9.15,-259.4 27.52,-272.68l197.87 -72.15c-12.56,-55.58 -20.75,-111.67 -29.29,-170.27l-1.16 -7.76 -160.55 94.46 -183.21 -56.31c15.75,96.46 36.44,185.45 63.09,269.6 23.68,74.89 52.07,145.94 85.73,215.11zm2324.38 42.2c78.03,-100 144.23,-225.69 164.49,-275.31 -169.75,-63.27 -254.64,-94.94 -254.64,-94.94 -53.94,107.58 -93.42,179.59 -118.35,216.09 63.91,-45.53 121.02,-116.17 152.78,-166.53 97.25,36.69 157.59,57.09 157.59,57.09 -27.41,92.84 -60.44,190.33 -101.87,263.6zm-2052.27 0c-78.05,-100 -144.24,-225.69 -164.48,-275.31 169.73,-63.27 254.62,-94.94 254.62,-94.94 53.95,107.58 93.42,179.59 118.34,216.09 -63.89,-45.53 -121.01,-116.17 -152.75,-166.53 -97.27,36.69 -157.61,57.09 -157.61,57.09 27.42,92.84 60.44,190.33 101.88,263.6zm2296.78 -314.88l-197.82 -72.15c12.61,-55.58 20.75,-111.67 29.32,-170.27l1.16 -7.76 160.56 94.46 183.16 -56.31c-15.68,96.46 -36.41,185.45 -63.06,269.6 -23.69,74.89 -52.07,145.94 -85.74,215.11 1.1,-29.66 9.22,-259.4 -27.58,-272.68zm-1261.12 -542.23c6.85,0 12.41,5.55 12.41,12.41 0,6.85 -5.56,12.4 -12.41,12.4 -6.85,0 -12.41,-5.55 -12.41,-12.4 0,-6.86 5.56,-12.41 12.41,-12.41zm390.18 -290.51c15.69,0 28.41,12.72 28.41,28.41 0,15.69 -12.72,28.41 -28.41,28.41 -15.69,0 -28.41,-12.72 -28.41,-28.41 0,-15.69 12.72,-28.41 28.41,-28.41zm148.92 472.62l0.27 0.03c2.58,-22.22 6.34,-46.62 8.98,-67.93 1.82,-14.71 2.23,-47.65 2.69,-78.16 31.15,19.63 13.17,130.05 3.14,155.91 -5.26,13.55 -13.75,28.29 -16.03,39.48 10.25,-5.08 15.17,-10.45 24.31,-20.37 8.72,-9.44 10.16,-18.5 20.25,-22.97 12.38,22.57 23.26,116.65 21.12,158.85 -8.31,-1.76 -61.49,-32.49 -101.19,-33.02l-18.33 4.75c48.1,2.13 100.47,51.55 117.65,78.9 17.35,27.65 49.94,117.27 24.37,161.24l-7.9 -14.01c-43.09,-121.32 -169.71,-123.32 -198.17,-138.9l13.43 -28.56c52.26,6.25 84.38,26.66 116.69,50.21 -2.93,-14.6 -11.15,-19.02 -20.08,-27.42 -29.1,-27.42 -45.11,-39.62 -89.23,-50.7 7.63,-63.89 -4.23,-35.54 -3.75,-59.38 0.24,-11.78 16.2,-48.22 -18.17,-64.67 0.1,-8.65 1.09,-17.62 -1.08,-25.98 -3.36,-12.94 0.59,1.74 -4.36,-9.5l-2.22 -7.14 0.22 -0.06c61.36,-10.48 61.95,-6.84 127.38,-0.52l0.01 -0.08zm-850.25 -16.15c0,-20.33 1.12,-41.87 -2.34,-59.79l-1.55 -187.66c11.21,-6.5 27.73,-15.42 41.5,-12.15 1.13,36.01 2.34,56.61 2.25,88.83l-0.37 94.5c-0.39,19.35 4.47,65.86 -8.5,80.96l-30.95 -4.59 -0.04 -0.1zm-14.37 316.96c49.01,4.02 54.36,-5.13 43.33,-16.76 0.53,-4.95 0.66,-10.41 3.47,-15.6 15.06,13.82 6.7,8.39 12.75,25.91 7.31,21.18 63.64,43.88 106.68,104.51 18.98,26.73 6.37,31.17 -2.24,56.27 13.57,-5.56 28.62,-7.68 57.22,-20.58 38.61,-17.4 26.6,-20.35 54.54,0.05 -14.14,28.6 -111.63,56.3 -145.5,65.49 -62.06,16.84 -103.2,15.43 -137.96,27.99 -0.41,0.14 -1.37,0.57 -1.76,0.66l-20.13 -1.53c-0.96,-0.22 -2.09,-0.6 -2.97,-0.85l-6.03 -2.62c27.21,-4.78 88.69,-41.61 96.49,-59.87l-151.13 48.72c-37.75,12.64 -87.98,18.74 -125.63,34.21 -7,2.88 -13.19,-0.24 -25.44,-6.25 -36.25,-17.75 -47.54,-108.97 -26.68,-154.7 12.13,-26.57 22.41,-43.06 41.69,-60.13 9.4,-8.32 18.7,-15.47 29.38,-21.79 55.7,-33 29.54,-36.53 152.22,-36.53 30.29,0 21.71,2.72 30.1,31.7 6.56,0.78 12.39,1.34 17.6,1.7zm-5.96 -46.21c-9.12,-3.7 -16.24,-5.64 -18.1,-4.57 -22.74,-6.5 -51.19,-17.2 -64.52,-28.99 -18.83,-10.92 -21.32,-14.48 -16.43,-43.77 4.89,-23.15 -13.23,-19.67 -8.98,-38.65 5.39,-24.05 11.76,-2.11 3.12,-41.15 -4.64,-20.95 5.36,-28.16 16.36,-37.23 -1.01,-33.81 -6.01,-52.72 35.4,-43.4 8.89,2 9.34,3.53 18.03,7.6 28.02,13.09 55.13,15.59 79.16,26.48 12.1,5.48 5.14,5.28 19.1,8.79 -15.89,-23.29 -66.04,-42.9 -21.51,-50.47 13.4,0.93 43.9,7.4 51.14,14.75 44.49,45.17 39.35,79.34 79.47,102.18 257.63,146.7 241.97,119.44 469.35,119.44 25.97,0 102.85,10.21 127.23,17.94 26.35,8.34 58.22,0.57 69.91,34.25l-88.09 3.02c-68.2,1.23 -116.5,-9.17 -178.95,-12.12 1.62,1.26 4.14,3.31 6.76,4.88 35.15,20.98 239.43,53.53 280.82,42.85l5.08 -1.93c0.95,-0.28 3.05,-1.2 3.87,-1.31 14.87,-1.92 -5.53,-1.93 5.68,0.69 15.43,3.6 18.92,4.67 25.08,14.22 29.05,45.05 19.75,113.64 0.28,162.59 -12.98,32.65 -21.73,37.14 -62.05,30.55 -132.66,-21.67 -224.81,-58.25 -331.54,-97.67l-71.06 -27.7c-10.97,-5.18 -14.9,-7.56 -23.41,-1.25 10.81,4.69 20.03,10.52 30.26,16.62 59.82,35.71 151.05,75.22 218.98,97.09 14.77,4.75 9.51,-3.29 14.74,11.69 -73.01,-1.6 -179.46,-25.74 -237.43,-58.04 -44.35,-24.71 -22.56,-20.02 -69.65,-38.09 -0.47,-0.18 -1.48,-0.53 -1.94,-0.74l-109.25 -67.39c-62.74,-42.72 -94.01,-82.75 -142.99,-103.98 -48.95,-20.19 -37.35,-15.27 -101.14,-15.27 -2.47,0 -6.98,-0.68 -12.78,-1.91zm657.66 -753.22c2.08,-0.77 4.72,-1.48 7.86,-2.13 0.54,-0.12 1.09,-0.23 1.65,-0.34l0.01 0c38.61,-7.34 140.86,-7.26 174.68,-6.59 -7.38,6.52 -16.4,9.05 -26.04,10.95l-0.83 0.16 -0.29 0.06 -0.83 0.15c-2.72,0.51 -5.48,1 -8.25,1.52l-0.87 0.16 -0.28 0.06 -0.87 0.17c-10.47,2.06 -21.17,4.96 -30.94,12.6l28.86 2.74c1.75,3.17 3.28,8.06 4.62,11.52 1.08,3.44 2.4,9.58 2.8,12.28l5.74 80.7c2.88,46.98 5.09,326.74 -6.03,339.74 -4.2,3.04 -5.9,4.12 -7.95,4.55 -2.3,0.41 -5.19,0.12 -12.44,0.86 -5.64,0.58 -12.93,1.11 -19.22,1.57 -15.36,1.13 -30.13,0.75 -45.56,1.75 1.49,-43.63 5.44,-83.99 3.76,-128.13 -0.8,-20.81 -2.62,-41.44 -3.25,-62.19 -0.62,-20.02 3.39,-44.2 -13.06,-50.46l-0.07 0.14 -0.21 -0.08c-6.85,10.87 -3.19,107.84 -4.89,133.02l-4.56 56.15c-2.37,39.44 5.41,55.17 -16.49,59.82 -0.36,0.07 -0.72,0.14 -1.1,0.21l-0.03 0.01c-6.61,1.19 -15.7,1.51 -28.19,1.24l4.66 -127.35c2.74,-43.32 3.15,-94.83 2.89,-141.36 -0.11,-19.42 -0.7,-40.43 -1.44,-59.13 -2.38,-60.19 -18.1,-74.56 -3.84,-154.37zm-791.18 16.03c-24.35,-14.19 -37.63,-11.71 -53.53,-16.94l-15.08 -8.25c41.57,-0.36 153.82,-3.34 184.04,10.28 4.53,26.31 -1.92,88.79 -3.23,118.78 -5.81,132.95 7.74,252.79 4.78,362.99l-39.7 -3.84 -10.66 -131.06c-2.29,-56.04 2.88,-149.84 -0.8,-202.75 -0.08,0.15 -0.16,0.36 -0.25,0.53l-0.03 -0.48c-13.76,26.15 -22.7,238.81 -19.81,286.5 1.56,25.67 9.16,16.88 8.49,35.34 -8.1,6.41 -13.12,9.27 -17.38,10.12 -8.74,1.58 -14.44,-5.33 -37.59,-7.19 -11.78,-0.95 -16.92,-0.29 -20.89,0.48l-0.03 0.01 -0.11 0.02 -0.28 0.06 -0.1 0.02c-0.86,0.17 -1.68,0.34 -2.5,0.51l-0.08 0.01 -0.28 0.06 -0.08 0.01c-2.95,0.56 -6.2,0.9 -12.37,0.32 -5.04,-92.43 -14.02,-380.34 7.76,-452.29l29.43 -3.18 -0.04 -0.02 0.32 -0.04zm344.21 95.1c5.14,2.75 10.53,5.21 16.19,7.35 67.8,15.65 98.52,15.18 161.27,-0.4 -10.57,9.01 -22.32,14.51 -30.28,22.54 -0.51,0.53 -1.26,1.3 -1.76,1.85l-4.87 5.95c-0.43,0.64 -1.02,1.51 -1.43,2.19 -9.4,15.75 -6.86,26.64 -6.59,41.37 0.49,26.33 1.68,8.7 -7.75,24.56 -9.73,16.34 -1.96,21.32 -7.98,39.02 -4.6,13.57 -2.98,6.44 -5.76,10.21 -31.14,-11.04 12.63,-48.27 -47.25,-67.28l-22.63 -9.1c-20.48,-34.52 -38.56,-30.8 -41.16,-78.26zm-276.17 -85.13c15.69,0 28.41,12.72 28.41,28.41 0,15.69 -12.72,28.41 -28.41,28.41 -15.69,0 -28.4,-12.72 -28.4,-28.41 0,-15.69 12.71,-28.41 28.4,-28.41zm468.11 635.56c15.84,-8.67 74.71,-40.31 83.58,-50.82 2.77,-3.28 9.08,-15.55 11.87,-20.95l42.07 -59.76c18.76,-23.5 104.02,-35.97 69.62,-3.23 -14.04,13.37 -22.1,8.78 -33.59,32.04 13.7,-6.44 20.2,-10.42 35.37,-15.68 13.03,-4.53 25.16,-6.03 36.91,-10.22 30.86,-11 47.67,-25.48 75.04,-16.01 10.09,21.06 3.07,17.85 3.79,35.84 0.59,14.53 8.69,9.62 15.68,24.66 6.01,12.92 -1.76,21.28 -2.75,32.95 -2.16,25.71 18.62,21.81 4.65,40.8 -15.53,22.65 -7.84,20.56 -5.15,31.01 4.08,15.82 -5.91,23.39 -11.44,36.06 -34.61,-2.03 -60.39,-6.79 -97.6,-6.74 -55.66,0.08 -144.43,2.5 -192.58,-4.12 -21.98,-3.02 -64,-11.47 -78.73,-21.07l43.26 -24.76zm179.92 -173.88c-8.8,-87.93 -2.83,-176.57 -1.39,-265.49 13.53,-1.96 30.59,6.58 42.42,13.13 -1.86,114.94 -3.23,142.26 -5.06,246.03l-35.97 6.33zm-838.2 -116.85l-0.35 -20.89 13.3 1.99c3.39,40.65 -3.12,91.86 13.64,140.42l2.41 5.52c13.81,2.76 133.98,-18.68 120.36,7.79 -7.75,15.05 -7.43,14.49 -4.9,35.25 -30.66,13 -20.06,41.79 -18.79,63.03 1.12,18.53 2.6,-0.98 -4.31,18.77 -5.52,15.8 -1.01,29.23 1.15,42.36 -37.17,12.93 -60.73,20.23 -90.03,50.34 -12.59,12.95 -16.96,17.12 -18.96,27.8 32.72,-21.05 65.83,-46.78 116.79,-49.03 2.87,4.23 10.05,23.74 11.92,29.22 -51.84,8.33 -94.91,30.59 -125.62,56.06 -17.31,14.36 -32.55,29.28 -45.02,46.02 -5.63,7.55 -11.86,16.16 -17.88,25.48 -7.55,11.7 -5.43,15.69 -16.55,27.33 -25.93,-40.89 -6.52,-98.26 7.49,-130.62 29.16,-67.41 65.98,-89.45 126.87,-112.97l7.79 -3.53c-31.52,-2.17 -70.53,7.81 -95.73,20.84 -8.01,4.14 -13.51,8.82 -23.22,11.1 -3.51,-53.07 4.68,-112.93 18.83,-160.9 19.62,7.92 5.32,4.81 21.94,25.91 6.12,7.76 15.05,15.39 23.82,19.83 -1.64,-13.71 -9.57,-22.44 -15.9,-35.29 -1.12,-2.26 -2.69,-5.08 -3.98,-10.13 -13.42,-52.43 -14.29,-76.87 -5.07,-131.7zm597.99 -91.55c-0.99,-6.66 2.9,-14.46 4.25,-26.02 2.75,-23.6 -3.78,-18.48 28.69,-37.04 69.89,-39.94 65.19,-79.18 77.3,-86.64 0.49,0.83 0.88,2.03 1.11,2.65l2.96 8.27c4.7,15.66 4.71,21.2 2.04,35.15 -2.88,15.04 -12.19,29.71 -11.67,39.84 22.7,-17.46 27.81,-25.61 38.32,-55.88 15.32,6.2 32.14,20.56 48.78,28.63l-7.43 143.09c-25.15,20.79 -134.4,32.18 -152.65,24.4l-2.76 -68.15 -28.94 -8.3zm-205.54 65.92c-32.64,-2.58 -23.22,-27.99 -27.91,-64.62 -3.42,-26.74 -1.61,-59.71 -1.61,-88.83 0.23,-0.58 28.45,-26.59 43.62,-30.98 12.62,13.26 10.09,43.01 43.62,53.97 -6.1,-10.84 -13.95,-26.09 -16.73,-42.42 -1.42,-8.36 -1.8,-18.09 0.7,-25.47 4.37,-12.9 4.44,-10.37 12.39,-12.11 7.31,13.75 7.58,20.13 16.49,33.24 10.52,15.51 30.27,30.8 46.05,41.22l38.23 26.17c2.18,20.91 1.65,40.92 11.05,55.3 10.91,16.69 33.28,9.04 53.25,12.42 4.22,15.87 2.81,38.55 0.64,55.36 -45.82,2.91 -96.39,3.63 -141.52,-2.1l-78.27 -11.15z"/>
   <path class="fil6" d="M936.43 1917.07c20.66,-0.88 49.16,-11.47 93.76,-22.26l-0.05 -0.14 -0.67 0.16c-44.08,10.68 -72.44,21.15 -93.04,22.24zm416.06 -1356.91c34.56,-10.77 40.72,-51.7 100.88,8.79l-22.06 -5.2c-27.7,0 -56.02,3.11 -64.49,32.24 20.15,11.63 26.19,2.06 53.74,3.58l42.94 4.75c10.79,-24.37 11.63,-51.45 -9.67,-70.36 -37.49,-33.28 -92.05,-13.64 -101.34,26.2zm101.07 217.57c15.9,-10.26 57.26,-19.02 87.46,2.31 -17.27,6.72 -71.29,11.41 -87.46,-2.31zm-65.25 6.05c32.44,2.3 68.22,51.25 163.45,22.33 22.7,-6.89 27.98,-19.13 47.93,-21.92 -1.81,25.96 -11.51,54.17 -28.59,62.77 -33.49,16.88 -17.04,-12.9 -75.32,-12.83 -28.11,0.02 -21.37,-2.58 -38.66,9.83 -29.13,20.91 -63.86,-3.93 -68.81,-60.18zm-75.23 -205.69c-0.56,-25.04 1.76,-40.6 8.35,-59.83 92.61,-269.92 347.27,-178.28 346.41,48.98 -0.23,62.28 1.04,73.28 -23.32,112.96 -12.05,19.63 -0.08,43.83 -12.98,55.08 -12.68,11.07 -42.08,2.1 -54.67,-5.51 -18.58,-11.22 -11.12,-29.75 -13.55,-54.53 -2.21,-22.51 -7.78,-41.88 0.54,-62.61 11.47,-12.41 58.11,-4.42 75.23,-16.64 -11.49,-33.56 -78.48,-37.61 -95.09,-14.93 -3.15,4.31 12.45,-84.31 98.94,-20.9 -10.09,-46.3 -86.86,-58.59 -109.47,-16.19 -34.93,65.48 46.63,213.41 -79.77,147.85 -1.98,-20.08 3.19,-30.13 9.85,-42.09 -25.02,6.82 -29.32,32.46 -25.08,60.9 1.22,28.95 -29.75,57.64 -87.03,60.91 -29.3,-29.65 -34.77,-36.2 -34.77,-93.15 -3.92,-53.35 -1.7,-15.01 -3.59,-100.3zm-207.64 273.06c15.69,0 28.41,12.72 28.41,28.41 0,15.69 -12.72,28.41 -28.41,28.41 -15.69,0 -28.4,-12.72 -28.4,-28.41 0,-15.69 12.71,-28.41 28.4,-28.41zm23.74 740.03c30.29,0 21.71,2.72 30.1,31.7 77.85,9.26 54.5,-12.38 64.4,-30.66 15.06,13.82 6.7,8.39 12.75,25.91 7.31,21.18 63.64,43.88 106.68,104.51 18.98,26.73 6.37,31.17 -2.24,56.27 13.57,-5.56 28.62,-7.68 57.22,-20.58 38.61,-17.4 26.6,-20.35 54.54,0.05 -14.14,28.6 -111.63,56.3 -145.5,65.49 -62.06,16.84 -103.2,15.43 -137.96,27.99 -0.41,0.14 -1.37,0.57 -1.76,0.66l-20.13 -1.53c-0.96,-0.22 -2.09,-0.6 -2.97,-0.85l-6.03 -2.62c27.21,-4.78 88.69,-41.61 96.49,-59.87l-151.13 48.72c-37.75,12.64 -87.98,18.74 -125.63,34.21 -7,2.88 -13.19,-0.24 -25.44,-6.25 -36.25,-17.75 -47.54,-108.97 -26.68,-154.7 12.13,-26.57 22.41,-43.06 41.69,-60.13 9.4,-8.32 18.7,-15.47 29.38,-21.79 55.7,-33 29.54,-36.53 152.22,-36.53zm444.37 -104.47c15.84,-8.67 74.71,-40.31 83.58,-50.82 2.77,-3.28 9.08,-15.55 11.87,-20.95l42.07 -59.76c18.76,-23.5 104.02,-35.97 69.62,-3.23 -14.04,13.37 -22.1,8.78 -33.59,32.04 13.7,-6.44 20.2,-10.42 35.37,-15.68 13.03,-4.53 25.16,-6.03 36.91,-10.22 30.86,-11 47.67,-25.48 75.04,-16.01 10.09,21.06 3.07,17.85 3.79,35.84 0.59,14.53 8.69,9.62 15.68,24.66 6.01,12.92 -1.76,21.28 -2.75,32.95 -2.16,25.71 18.62,21.81 4.65,40.8 -15.53,22.65 -7.84,20.56 -5.15,31.01 4.08,15.82 -5.91,23.39 -11.44,36.06 -34.61,-2.03 -60.39,-6.79 -97.6,-6.74 -55.66,0.08 -144.43,2.5 -192.58,-4.12 -21.98,-3.02 -64,-11.47 -78.73,-21.07l43.26 -24.76zm-361 -153.7c13.4,0.93 43.9,7.4 51.14,14.75 44.49,45.17 39.35,79.34 79.47,102.18 257.63,146.7 241.97,119.44 469.35,119.44 25.97,0 102.85,10.21 127.23,17.94 26.35,8.34 58.22,0.57 69.91,34.25l-88.09 3.02c-68.2,1.23 -116.5,-9.17 -178.95,-12.12 1.62,1.26 4.14,3.31 6.76,4.88 35.15,20.98 239.43,53.53 280.82,42.85l5.08 -1.93c0.95,-0.28 3.05,-1.2 3.87,-1.31 14.87,-1.92 -5.53,-1.93 5.68,0.69 15.43,3.6 18.92,4.67 25.08,14.22 29.05,45.05 19.75,113.64 0.28,162.59 -12.98,32.65 -21.73,37.14 -62.05,30.55 -132.66,-21.67 -224.81,-58.25 -331.54,-97.67l-71.06 -27.7c-10.97,-5.18 -14.9,-7.56 -23.41,-1.25 10.81,4.69 20.03,10.52 30.26,16.62 59.82,35.71 151.05,75.22 218.98,97.09 14.77,4.75 9.51,-3.29 14.74,11.69 -73.01,-1.6 -179.46,-25.74 -237.43,-58.04 -44.35,-24.71 -22.56,-20.02 -69.65,-38.09 -0.47,-0.18 -1.48,-0.53 -1.94,-0.74l-109.25 -67.39c-62.74,-42.72 -94.01,-82.75 -142.99,-103.98 -48.95,-20.19 -37.35,-15.27 -101.14,-15.27 -12.13,0 -73.73,-16.32 -95.4,-35.47 -18.83,-10.92 -21.32,-14.48 -16.43,-43.77 4.89,-23.15 -13.23,-19.67 -8.98,-38.65 5.39,-24.05 11.76,-2.11 3.12,-41.15 -4.64,-20.95 5.36,-28.16 16.36,-37.23 -1.01,-33.81 -6.01,-52.72 35.4,-43.4 8.89,2 9.34,3.53 18.03,7.6 28.02,13.09 55.13,15.59 79.16,26.48 12.1,5.48 5.14,5.28 19.1,8.79 -15.89,-23.29 -66.04,-42.9 -21.51,-50.47zm828 40.09c10.25,-5.08 15.17,-10.45 24.31,-20.37 8.72,-9.44 10.16,-18.5 20.25,-22.97 12.38,22.57 23.26,116.65 21.12,158.85 -8.31,-1.76 -61.49,-32.49 -101.19,-33.02l-18.33 4.75c48.1,2.13 100.47,51.55 117.65,78.9 17.35,27.65 49.94,117.27 24.37,161.24l-7.9 -14.01c-43.09,-121.32 -169.71,-123.32 -198.17,-138.9l13.43 -28.56c52.26,6.25 84.38,26.66 116.69,50.21 -2.93,-14.6 -11.15,-19.02 -20.08,-27.42 -29.1,-27.42 -45.11,-39.62 -89.23,-50.7 7.63,-63.89 -4.23,-35.54 -3.75,-59.38 0.24,-11.78 16.2,-48.22 -18.17,-64.67 0.1,-8.65 1.09,-17.62 -1.08,-25.98 -3.36,-12.94 0.59,1.74 -4.36,-9.5l-2.23 -7.16c61.59,-10.53 62.1,-6.89 127.61,-0.56 2.58,-22.21 6.34,-46.61 8.98,-67.92 3.21,-25.97 0.31,-52.31 2.84,-78.31 31.33,19.4 13.31,130.1 3.27,156 -5.26,13.55 -13.75,28.29 -16.03,39.48zm-287.08 -60.27c-8.8,-87.93 -2.83,-176.57 -1.39,-265.49 13.53,-1.96 30.59,6.58 42.42,13.13 -1.86,114.94 -3.23,142.26 -5.06,246.03l-35.97 6.33zm-838.2 -116.85l-0.35 -20.89 13.3 1.99c3.39,40.65 -3.12,91.86 13.64,140.42l2.41 5.52c13.81,2.76 133.98,-18.68 120.36,7.79 -7.75,15.05 -7.43,14.49 -4.9,35.25 -30.66,13 -20.06,41.79 -18.79,63.03 1.12,18.53 2.6,-0.98 -4.31,18.77 -5.52,15.8 -1.01,29.23 1.15,42.36 -37.17,12.93 -60.73,20.23 -90.03,50.34 -12.59,12.95 -16.96,17.12 -18.96,27.8 32.72,-21.05 65.83,-46.78 116.79,-49.03 2.87,4.23 10.05,23.74 11.92,29.22 -51.84,8.33 -94.91,30.59 -125.62,56.06 -17.31,14.36 -32.55,29.28 -45.02,46.02 -5.63,7.55 -11.86,16.16 -17.88,25.48 -7.55,11.7 -5.43,15.69 -16.55,27.33 -25.93,-40.89 -6.52,-98.26 7.49,-130.62 29.16,-67.41 65.98,-89.45 126.87,-112.97l7.79 -3.53c-31.52,-2.17 -70.53,7.81 -95.73,20.84 -8.01,4.14 -13.51,8.82 -23.22,11.1 -3.51,-53.07 4.68,-112.93 18.83,-160.9 19.62,7.92 5.32,4.81 21.94,25.91 6.12,7.76 15.05,15.39 23.82,19.83 -1.64,-13.71 -9.57,-22.44 -15.9,-35.29 -1.12,-2.26 -2.69,-5.08 -3.98,-10.13 -13.42,-52.43 -14.29,-76.87 -5.07,-131.7zm271.5 -135.46c11.21,-6.52 28.07,-15.83 42.09,-12.5 1.13,36.01 2.34,56.61 2.25,88.83l-0.37 94.5c-0.39,19.35 4.47,65.86 -8.5,80.96l-31.27 -4.63c0,-20.33 1.12,-41.88 -2.34,-59.8l-1.86 -187.36zm236 -45.98c-21.87,-36.86 -41,-30.11 -41.48,-88.65 -0.24,-30.38 0.6,-29.82 14.9,-20.31 11.36,7.56 7.96,9.95 33.82,24.93 34.8,20.17 52.97,30.81 82.22,18.87 26.6,-10.86 34.62,-20.82 66.28,-34.25 -10.59,30.38 -35.9,36.68 -49.72,50.64 -0.51,0.53 -1.26,1.3 -1.76,1.85l-4.87 5.95c-0.43,0.64 -1.02,1.51 -1.43,2.19 -9.4,15.75 -6.86,26.64 -6.59,41.37 0.49,26.33 1.68,8.7 -7.75,24.56 -9.73,16.34 -1.96,21.32 -7.98,39.02 -4.6,13.57 -2.98,6.44 -5.76,10.21 -31.14,-11.04 12.63,-48.27 -47.25,-67.28l-22.63 -9.1zm90.49 89.89c-0.99,-6.66 2.9,-14.46 4.25,-26.02 2.75,-23.6 -3.78,-18.48 28.69,-37.04 69.89,-39.94 65.19,-79.18 77.3,-86.64 0.49,0.83 0.88,2.03 1.11,2.65l2.96 8.27c4.7,15.66 4.71,21.2 2.04,35.15 -2.88,15.04 -12.19,29.71 -11.67,39.84 22.7,-17.46 27.81,-25.61 38.32,-55.88 15.32,6.2 32.14,20.56 48.78,28.63l-7.43 143.09c-25.15,20.79 -134.4,32.18 -152.65,24.4l-2.76 -68.15 -28.94 -8.3zm-205.54 65.92c-32.64,-2.58 -23.22,-27.99 -27.91,-64.62 -3.42,-26.74 -1.61,-59.71 -1.61,-88.83 0.23,-0.58 28.45,-26.59 43.62,-30.98 12.62,13.26 10.09,43.01 43.62,53.97 -6.1,-10.84 -13.95,-26.09 -16.73,-42.42 -1.42,-8.36 -1.8,-18.09 0.7,-25.47 4.37,-12.9 4.44,-10.37 12.39,-12.11 7.31,13.75 7.58,20.13 16.49,33.24 10.52,15.51 30.27,30.8 46.05,41.22l38.23 26.17c2.18,20.91 1.65,40.92 11.05,55.3 10.91,16.69 33.28,9.04 53.25,12.42 4.22,15.87 2.81,38.55 0.64,55.36 -45.82,2.91 -96.39,3.63 -141.52,-2.1l-78.27 -11.15zm520.58 -345.14c26.51,-9.87 147.16,-9.86 184.48,-9.12 -18.17,16.05 -46.25,7.89 -69.2,25.83l28.86 2.74c1.75,3.17 3.28,8.06 4.62,11.52 1.08,3.44 2.4,9.58 2.8,12.28l5.74 80.7c2.88,46.98 5.09,326.74 -6.03,339.74 -8.99,6.52 -6.51,4.02 -20.67,5.47 -5.65,0.57 -12.93,1.11 -19.23,1.57 -15.35,1.12 -30.12,0.75 -45.55,1.75 1.49,-43.63 5.44,-84 3.75,-128.13 -0.79,-20.81 -2.61,-41.45 -3.25,-62.19 -0.61,-20.02 3.4,-44.21 -13.05,-50.46 -6.85,10.87 -3.19,107.84 -4.89,133.02l-4.56 56.15c-3.1,51.52 11.13,62.58 -46.09,61.33l4.65 -127.34c2.74,-43.32 3.16,-94.83 2.9,-141.36 -0.11,-19.43 -0.7,-40.43 -1.44,-59.14 -2.38,-60.19 -18.1,-74.55 -3.84,-154.36zm-791.18 16.03c-24.36,-14.19 -37.63,-11.72 -53.53,-16.94l-15.18 -8.3c41.26,-0.35 154.11,-3.39 184.42,10.27 4.53,26.31 -1.92,88.79 -3.23,118.78 -5.81,132.99 7.75,252.85 4.78,363.07l-39.98 -3.86 -10.66 -131.07c-2.29,-56.03 2.88,-149.83 -0.8,-202.75 -13.76,26.15 -22.7,238.81 -19.81,286.5 1.56,25.67 9.16,16.88 8.49,35.34 -25.04,19.82 -20.66,5.77 -55.26,2.98 -24.59,-1.98 -20.25,3.05 -36.71,1.51 -5.04,-92.44 -14.02,-380.41 7.76,-452.32l29.71 -3.21z"/>
   <polygon class="fil11" points="1206.76,2248.92 1186.96,2310.24 1122.54,2310.1 1174.75,2347.86 1154.71,2409.13 1206.76,2371.13 1258.8,2409.13 1238.79,2347.86 1291,2310.1 1226.55,2310.24 "/>
   <polygon class="fil11" points="934.29,2164.15 914.49,2225.48 850.06,2225.39 902.27,2263.15 882.23,2324.39 934.29,2286.36 986.36,2324.39 966.33,2263.15 1018.52,2225.39 954.09,2225.48 "/>
   <polygon class="fil11" points="1753.18,2248.92 1733.38,2310.24 1668.95,2310.1 1721.16,2347.86 1701.12,2409.13 1753.18,2371.13 1805.22,2409.13 1785.21,2347.86 1837.41,2310.1 1772.97,2310.24 "/>
   <polygon class="fil11" points="2025.64,2164.4 2005.86,2225.72 1941.43,2225.62 1993.62,2263.39 1973.6,2324.62 2025.64,2286.67 2077.69,2324.62 2057.69,2263.39 2109.87,2225.62 2045.44,2225.72 "/>
   <polygon class="fil11" points="1479.22,2283.07 1459.44,2344.39 1395.01,2344.3 1447.21,2382.07 1427.18,2443.29 1479.22,2405.34 1531.27,2443.29 1511.27,2382.07 1563.46,2344.3 1499.02,2344.39 "/>
  </g>
 </g>
</svg>
