<svg xmlns="http://www.w3.org/2000/svg" xmlns:xlink="http://www.w3.org/1999/xlink" width="508" height="508" viewBox="0 0 508 508">
  <defs>
    <filter id="Path_81" x="0" y="0" width="508" height="508" filterUnits="userSpaceOnUse">
      <feOffset dy="3" input="SourceAlpha"/>
      <feGaussianBlur stdDeviation="3" result="blur"/>
      <feFlood flood-opacity="0.161"/>
      <feComposite operator="in" in2="blur"/>
      <feComposite in="SourceGraphic"/>
    </filter>
    <filter id="Intersection_2" x="50.403" y="375.941" width="316.381" height="131.559" filterUnits="userSpaceOnUse">
      <feOffset dy="3" input="SourceAlpha"/>
      <feGaussianBlur stdDeviation="3" result="blur-2"/>
      <feFlood flood-opacity="0.161"/>
      <feComposite operator="in" in2="blur-2"/>
      <feComposite in="SourceGraphic"/>
    </filter>
  </defs>
  <g id="Group_40" data-name="Group 40" transform="translate(66 282)">
    <g transform="matrix(1, 0, 0, 1, -66, -282)" filter="url(#Path_81)">
      <g id="Path_81-2" data-name="Path 81" transform="translate(9 6)" fill="#c3fcfa">
        <path d="M 245 489.5 C 228.4106903076172 489.5 211.8318786621094 487.8287353515625 195.7241821289062 484.5326232910156 C 180.026123046875 481.3203125 164.5850067138672 476.5271301269531 149.8297424316406 470.2861938476562 C 135.3421936035156 464.1585083007812 121.3689346313476 456.5740661621094 108.2980651855469 447.7435607910156 C 95.35124969482422 438.996826171875 83.17662811279297 428.9518737792969 72.11237335205078 417.8876342773438 C 61.04812622070312 406.8233642578125 51.00318908691406 394.6487426757812 42.25643920898438 381.7019348144531 C 33.42593765258789 368.6310729980469 25.84149932861328 354.6578063964844 19.71381187438965 340.1702575683594 C 13.47287464141846 325.4150085449219 8.6796875 309.973876953125 5.467374801635742 294.2758178710938 C 2.171250104904175 278.1681213378906 0.5 261.5893249511719 0.5 245 C 0.5 228.4106903076172 2.171250104904175 211.8318786621094 5.467374801635742 195.7241821289062 C 8.6796875 180.026123046875 13.47287464141846 164.5850067138672 19.71381187438965 149.8297424316406 C 25.84149932861328 135.3421936035156 33.42593765258789 121.3689346313476 42.25643920898438 108.2980651855469 C 51.00318908691406 95.35124969482422 61.04812622070312 83.17662811279297 72.11237335205078 72.11237335205078 C 83.17662811279297 61.04812622070312 95.35124969482422 51.00318908691406 108.2980651855469 42.25643920898438 C 121.3689346313476 33.42593765258789 135.3421936035156 25.84149932861328 149.8297424316406 19.71381187438965 C 164.5850067138672 13.47287464141846 180.026123046875 8.6796875 195.7241821289062 5.467374801635742 C 211.8318786621094 2.171250104904175 228.4106903076172 0.5 245 0.5 C 261.5893249511719 0.5 278.1681213378906 2.171250104904175 294.2758178710938 5.467374801635742 C 309.973876953125 8.6796875 325.4150085449219 13.47287464141846 340.1702575683594 19.71381187438965 C 354.6578063964844 25.84149932861328 368.6310729980469 33.42593765258789 381.7019348144531 42.25643920898438 C 394.6487426757812 51.00318908691406 406.8233642578125 61.04812622070312 417.8876342773438 72.11237335205078 C 428.9518737792969 83.17662811279297 438.996826171875 95.35124969482422 447.7435607910156 108.2980651855469 C 456.5740661621094 121.3689346313476 464.1585083007812 135.3421936035156 470.2861938476562 149.8297424316406 C 476.5271301269531 164.5850067138672 481.3203125 180.026123046875 484.5326232910156 195.7241821289062 C 487.8287353515625 211.8318786621094 489.5 228.4106903076172 489.5 245 C 489.5 261.5893249511719 487.8287353515625 278.1681213378906 484.5326232910156 294.2758178710938 C 481.3203125 309.973876953125 476.5271301269531 325.4150085449219 470.2861938476562 340.1702575683594 C 464.1585083007812 354.6578063964844 456.5740661621094 368.6310729980469 447.7435607910156 381.7019348144531 C 438.996826171875 394.6487426757812 428.9518737792969 406.8233642578125 417.8876342773438 417.8876342773438 C 406.8233642578125 428.9518737792969 394.6487426757812 438.996826171875 381.7019348144531 447.7435607910156 C 368.6310729980469 456.5740661621094 354.6578063964844 464.1585083007812 340.1702575683594 470.2861938476562 C 325.4150085449219 476.5271301269531 309.973876953125 481.3203125 294.2758178710938 484.5326232910156 C 278.1681213378906 487.8287353515625 261.5893249511719 489.5 245 489.5 Z" stroke="none"/>
        <path d="M 245 1 C 228.4442443847656 1 211.8992004394531 2.667877197265625 195.8244323730469 5.957244873046875 C 180.15869140625 9.162872314453125 164.7493896484375 13.94625854492188 150.0245056152344 20.17431640625 C 135.5666809082031 26.2894287109375 121.6221313476562 33.85836791992188 108.5780029296875 42.67074584960938 C 95.65756225585938 51.39968872070312 83.5076904296875 61.4241943359375 72.4659423828125 72.4659423828125 C 61.4241943359375 83.5076904296875 51.39968872070312 95.65756225585938 42.67074584960938 108.5780029296875 C 33.85836791992188 121.6221313476562 26.2894287109375 135.5666809082031 20.17431640625 150.0245056152344 C 13.94625854492188 164.7493896484375 9.162872314453125 180.15869140625 5.957244873046875 195.8244323730469 C 2.667877197265625 211.8992004394531 1 228.4442443847656 1 245 C 1 261.5557556152344 2.667877197265625 278.100830078125 5.957244873046875 294.1755676269531 C 9.162872314453125 309.84130859375 13.94625854492188 325.2506103515625 20.17431640625 339.9754943847656 C 26.2894287109375 354.4333190917969 33.85836791992188 368.3778686523438 42.67074584960938 381.4219970703125 C 51.39968872070312 394.3424377441406 61.4241943359375 406.4923095703125 72.4659423828125 417.5340576171875 C 83.5076904296875 428.5758056640625 95.65756225585938 438.6003112792969 108.5780029296875 447.3292541503906 C 121.6221313476562 456.1416320800781 135.5666809082031 463.7105712890625 150.0245056152344 469.82568359375 C 164.7493896484375 476.0537414550781 180.15869140625 480.8371276855469 195.8244323730469 484.0427551269531 C 211.8992004394531 487.3321228027344 228.4442443847656 489 245 489 C 261.5557556152344 489 278.100830078125 487.3321228027344 294.1755676269531 484.0427551269531 C 309.84130859375 480.8371276855469 325.2506103515625 476.0537414550781 339.9754943847656 469.82568359375 C 354.4333190917969 463.7105712890625 368.3778686523438 456.1416320800781 381.4219970703125 447.3292541503906 C 394.3424377441406 438.6003112792969 406.4923095703125 428.5758056640625 417.5340576171875 417.5340576171875 C 428.5758056640625 406.4923095703125 438.6003112792969 394.3424377441406 447.3292541503906 381.4219970703125 C 456.1416320800781 368.3778686523438 463.7105712890625 354.4333190917969 469.82568359375 339.9754943847656 C 476.0537414550781 325.2506103515625 480.8371276855469 309.84130859375 484.0427551269531 294.1755676269531 C 487.3321228027344 278.100830078125 489 261.5557556152344 489 245 C 489 228.4442443847656 487.3321228027344 211.8992004394531 484.0427551269531 195.8244323730469 C 480.8371276855469 180.15869140625 476.0537414550781 164.7493896484375 469.82568359375 150.0245056152344 C 463.7105712890625 135.5666809082031 456.1416320800781 121.6221313476562 447.3292541503906 108.5780029296875 C 438.6003112792969 95.65756225585938 428.5758056640625 83.5076904296875 417.5340576171875 72.4659423828125 C 406.4923095703125 61.4241943359375 394.3424377441406 51.39968872070312 381.4219970703125 42.67074584960938 C 368.3778686523438 33.85836791992188 354.4333190917969 26.2894287109375 339.9754943847656 20.17431640625 C 325.2506103515625 13.94625854492188 309.84130859375 9.162872314453125 294.1755676269531 5.957244873046875 C 278.100830078125 2.667877197265625 261.5557556152344 1 245 1 M 245 0 C 380.3097534179688 0 490 109.6902465820312 490 245 C 490 380.3097534179688 380.3097534179688 490 245 490 C 109.6902465820312 490 0 380.3097534179688 0 245 C 0 109.6902465820312 109.6902465820312 0 245 0 Z" stroke="none" fill="#707070"/>
      </g>
    </g>
    <path id="Path_58" data-name="Path 58" d="M115.216,95.228s13.82-5.916,29.237-5.023l16.8-10.434,10.91,3.013,12.8-4.577,12,3.739S207,83.063,209.619,88.308s-10.037,22.657-10.037,22.657L167.726,122.46l-24.437-5.468Z" transform="translate(25.697 27.307)" fill="#dadcd3" stroke="rgba(0,0,0,0)" stroke-width="1" fill-rule="evenodd"/>
    <path id="Path_59" data-name="Path 59" d="M126.171,115.242c50.014-41.81,113.449-44.666,157.258-23.014v25.844L240.791,134.1,198.9,145.264Z" transform="translate(31.906 27.718)" fill="#8ccb42" stroke="rgba(0,0,0,0)" stroke-width="1" fill-rule="evenodd"/>
    <g transform="matrix(1, 0, 0, 1, -66, -282)" filter="url(#Intersection_2)">
      <path id="Intersection_2-2" data-name="Intersection 2" d="M179.725,465.532A243.167,243.167,0,0,1,92.3,428.744a245.842,245.842,0,0,1-57.895-54.7,31.25,31.25,0,0,1,3.951-1.3l78.8-15.8c45.017,3.722,169.683,48.945,213.774,88.21.484.564,1.117,1.344,1.861,2.292q-4.274,2.007-8.614,3.843a243.27,243.27,0,0,1-45.895,14.246,246.856,246.856,0,0,1-98.551,0Z" transform="translate(25 25)" fill="#46ad54"/>
    </g>
    <path id="Path_63" data-name="Path 63" d="M97.211,120.712l.354.03c.927.078,2.706.212,5.018.381,11.158.82,34.722,2.46,34.722,2.46l-32.717-10.345-.753-.239Z" transform="translate(-34.213 30.025)" fill="#fd7429" stroke="rgba(0,0,0,0)" stroke-width="1" fill-rule="evenodd"/>
    <path id="Path_64" data-name="Path 64" d="M103.714,120.685c.03.006.15.018.351.037l6.625-7.713-.1-.033-29.87,7.505Z" transform="translate(-41.067 30.016)" fill="#fd7429" stroke="rgba(0,0,0,0)" stroke-width="1" fill-rule="evenodd"/>
    <path id="Path_65" data-name="Path 65" d="M113.325,95.729l.674,6.044,17.984,5.43-.609-12.512Z" transform="translate(-53.375 16.651)" fill="#f2f2ee" stroke="rgba(0,0,0,0)" stroke-width="1" fill-rule="evenodd"/>
    <path id="Path_66" data-name="Path 66" d="M125.453,108.485l24.419-.2-.018-2.1-.467-10.27-13.2-3.495-11.345,3.544Z" transform="translate(-46.846 15.369)" fill="#fff" stroke="rgba(0,0,0,0)" stroke-width="1" fill-rule="evenodd"/>
    <path id="Path_67" data-name="Path 67" d="M112.626,97.581l19.145-1.067,11.571-3.508,12.983,3.684c.62.175-.013-.249-.013-.249l-14.128-4.921H124.9Z" transform="translate(-53.771 14.853)" fill="#fd7429" stroke="rgba(0,0,0,0)" stroke-width="1" fill-rule="evenodd"/>
    <path id="Path_68" data-name="Path 68" d="M136.613,121.27l.779,10.663-39.154,1.324-1.027-14.808Z" transform="translate(-34.213 32.289)" fill="#fff" stroke="rgba(0,0,0,0)" stroke-width="1" fill-rule="evenodd"/>
    <path id="Path_69" data-name="Path 69" d="M204.421,131.46q-2.736-.127-5.473-.257-.907-3.537-1.811-7.074c9.069.387,6.745-.089,7.284,7.331" transform="translate(10.134 40.338)" fill="#bdbdb5" stroke="rgba(0,0,0,0)" stroke-width="1" fill-rule="evenodd"/>
    <path id="Path_70" data-name="Path 70" d="M195.357,128.811c-.561-6.2,4.848-5.786,4.668-1.7l.053,4.111-1.377-.238-3.557-1.623Z" transform="translate(9.004 40.316)" fill="#bdbdb5" stroke="rgba(0,0,0,0)" stroke-width="1" fill-rule="evenodd"/>
    <path id="Path_71" data-name="Path 71" d="M195.774,129.442s.107-4.685,1.307-4.624,2.026,3.765,1.76,4.726-.186,1.166-.186,1.166Z" transform="translate(9.361 40.728)" fill="#f2f2ee" stroke="rgba(0,0,0,0)" stroke-width="1" fill-rule="evenodd"/>
    <path id="Path_72" data-name="Path 72" d="M186.013,143.981l.611,5.486,1.573.475h14.533l-.336-6.9Z" transform="translate(-10.172 56.058)" fill="#f2f2ee" stroke="rgba(0,0,0,0)" stroke-width="1" fill-rule="evenodd"/>
    <path id="Path_73" data-name="Path 73" d="M219.059,151.106l-.316-6.947-11.979-3.172-10.3,3.217.336,6.9Z" transform="translate(-4.245 54.894)" fill="#fff" stroke="rgba(0,0,0,0)" stroke-width="1" fill-rule="evenodd"/>
    <path id="Path_74" data-name="Path 74" d="M185.38,145.662l17.375-.967,10.5-3.185,11.784,3.344c.562.16-.013-.227-.013-.227l-12.822-4.466h-15.69Z" transform="translate(-10.531 54.426)" fill="#fd7429" stroke="rgba(0,0,0,0)" stroke-width="1" fill-rule="evenodd"/>
    <path id="Path_75" data-name="Path 75" d="M103.608,118.514l1.027,14.808L82.06,125.175l-.244-6.887Z" transform="translate(-40.61 32.223)" fill="#f2f2ee" stroke="rgba(0,0,0,0)" stroke-width="1" fill-rule="evenodd"/>
    <path id="Intersection_1" data-name="Intersection 1" d="M279.777,462.066l3.851.39c-1.295-.143-2.609-.286-3.954-.428a15.021,15.021,0,0,0-7.052-1.017L252.9,438.464s55.269-51.427,122.976-66.751a385.593,385.593,0,0,1,55.409-8.328,245.208,245.208,0,0,1-107.11,87.9,243.367,243.367,0,0,1-39.919,12.944A30.112,30.112,0,0,0,279.777,462.066Zm-6.837-.692c2.357.206,4.585.427,6.734.654l.1.038Z" transform="translate(-41 -257)" fill="#46ad54"/>
    <path id="Path_62" data-name="Path 62" d="M66.606,105.058c23.09-2.234,81.111-7.858,98.18.5,19.022,9.316,25.034,49.2,59.938,48.212,0,0,20.114.562,44.869.338s17.79-9.426,16.1-10.319c0,0-13.421-7.092,3.974-9.547,7.493-1.058,15.837.815,22.91,3.29,3.531,2.306,6.814,4.61,9.8,6.9-.708-.306-1.492-.667-2.358-1.094-9.2-4.519-35.374-8.873-27.681-3.292s16.056,10.268,1,17.188a26.941,26.941,0,0,1-4.176,1.465q-2.4.534-4.825,1.025c-19.081,3.16-52.859.107-75.63.635-27.032.627-31.814-39.389-50.582-50.327-9.729-5.669-69.267-2.361-91.523-.934Z" transform="translate(-58.905 27.3)" fill="#f2f2ee" stroke="rgba(0,0,0,0)" stroke-width="1" fill-rule="evenodd"/>
    <g id="Group_6" data-name="Group 6" transform="translate(-392 -185)">
      <path id="Path_29" data-name="Path 29" d="M42.427,53.237l6.267,1.893-.716-14.718-5.551.319Z" transform="translate(557.947 246.981)" fill="#f2f2ee" fill-rule="evenodd"/>
      <path id="Path_30" data-name="Path 30" d="M45.021,57.888l28.723-.231-.02-2.465-.548-12.079L57.65,39,44.305,43.17Z" transform="translate(561.62 244.223)" fill="#fff" fill-rule="evenodd"/>
      <path id="Path_31" data-name="Path 31" d="M42.427,44.62l5.553-.31,13.61-4.126L76.86,44.516c.733.207-.012-.293-.012-.293L60.23,38.434h-17.8Z" transform="translate(557.947 243.113)" fill="#fd7429" fill-rule="evenodd"/>
      <path id="Path_32" data-name="Path 32" d="M71.529,27.805l.437.186-.437-.186m-1.161-.47c.183.071.364.142.541.216C70.732,27.477,70.551,27.407,70.368,27.336Zm-42.729,1.7.041-.024a53.266,53.266,0,0,1,42.667-1.685,52.681,52.681,0,0,0-13.388-3.319,95.657,95.657,0,0,0-19.178,8.763l-.245-.095C31.992,30.551,27.769,29.079,27.639,29.035Zm44.774-.848h0l-.233-.1Z" transform="translate(529.031 214.234)" fill="#dadcd3" fill-rule="evenodd"/>
      <path id="Path_33" data-name="Path 33" d="M47.151,34.46c-.157-.095-.316-.186-.473-.281.157.095.316.186.473.281" transform="translate(566.26 234.792)" fill="#8ccb42" fill-rule="evenodd"/>
      <path id="Path_34" data-name="Path 34" d="M47.415,34.62q-.239-.146-.488-.293.248.146.488.293" transform="translate(566.747 235.082)" fill="#8ccb42" fill-rule="evenodd"/>
      <path id="Path_35" data-name="Path 35" d="M47.716,34.8l-.55-.334.55.334" transform="translate(567.214 235.361)" fill="#8ccb42" fill-rule="evenodd"/>
      <path id="Path_36" data-name="Path 36" d="M49.4,35.844h0q-1.011-.63-2.045-1.259,1.033.629,2.045,1.259" transform="translate(567.588 235.586)" fill="#8ccb42" fill-rule="evenodd"/>
      <path id="Path_37" data-name="Path 37" d="M31.071,32.544a95.657,95.657,0,0,1,19.178-8.763A52.942,52.942,0,0,1,84.4,41.8c-5.054,2.988-9.652,6.064-13.707,9.008-4.353-2.391-8.91-4.729-13.58-6.984.083-.233.16-.47.222-.709.839-3.192-1.424-3.765-2.618-3.313-.751-13.225-14.009-14.724-19.192-5.5q-2.234-.9-4.457-1.758" transform="translate(535.742 214.46)" fill="#8ccb42" fill-rule="evenodd"/>
      <path id="Path_38" data-name="Path 38" d="M44.479,38.887c4.055-2.944,8.653-6.02,13.71-9.008a52.926,52.926,0,0,1,12.262,26.2c-6.774-5.754-15.817-11.615-25.972-17.192" transform="translate(561.96 226.384)" fill="#52b249" fill-rule="evenodd"/>
      <path id="Path_39" data-name="Path 39" d="M96.182,51.321l-.006,0-.044.009Zm1.052-.216c-.148.041-.3.077-.458.106l-.041.009C96.906,51.188,97.074,51.153,97.234,51.105Zm-8.455-.095L88.832,51h.009ZM120.3,92.277a53.153,53.153,0,0,1-99.251,0l1.336-.488,3.57,7.276A39.057,39.057,0,0,0,28,102.706a40.483,40.483,0,0,0,2.432,3.458,41.993,41.993,0,0,0,2.8,3.215q1.184,1.241,2.438,2.364c.724.55.91.925,1.6,1.38a48.786,48.786,0,0,0,6.316,4.368,51.45,51.45,0,0,0,8.21,3.83,53.458,53.458,0,0,0,9.227,2.456,56.38,56.38,0,0,0,19.316,0,53.387,53.387,0,0,0,9.227-2.456,51.331,51.331,0,0,0,8.21-3.83,48.232,48.232,0,0,0,7.223-5.131c1.082-.934,2.125-1.924,3.139-2.982a41.944,41.944,0,0,0,2.793-3.215,40.514,40.514,0,0,0,2.435-3.458,39.748,39.748,0,0,0,2.036-3.641l3.57-7.276Zm-6.7,5.3-.346.706a35.985,35.985,0,0,1-1.939,3.464,40.25,40.25,0,0,1-2.323,3.3q-1.263,1.6-2.657,3.065-.966,1.006-2.033,1.983H91.7a18.2,18.2,0,0,1,.207-3.2c1.014-.213,5.976,1.847,8.145,1.611.653-.071.089-.1.733.334.449-.479.928-.591,1.247-1.25.748-1.543,1.014-2.935,1.64-4.5.248-.624.774-.86,1.17-1.336a8.89,8.89,0,0,0,1.359-4.374Zm9.62-32.276.038.269c.027.18.053.363.077.544.03.228.059.455.086.683.033.251.062.505.089.76.015.16.033.319.047.479.032.322.062.644.086.969l.024.287c.027.375.053.757.071,1.135l.009.163c.021.423.038.845.05,1.271v.03c.012.452.015.9.015,1.359,0,.907-.021,1.812-.065,2.707l0,.047c-.024.437-.05.872-.083,1.306l-.006.05c-.033.431-.071.86-.112,1.289l-.009.065c-.041.42-.089.842-.142,1.262l-.012.083c-.053.411-.109.822-.171,1.232l-.015.1c-.065.4-.13.807-.2,1.209l-.024.127c-.071.387-.145.774-.222,1.159l-.033.163c-.077.369-.157.739-.242,1.105l-.044.2c-.083.355-.168.709-.26,1.061l-.062.248c-.089.34-.18.683-.278,1.02l-.068.239c-.095.331-.192.662-.3.993l-.086.281c-.1.328-.207.653-.316.975l-.065.192-2.2-.8a1.233,1.233,0,0,0-1.519.535l-1.714,3.493-.047-4.276,1.049.647.027-.1-6.023-5.074-5.55-.059a31.619,31.619,0,0,0-1.374-8.541A18.286,18.286,0,0,0,109,74.488c8.248-4.466,3.668-7.492-.547-11.092-2.069-1.767.325-1.992,3.892-1.419a3.437,3.437,0,0,0-.553,2.565l-.136.358.624.29,0,.027,1.815.819a.162.162,0,0,1-.006-.053l.68.118,3.446.168c-.095-1.33-.05-2.267-.059-2.932A29.482,29.482,0,0,1,123.224,65.3Zm-.1-.63h0l.006.021,0,.027ZM83.571,40.5C97.3,47.13,110.06,54.48,119.521,61.765c-3.872-1.593-8.435-2.8-12.531-2.116-9.531,1.584-2.178,6.162-2.178,6.162.709.44,3.106,4.019-1.868,5.742-.086-.612-.225-1.194-.34-1.711-1.682-7.456-1.992-.836-2.27-7.959-.006-.387-.012-.768-.024-1.132.34-2.276-.334-11.316-.7-11.13a.045.045,0,0,0-.038.027l-1.232-.239a67,67,0,0,0-11.044.564,5.647,5.647,0,0,0-.955.248l.219,10.956c-2.571.059-1.806-2.76-4.56-3-.771-.065-.972.047-1.569-.364l-3.165-2.53c3.372-3.1,2.8-5.42,4-10.288h0c.024-.1.047-.192.071-.29l.077-.3.08-.3c.7-.189.455-.089.777-.739.183-.366.355-.768.55-1.156A15.153,15.153,0,0,0,83.571,40.5ZM29.133,40.12c.154-.192.31-.387.467-.579l.183-.219C29.565,39.585,29.346,39.851,29.133,40.12ZM21.691,52.633l.106-.254.071-.163ZM21.2,53.824l.03-.071c.092-.236.189-.476.287-.712C21.414,53.3,21.307,53.561,21.2,53.824Zm19.251,11.8c-.322.955-.969,1.129-1.756,3.4a16.078,16.078,0,0,0-.632,2.979,5.083,5.083,0,0,0,.124,1.758l.361,1.114-.854.647c-.488.647-.89,3.242-1.079,4.126a6.086,6.086,0,0,0-.239,1.365c.015.733.068-.018.056.585,0,.044,0,.1-.009.142s-.015.1-.021.151c0,0-.086.411-.1.494-.455,2.811.018,3.709-.089,5.568-.03.491-1.528,3-1.649,6.124s.532,6.836,2.264,8.287c.946.792,1.1,2.477,1.549,3.638.863,2.237,1.584,2.884,2.914,2.8a39.093,39.093,0,0,0,4.93-1.176v-.006c3.591-.875,3.186-1.6,3.056,2.462H37.051q-1.068-.975-2.033-1.983-1.4-1.458-2.66-3.065a39.544,39.544,0,0,1-2.323-3.3A37.27,37.27,0,0,1,28.1,98.285l-4.022-8.2a1.238,1.238,0,0,0-1.522-.535l-2.2.8v0L20.3,90.19c-.115-.343-.228-.689-.337-1.034l-.065-.213c-.106-.343-.21-.689-.307-1.037l-.062-.216c-.1-.343-.192-.689-.281-1.037l-.062-.239c-.089-.352-.174-.7-.257-1.058l-.047-.2q-.124-.545-.239-1.091l-.038-.186c-.077-.375-.148-.754-.216-1.132l-.03-.165c-.068-.384-.133-.771-.192-1.161l-.024-.148c-.059-.393-.115-.789-.166-1.188l-.015-.127c-.053-.4-.1-.81-.142-1.218l-.012-.115c-.038-.408-.077-.819-.109-1.229l-.006-.109c-.033-.414-.059-.83-.08-1.244l-.006-.118c-.021-.42-.035-.842-.047-1.268l0-.071c-.009-.429-.015-.86-.015-1.291V73.25c0-.423.006-.842.015-1.262l.009-.263c.009-.355.024-.706.038-1.061l.009-.21c.024-.414.047-.825.08-1.235l.018-.207c.027-.346.056-.689.092-1.031l.027-.29q.129-1.215.307-2.418L18.18,65c.05-.334.106-.665.166-1l.038-.222c.071-.4.145-.792.228-1.185l.038-.2c.035-.168.071-.337.109-.505a54.264,54.264,0,0,0-.9,5.541Zm.618-14.257c-.207,1.708-.127,3.517-.242,5.246-.012.189-.021.361-.03.526L22.339,51.161c-.05.1-.095.207-.142.31.027-.059.05-.118.08-.177.154-.34.31-.677.473-1.014.041-.089.086-.174.13-.263q.186-.39.381-.771l.174-.34c.145-.281.29-.556.437-.833l.109-.2c.168-.313.346-.627.52-.937l.2-.349c.127-.219.257-.437.387-.656.071-.115.139-.231.21-.349.18-.3.364-.588.55-.881.08-.124.16-.245.236-.366.127-.192.254-.387.384-.582.089-.133.18-.266.269-.4.139-.2.281-.4.423-.606.109-.157.219-.31.328-.464.16-.225.322-.446.485-.668l.183-.242a19.653,19.653,0,0,1,6.765,2.645A22.545,22.545,0,0,1,41.073,51.371ZM57.457,39.718l.044.166c.358,1.348,1.182,3.656,2.338,4.353l0,.228-.018-.024c-.053,4.315.742,8.645,3.192,11.186a28.988,28.988,0,0,1-4.661,2.722c-1.33.582-1.732,2.512-3.836,2.92l.3-11.165c-1.4-.174-5.4-.638-8.727-.757-2.208-3.5-4.557-6.508-7.513-8.213a28.273,28.273,0,0,0-7.758-3.017c-.216.248-.429.494-.641.742l.136-.16c.118-.139.239-.278.361-.417s.272-.307.411-.461c.166-.186.334-.369.5-.556l.488-.526.13-.133,10.45,3.233ZM47.383,25.482c4.776,1.67,9.673,3.514,14.6,5.494a15.935,15.935,0,0,0-1.806,5.376,4.63,4.63,0,0,0-2.225.343l-.213-4.8h0c.39.112-.009-.16-.009-.16l-8.9-3.177h-6.9l.455-.293.366-.228c.189-.115.378-.233.567-.346.095-.056.189-.112.281-.168.358-.21.718-.417,1.079-.621.124-.071.248-.142.375-.21l.576-.316.381-.2c.34-.177.686-.352,1.028-.523C47.155,25.594,47.267,25.535,47.383,25.482Z" transform="translate(509.288 217.786)" fill="#46ad54" fill-rule="evenodd"/>
      <path id="Path_40" data-name="Path 40" d="M23.791,29.757a28.273,28.273,0,0,1,7.758,3.017c11.216,6.472,13.716,31.756,32.837,31.12,0,0,11.021.364,24.583.219s9.747-6.085,8.819-6.661c0,0-7.353-4.578,2.175-6.162,4.105-.683,8.677.526,12.554,2.122q1.88,1.45,3.582,2.89c.033.216.068.429.1.641-5.349-2.837-18.879-5.42-14.771-1.906,4.217,3.6,8.8,6.626.553,11.092s-31.558,1.614-46.367,2.019S38.184,42.722,27.9,35.662a19.67,19.67,0,0,0-6.768-2.645c.842-1.12,1.732-2.208,2.657-3.26" transform="translate(516.311 226.146)" fill="#ededed" fill-rule="evenodd"/>
      <path id="Path_41" data-name="Path 41" d="M18.487,39.213C26.709,39.825,41.1,40.85,41.1,40.85L20.491,34.171a52.169,52.169,0,0,0-2,5.042" transform="translate(511.135 234.777)" fill="#fd7429" fill-rule="evenodd"/>
      <path id="Path_42" data-name="Path 42" d="M22.5,32.449l10.453,3.233-.381-8.074-5.172.3a53.524,53.524,0,0,0-4.9,4.539" transform="translate(518.984 221.944)" fill="#ededed" fill-rule="evenodd"/>
      <path id="Path_43" data-name="Path 43" d="M26.292,37.2l15.383-.127-.011-1.353-.294-6.629-8.315-2.255-7.146,2.288Z" transform="translate(525.648 220.429)" fill="#fff" fill-rule="evenodd"/>
      <path id="Path_44" data-name="Path 44" d="M24.156,30.042l5.181-.3,7.288-2.264,8.181,2.376c.39.115-.009-.16-.009-.16l-8.9-3.177h-6.9a53.3,53.3,0,0,0-4.838,3.52" transform="translate(522.221 219.82)" fill="#fd7429" fill-rule="evenodd"/>
      <path id="Path_45" data-name="Path 45" d="M39.914,46.821l.307,3.816,20.645,4.976-.492-8.261Z" transform="translate(553.033 259.513)" fill="#f2f2ee" fill-rule="evenodd"/>
      <path id="Path_46" data-name="Path 46" d="M57.722,49.081l.047,4.374-1.962,4-7.406-.2a23.207,23.207,0,0,0-.089-5.884c-.381-2.184-1.046-1.886-1.212-2.781L52.591,46Z" transform="translate(567.085 257.915)" fill="#fff" fill-rule="evenodd"/>
      <path id="Path_47" data-name="Path 47" d="M47.126,49.522l5.491-2.583L58.8,50.76l.027-.1L52.8,45.585l-5.55-.059a23.4,23.4,0,0,1-.118,2.743,4.571,4.571,0,0,0-.006,1.253" transform="translate(567.059 256.98)" fill="#fd7429" fill-rule="evenodd"/>
      <path id="Path_48" data-name="Path 48" d="M42.261,37.493l.541,7.619-25.153,2.01A52.974,52.974,0,0,1,20.132,35.87Z" transform="translate(509.497 238.099)" fill="#ededed" fill-rule="evenodd"/>
      <path id="Path_49" data-name="Path 49" d="M54.643,42.413q-1.724-.08-3.446-.166l-1.144-4.566c5.716.251,4.25-.056,4.59,4.732" transform="translate(572.859 241.64)" fill="#bfbfbf" fill-rule="evenodd"/>
      <path id="Path_50" data-name="Path 50" d="M49.524,40.715c-.355-4,3.053-3.736,2.938-1.1l.035,2.654-.869-.154-2.24-1.046Z" transform="translate(571.559 241.615)" fill="#bfbfbf" fill-rule="evenodd"/>
      <path id="Path_51" data-name="Path 51" d="M49.6,40.9s.068-3.023.825-2.985,1.277,2.429,1.108,3.05-.118.754-.118.754Z" transform="translate(571.969 242.101)" fill="#ededed" fill-rule="evenodd"/>
      <path id="Path_52" data-name="Path 52" d="M95.238,25.689,93.2,22.518l-3.109,1.747a.737.737,0,0,1-.949-.171L86.776,21.15l-2.92,2.075a.74.74,0,0,1-.949-.08l-2.657-2.681-2.678,2.352a.737.737,0,0,1-.966.03l-2.92-2.385L71.3,23.05a.737.737,0,0,1-.987.163l-3.159-2.066-2.1,2.819a.74.74,0,0,1-.963.269L60.74,22.506l-1.826,3.082a.734.734,0,0,1-.9.31L54.5,24.534l-1.492,3.251a.742.742,0,0,1-.866.4L48.5,27.2l-1.147,3.393a.737.737,0,0,1-.816.491l-3.724-.6-.777,3.464a.741.741,0,0,1-.768.6L37.5,34.334l-.414,3.558a.738.738,0,0,1-.7.647l-3.768.186-.038,3.517a.742.742,0,0,1-.624.783l-3.727.573.331,3.564a.739.739,0,0,1-.544.783l-3.65.961.706,3.511a.737.737,0,0,1-.461.83L21.09,54.587l1.07,3.419a.739.739,0,0,1-.372.875l-3.369,1.7,1.4,3.242a.734.734,0,0,1-.254.958l-3.171,2.042,1.75,3.109a.733.733,0,0,1-.174.946l-2.941,2.361,2.072,2.92a.737.737,0,0,1-.083.949l-2.678,2.657,2.355,2.678a.74.74,0,0,1,.03.966l-2.388,2.92,2.589,2.385a.738.738,0,0,1,.166.987l-2,3.059,5.388-3.171.553,3.668c.423,2.926.833,5.733,1.424,8.441l2.054-.745a55.4,55.4,0,1,1,104.9,0l2.048.745c.591-2.707,1-5.515,1.427-8.441l.547-3.668,5.329,3.136-1.948-2.746a.737.737,0,0,1,.083-.949l2.681-2.66L137.21,83.7a.744.744,0,0,1-.03-.969l2.388-2.923-2.589-2.382a.743.743,0,0,1-.165-.987l2.069-3.153-2.822-2.1a.736.736,0,0,1-.266-.963l1.726-3.354-3.079-1.823a.736.736,0,0,1-.313-.9l1.368-3.517-3.254-1.492a.736.736,0,0,1-.4-.86l.99-3.644-3.4-1.144a.737.737,0,0,1-.488-.819l.6-3.721-3.467-.777a.741.741,0,0,1-.6-.768l.213-3.765-3.558-.414a.737.737,0,0,1-.647-.695l-.186-3.771-3.52-.038a.737.737,0,0,1-.78-.624l-.576-3.73-3.564.337a.734.734,0,0,1-.78-.547l-.963-3.65-3.511.706a.741.741,0,0,1-.833-.464l-1.336-3.523-3.419,1.067a.74.74,0,0,1-.878-.372l-1.7-3.369-3.242,1.4a.729.729,0,0,1-.958-.254" transform="translate(503.015 207.968)" fill="#d72206" fill-rule="evenodd"/>
      <path id="Path_53" data-name="Path 53" d="M34.767,71.981l.751-2.8a.4.4,0,0,1,.494-.287l2.8.748a.4.4,0,0,1,.284.5l-.748,2.8a.4.4,0,0,1-.5.284l-2.8-.748a.4.4,0,0,1-.287-.494m103.347,0-.751-2.8a.4.4,0,0,0-.5-.287l-2.8.748a.408.408,0,0,0-.287.5l.751,2.8a.4.4,0,0,0,.494.284l2.8-.748A.406.406,0,0,0,138.114,71.981ZM114.158,95.99l-.828-1.959-.165-4.61-2.843-2.766-.842-1.995,5.048-2.131.907,2.152-2.515,1.061,2.725,2.63.171,4.424,2.6-1.1.893,2.116Zm-7.847-8.1c.322-.1.668.189,1.756,3.753,1.093,3.585.96,3.981.635,4.078s-.668-.189-1.758-3.753C105.85,88.386,105.951,88,106.311,87.893Zm3.023,9.963c2.178-.665,2.533-2.722,1.229-6.99s-2.725-5.766-4.885-5.1c-2.178.665-2.536,2.722-1.232,6.99S107.154,98.523,109.335,97.855Zm-8.006,1.7,2.586-.514-2.394-12.025-2.583.514Zm-6.292-1.25-.024,2.187-2.5.319.762-12.457,2.468-.316,3.848,11.869-2.447.31-.591-2.107Zm.925-2.264L95.1,93.02l-.035,3.139Zm-5.825-5.066,1.637-.033-.044-2.314-5.911.112.044,2.314,1.637-.03.189,9.942,2.636-.05Zm-8.077,9.877,2.027.168,1.02-12.218-2.42-.2-.411,4.918L81,88.463l-2.252-.186-1.017,12.218,2.364.2.479-5.76Zm-10-3.544-.686,2.078L68.9,98.934l4.5-11.641,2.444.446.083,12.475-2.426-.44.071-2.19Zm1.566-1.877.095-3.142-.984,2.979ZM62.049,96.762l.624-2.036L65.5,91.082l-.408-3.945.635-2.072,5.24,1.6L70.282,88.9l-2.61-.8.4,3.768-2.707,3.5,2.7.827-.674,2.2ZM58.972,84.326c.3.154.352.6-1.339,3.925s-2.072,3.532-2.373,3.378-.352-.6,1.339-3.925S58.638,84.154,58.972,84.326ZM54.234,93.6c2.033,1.031,3.718-.2,5.739-4.182s2.036-6.041.024-7.063c-2.033-1.034-3.718.2-5.739,4.179S52.2,92.568,54.234,93.6ZM28.517,44.877l-8.955,5.269-10.081-3.1a100.694,100.694,0,0,0,3.378,14.523A83.452,83.452,0,0,0,18.394,74.93l8.018-3.889.9,1.413q1.507,2.372,3.242,4.59,1.818,2.314,3.86,4.439,2.066,2.159,4.333,4.114a66.519,66.519,0,0,0,10.007,7.1,71,71,0,0,0,11.4,5.323A74.831,74.831,0,0,0,73,101.443a78.534,78.534,0,0,0,26.879,0,74.8,74.8,0,0,0,12.847-3.422,71.15,71.15,0,0,0,11.4-5.32,67.051,67.051,0,0,0,10.007-7.1q2.261-1.955,4.333-4.114c1.357-1.416,2.648-2.9,3.857-4.439q1.733-2.217,3.242-4.59l.9-1.413,8.015,3.889a83.466,83.466,0,0,0,5.538-13.361A100.682,100.682,0,0,0,163.4,47.046l-10.081,3.1-8.955-5.267-.136.91c-.426,2.864-.83,5.736-1.448,8.568l-.461,2.1-7.879-2.87-3.73,7.6a39.806,39.806,0,0,1-2.033,3.638,41.28,41.28,0,0,1-2.438,3.452,42.084,42.084,0,0,1-2.778,3.207c-.99,1.037-2.036,2.019-3.121,2.955a47.86,47.86,0,0,1-7.161,5.089,50.629,50.629,0,0,1-8.11,3.795,53.265,53.265,0,0,1-9.1,2.42,56.427,56.427,0,0,1-19.05,0,53.265,53.265,0,0,1-9.1-2.42A50.6,50.6,0,0,1,59.7,79.529a47.734,47.734,0,0,1-7.164-5.089c-1.085-.937-2.131-1.918-3.121-2.955a42.212,42.212,0,0,1-2.781-3.207A40.818,40.818,0,0,1,44.2,64.823a39.762,39.762,0,0,1-2.033-3.635l-3.73-7.6-7.879,2.87-.461-2.1c-.618-2.828-1.02-5.7-1.448-8.565Z" transform="translate(493.525 255.711)" fill="#fea635" fill-rule="evenodd"/>
      <path id="Path_54" data-name="Path 54" d="M42.877,66.386l-1.049,3.239-3.4-.009,2.757,2L40.126,74.85l2.751-2.007,2.749,2.007-1.058-3.236,2.76-2-3.408.009Zm-14.4-.009-1.046,3.239-3.4,0,2.757,1.995-1.058,3.236,2.751-2.01,2.751,2.01-1.058-3.236,2.757-1.995-3.4,0Zm43.27.009L70.7,69.625l-3.4-.009,2.757,2L69,74.85l2.749-2.007L74.5,74.85l-1.058-3.236,2.76-2-3.408.009Zm14.4,0L85.1,69.631,81.7,69.625l2.76,1.995L83.4,74.856l2.749-2.007L88.9,74.856,87.841,71.62,90.6,69.625l-3.4.006Zm-28.874,0L56.23,69.631l-3.408-.006,2.76,1.995-1.058,3.236,2.749-2.007,2.751,2.007L58.967,71.62l2.757-1.995-3.4.006Z" transform="translate(521.97 297.752)" fill="#e51701" fill-rule="evenodd"/>
      <path id="Path_55" data-name="Path 55" d="M78.182,99.141c-1.726-.136-1.229-1.481-1.475-3.416a39.6,39.6,0,0,1-.086-4.693,8.853,8.853,0,0,1,2.305-1.637c.665.7.532,2.273,2.305,2.852a7.079,7.079,0,0,1-.884-2.24,2.906,2.906,0,0,1,.035-1.348c.231-.68.236-.547.656-.638a13.834,13.834,0,0,0,.869,1.755,9.3,9.3,0,0,0,2.435,2.178l2.019,1.383a6.76,6.76,0,0,0,.585,2.923c.576.881,1.758.476,2.814.656a8.446,8.446,0,0,1,.033,2.926,40.732,40.732,0,0,1-7.477-.112Zm10.861-3.484a7.862,7.862,0,0,1,.225-1.374c.145-1.247-.2-.975,1.516-1.956,3.694-2.113,3.443-4.185,4.084-4.578a.748.748,0,0,1,.059.139l.157.437a3.064,3.064,0,0,1,.106,1.856,16.415,16.415,0,0,0-.618,2.107A4.848,4.848,0,0,0,96.6,89.332c.81.328,1.7,1.088,2.577,1.513l-.393,7.563c-1.33,1.1-7.1,1.7-8.068,1.289l-.145-3.6Zm-31.6,4.838-.018-1.105.7.106c.18,2.149-.166,4.856.721,7.421l.127.29c.73.148,7.081-.984,6.36.414-.408.795-.393.765-.257,1.862-1.623.689-1.061,2.208-.993,3.331.059.978.136-.053-.228.993a4.128,4.128,0,0,0,.059,2.237,10.137,10.137,0,0,0-4.758,2.66c-.665.686-.9.9-1,1.469,1.729-1.111,3.478-2.471,6.174-2.589a12.827,12.827,0,0,1,.63,1.543,13.951,13.951,0,0,0-6.641,2.961,14.53,14.53,0,0,0-2.379,2.432c-.3.4-.624.854-.943,1.348-.4.618-.287.828-.875,1.442-1.371-2.16-.346-5.19.4-6.9,1.54-3.561,3.487-4.726,6.7-5.97l.414-.186a10.616,10.616,0,0,0-5.06,1.1,4.805,4.805,0,0,1-1.226.588,25.575,25.575,0,0,1,1-8.5c1.034.42.281.254,1.159,1.368a3.986,3.986,0,0,0,1.259,1.049,5.751,5.751,0,0,0-.842-1.865,2.336,2.336,0,0,1-.21-.535A13.722,13.722,0,0,1,57.441,100.495Zm44.3,6.174a120.69,120.69,0,0,1-.074-14.029,4.1,4.1,0,0,1,2.24.695c-.1,6.073-.168,7.519-.266,13Zm-9.507,9.188a32.34,32.34,0,0,0,4.415-2.683,9.322,9.322,0,0,0,.627-1.108l2.225-3.156c.99-1.244,5.494-1.9,3.677-.171-.742.706-1.167.464-1.773,1.693a15.855,15.855,0,0,1,1.868-.83c.689-.239,1.33-.316,1.951-.538,1.631-.582,2.521-1.348,3.966-.848.532,1.114.163.943.2,1.894.03.768.458.508.828,1.3.316.683-.092,1.126-.145,1.741-.115,1.359.984,1.153.245,2.157-.822,1.2-.414,1.088-.272,1.637.216.836-.313,1.235-.606,1.906-1.826-.106-3.189-.358-5.157-.355A95.871,95.871,0,0,1,94.1,118.28a14.253,14.253,0,0,1-4.161-1.114ZM67.493,82.272a1.5,1.5,0,1,1-1.5,1.5A1.5,1.5,0,0,1,67.493,82.272Zm14.594,4.5a6.793,6.793,0,0,0,.854.39,14.955,14.955,0,0,0,8.523-.021c-.559.476-1.179.765-1.6,1.191l-.095.1-.257.313-.077.115a3.4,3.4,0,0,0-.349,2.187c.027,1.392.089.461-.408,1.3-.514.863-.1,1.126-.423,2.063-.242.718-.157.34-.3.541-1.646-.585.668-2.553-2.494-3.555l-1.2-.482C83.18,89.084,82.222,89.279,82.086,86.77ZM63.9,81.746a9.127,9.127,0,0,0-2.828-.9l-.8-.434c2.2-.021,8.127-.177,9.723.544a43.105,43.105,0,0,1-.171,6.274c-.3,7.028.411,13.358.254,19.183l-2.1-.2-.564-6.924c-.121-2.961.154-7.92-.041-10.716l-.012.03,0-.027c-.727,1.383-1.2,12.62-1.046,15.14.083,1.357.485.893.449,1.868a2.368,2.368,0,0,1-.919.535c-.461.083-.762-.281-1.986-.381a3.723,3.723,0,0,0-1.105.027h-.006l-.015,0-.006,0-.133.027h0l-.015,0-.006,0a2.181,2.181,0,0,1-.653.015c-.266-4.882-.739-20.1.411-23.9l1.555-.168h0Zm41.81-.845a2.941,2.941,0,0,1,.414-.115l.089-.018h0a68.927,68.927,0,0,1,9.23-.346,2.8,2.8,0,0,1-1.377.576l-.041.009-.015,0-.044.009-.437.08-.044.009-.015,0-.047.009a3.7,3.7,0,0,0-1.634.665l1.525.145a4.151,4.151,0,0,1,.393,1.259l.3,4.265c.154,2.483.269,17.265-.319,17.954a1.178,1.178,0,0,1-.42.239c-.121.021-.272.006-.656.044-.3.033-.683.059-1.017.083-.81.059-1.593.041-2.406.095.077-2.308.287-4.439.2-6.771-.041-1.1-.139-2.19-.171-3.286-.033-1.058.177-2.338-.692-2.669l0,.009-.012,0c-.361.573-.168,5.7-.257,7.028l-.242,2.967c-.124,2.084.287,2.914-.872,3.159l-.056.012h0a7.762,7.762,0,0,1-1.49.065l.245-6.726c.145-2.29.168-5.012.154-7.471-.006-1.026-.035-2.137-.074-3.124C105.783,85.877,104.952,85.115,105.706,80.9ZM70.953,120.7a1.922,1.922,0,0,0-.958-.239,10.239,10.239,0,0,1-3.411-1.534c-.993-.576-1.126-.765-.866-2.311.257-1.224-.7-1.04-.476-2.042.284-1.274.621-.112.165-2.175-.245-1.108.284-1.49.863-1.968-.053-1.785-.316-2.784,1.871-2.293a3.448,3.448,0,0,1,.955.4c1.481.692,2.911.825,4.182,1.4.638.29.272.281,1.011.467-.842-1.232-3.49-2.267-1.138-2.669a6.368,6.368,0,0,1,2.7.78c2.353,2.388,2.081,4.191,4.2,5.4,13.615,7.752,12.788,6.31,24.8,6.31a37.037,37.037,0,0,1,6.724.949c1.395.443,3.077.033,3.694,1.812l-4.655.16c-3.6.065-6.156-.485-9.454-.641a3.628,3.628,0,0,0,.355.257c1.859,1.108,12.655,2.828,14.842,2.267l.266-.1a1.686,1.686,0,0,1,.207-.068c.786-.1-.293-.1.3.035.816.189,1,.245,1.327.751,1.534,2.379,1.043,6.005.015,8.591-.689,1.726-1.15,1.962-3.28,1.614-7.01-1.144-11.881-3.077-17.52-5.16l-3.753-1.463c-.579-.275-.789-.4-1.238-.068a14.081,14.081,0,0,1,1.6.881,63.646,63.646,0,0,0,11.57,5.131c.783.251.5-.174.78.618-3.857-.086-9.484-1.362-12.546-3.068-2.344-1.306-1.194-1.058-3.682-2.013l-.1-.038-5.775-3.561c-3.313-2.258-4.968-4.374-7.557-5.5-2.586-1.067-1.971-.807-5.343-.807A3.856,3.856,0,0,1,70.953,120.7Zm.313,2.444c2.592.213,2.873-.272,2.29-.887a2.075,2.075,0,0,1,.183-.825c.8.73.355.443.674,1.368.387,1.12,3.363,2.32,5.636,5.524,1,1.413.337,1.646-.118,2.973.718-.3,1.513-.4,3.023-1.088,2.042-.919,1.407-1.076,2.884,0-.748,1.51-5.9,2.976-7.69,3.461-3.28.89-5.453.816-7.291,1.478a.586.586,0,0,1-.092.035l-1.064-.08c-.05-.012-.109-.033-.157-.044l-.319-.139c1.439-.254,4.687-2.2,5.1-3.165l-7.985,2.574c-1.995.668-4.649.99-6.638,1.809-.369.154-.7-.012-1.345-.331-1.915-.937-2.512-5.757-1.41-8.175a8.474,8.474,0,0,1,2.2-3.177,10.124,10.124,0,0,1,1.555-1.153c2.944-1.744,1.56-1.93,8.042-1.93,1.6,0,1.15.145,1.59,1.676C70.684,123.095,70.992,123.124,71.267,123.145Zm.76-16.751a17.749,17.749,0,0,0-.124-3.159l-.08-9.915a3.37,3.37,0,0,1,2.193-.644c.059,1.9.121,2.994.118,4.7l-.021,4.992c-.021,1.023.236,3.481-.449,4.279l-1.634-.242Zm44.931.854h.015c.136-1.173.334-2.462.473-3.588.1-.777.118-2.518.142-4.132,1.646,1.037.7,6.874.165,8.24a16.64,16.64,0,0,0-.845,2.087,4.047,4.047,0,0,0,1.283-1.076c.461-.5.538-.978,1.073-1.215.653,1.194,1.226,6.165,1.114,8.393-.437-.092-3.248-1.717-5.346-1.744l-.969.251c2.542.112,5.308,2.722,6.218,4.17s2.639,6.2,1.286,8.52l-.417-.742c-2.276-6.41-8.967-6.517-10.471-7.341l.709-1.507a12.16,12.16,0,0,1,6.168,2.654c-.157-.771-.591-1.008-1.064-1.451a8.774,8.774,0,0,0-4.714-2.678c.4-3.375-.225-1.88-.2-3.139.012-.621.857-2.548-.961-3.416a5.2,5.2,0,0,0-.056-1.374c-.177-.683.03.092-.231-.5l-.118-.375.012,0c3.242-.556,3.275-.364,6.732-.03Zm-7.87-24.976a1.5,1.5,0,1,1-1.5,1.5A1.5,1.5,0,0,1,109.087,82.272ZM88.47,97.625a.656.656,0,1,1-.656.656A.654.654,0,0,1,88.47,97.625Zm66.641,28.652-10.453-3.812c.665-2.938,1.1-5.9,1.549-9l.062-.411,8.485,4.992,9.676-2.976a100.158,100.158,0,0,1-3.331,14.245,83.289,83.289,0,0,1-4.531,11.369C156.624,139.119,157.056,126.978,155.111,126.278ZM33.742,142.916A74.156,74.156,0,0,1,25.05,128.37L38.5,123.352a117.251,117.251,0,0,0,6.254,11.42,33.528,33.528,0,0,1-8.071-8.8c-5.139,1.939-8.328,3.017-8.328,3.017A69.921,69.921,0,0,0,33.742,142.916Zm108.448,0a74.306,74.306,0,0,0,8.692-14.546l-13.456-5.018a116.594,116.594,0,0,1-6.254,11.42,33.492,33.492,0,0,0,8.074-8.8c5.136,1.939,8.325,3.017,8.325,3.017A69.918,69.918,0,0,1,142.19,142.916ZM19.361,140.688h0c-.056-1.563-.482-13.71,1.457-14.41l10.453-3.812c-.662-2.938-1.1-5.9-1.546-9l-.062-.411-8.485,4.992L11.5,115.074a100.55,100.55,0,0,0,3.337,14.245A82.9,82.9,0,0,0,19.361,140.688Zm33.588.842c.724.55.91.925,1.6,1.38a48.473,48.473,0,0,0,6.316,4.365,51.205,51.205,0,0,0,8.21,3.833,53.459,53.459,0,0,0,9.227,2.456,56.381,56.381,0,0,0,19.316,0,53.388,53.388,0,0,0,9.227-2.456,51.086,51.086,0,0,0,8.21-3.833,48,48,0,0,0,7.223-5.128c1.082-.934,2.128-1.924,3.139-2.982a41.946,41.946,0,0,0,2.793-3.215,40.514,40.514,0,0,0,2.435-3.458,39.755,39.755,0,0,0,2.036-3.641l3.57-7.276,16.884,6.153c-2.985,6.061-5.521,11.674-9.741,17.064q-1.813,2.314-3.839,4.43t-4.318,4.087a66.017,66.017,0,0,1-9.945,7.063,70.83,70.83,0,0,1-11.3,5.284,74.25,74.25,0,0,1-12.723,3.387,78.162,78.162,0,0,1-26.61,0,74.355,74.355,0,0,1-12.726-3.387,70.92,70.92,0,0,1-11.3-5.284,65.841,65.841,0,0,1-9.942-7.063q-2.305-1.982-4.321-4.087t-3.836-4.43c-4.235-5.4-6.744-11-9.744-17.064l16.887-6.153,3.57,7.276a39.057,39.057,0,0,0,2.036,3.641,40.482,40.482,0,0,0,2.432,3.458,41.994,41.994,0,0,0,2.8,3.215Q51.695,140.407,52.949,141.53ZM23.871,114.036l-3.023,1.779L8.7,112.08,8.94,113.7a105.007,105.007,0,0,0,3.65,16.145,84.888,84.888,0,0,0,5.991,14.286l.526,1,8.142-3.954q1.56,2.456,3.348,4.74c1.229,1.563,2.559,3.094,3.981,4.575s2.917,2.908,4.463,4.238a67.964,67.964,0,0,0,10.291,7.309,73.6,73.6,0,0,0,11.7,5.465A77.022,77.022,0,0,0,74.2,171.007a80.3,80.3,0,0,0,27.524,0A76.917,76.917,0,0,0,114.9,167.5a73.507,73.507,0,0,0,11.7-5.465,68.085,68.085,0,0,0,10.288-7.309q2.319-1.995,4.466-4.238c1.422-1.481,2.749-3.012,3.978-4.575q1.787-2.283,3.348-4.74l8.142,3.954.529-1a84.875,84.875,0,0,0,5.988-14.286,104.661,104.661,0,0,0,3.65-16.145l.239-1.623-12.147,3.736-3.029-1.782.922-.739-2.559-3.6,3.275-3.248-2.923-3.316,2.917-3.573-3.251-2.994,2.527-3.857-3.546-2.636,2.11-4.1-3.8-2.252,1.673-4.3-4.016-1.844,1.209-4.445L142.4,71.718l.739-4.548-4.312-.969.26-4.6-4.389-.508-.225-4.607-4.418-.053-.7-4.551-4.4.411-1.176-4.46-4.33.872-1.634-4.309-4.217,1.318-2.078-4.12-4.061,1.753-2.494-3.875-3.851,2.166L98.22,38.041l-3.6,2.556-3.248-3.275-3.316,2.923-3.573-2.92-3,3.251L77.627,38.05,74.99,41.6l-4.1-2.11-2.252,3.8-4.3-1.67L62.5,45.634l-4.448-1.209L56.64,48.61l-4.551-.739-.969,4.312-4.6-.26-.514,4.389-4.607.222-.047,4.418-4.554.706.414,4.4-4.46,1.176.869,4.33-4.312,1.631,1.318,4.22L26.51,79.491l1.753,4.058-3.877,2.494,2.169,3.851-3.594,2.887,2.556,3.6-3.275,3.248,2.923,3.316-2.917,3.573,3.251,2.994-2.527,3.857Zm11.647,6.883-2.054.745c-.591-2.707-1-5.515-1.424-8.441l-.553-3.668L26.1,112.727l2-3.059a.738.738,0,0,0-.166-.987L25.349,106.3l2.388-2.92a.74.74,0,0,0-.03-.966l-2.355-2.678,2.678-2.657a.737.737,0,0,0,.083-.949l-2.072-2.92,2.941-2.361a.733.733,0,0,0,.174-.946l-1.75-3.109,3.171-2.042a.734.734,0,0,0,.254-.958l-1.4-3.242,3.369-1.7a.739.739,0,0,0,.372-.875L32.1,74.555l3.529-1.339a.737.737,0,0,0,.461-.83l-.706-3.511,3.65-.961a.739.739,0,0,0,.544-.783l-.331-3.564,3.727-.573a.742.742,0,0,0,.624-.783l.038-3.517,3.768-.186a.738.738,0,0,0,.7-.647l.414-3.558,3.765.213a.741.741,0,0,0,.768-.6l.777-3.464,3.724.6a.737.737,0,0,0,.816-.491l1.147-3.393,3.638.99a.742.742,0,0,0,.866-.4L65.512,44.5l3.517,1.365a.734.734,0,0,0,.9-.31l1.826-3.082L75.109,44.2a.74.74,0,0,0,.963-.269l2.1-2.819,3.159,2.066a.737.737,0,0,0,.987-.163L84.7,40.429l2.92,2.385a.737.737,0,0,0,.966-.03l2.678-2.352,2.657,2.681a.74.74,0,0,0,.949.08l2.92-2.075,2.361,2.944a.737.737,0,0,0,.949.171l3.109-1.747,2.042,3.171a.729.729,0,0,0,.958.254l3.242-1.4,1.7,3.369a.74.74,0,0,0,.878.372l3.419-1.067,1.336,3.523a.741.741,0,0,0,.833.464l3.511-.706.963,3.65a.734.734,0,0,0,.78.547l3.564-.337.576,3.73a.737.737,0,0,0,.78.624l3.52.038.186,3.771a.737.737,0,0,0,.647.695l3.558.414-.213,3.765a.741.741,0,0,0,.6.768l3.467.777-.6,3.721a.737.737,0,0,0,.488.819l3.4,1.144-.99,3.644a.736.736,0,0,0,.4.86l3.254,1.492-1.368,3.517a.736.736,0,0,0,.313.9l3.08,1.823-1.726,3.354a.736.736,0,0,0,.266.963l2.822,2.1L147.829,96.4a.743.743,0,0,0,.165.987l2.589,2.382L148.2,102.7a.744.744,0,0,0,.03.969l2.358,2.672L147.9,109a.737.737,0,0,0-.083.949l1.948,2.746-5.329-3.136-.547,3.668c-.426,2.926-.836,5.733-1.427,8.441l-2.048-.745a55.4,55.4,0,1,0-104.9,0ZM78.463,67.844a8.2,8.2,0,0,1,.443-3.162c4.894-14.263,18.35-9.419,18.306,2.589-.012,3.292.053,3.872-1.232,5.97-.638,1.037-.006,2.314-.686,2.911s-2.225.109-2.89-.293c-.981-.594-.588-1.572-.715-2.882a6.655,6.655,0,0,1,.027-3.307c.609-.656,3.074-.233,3.978-.881-.609-1.773-4.149-1.986-5.024-.789-.168.228.656-4.454,5.225-1.105-.532-2.444-4.59-3.094-5.784-.854C88.263,69.5,92.575,77.319,85.9,73.855a3.273,3.273,0,0,1,.52-2.225c-1.324.361-1.549,1.714-1.324,3.218.062,1.531-1.575,3.044-4.6,3.218-1.549-1.566-1.835-1.912-1.835-4.924A52.834,52.834,0,0,1,78.463,67.844Zm3.978,10.87c1.714.121,3.6,2.707,8.636,1.179,1.2-.364,1.478-1.011,2.533-1.159C93.515,80.106,93,81.6,92.1,82.053c-1.77.89-.9-.683-3.981-.68-1.484,0-1.129-.136-2.042.52C84.536,83,82.7,81.687,82.441,78.714Zm3.446-.319a4.567,4.567,0,0,1,4.622.121C89.6,78.87,86.741,79.118,85.887,78.394Zm-5.34-11.5c1.826-.567,2.152-2.731,5.332.467l-1.167-.275c-1.463,0-2.958.163-3.408,1.7,1.067.615,1.386.109,2.84.189l2.27.251a3.052,3.052,0,0,0-.511-3.718A3.245,3.245,0,0,0,80.547,66.895Zm-44.254,72.8.751-2.8a.4.4,0,0,1,.494-.287l2.8.748a.4.4,0,0,1,.284.5l-.748,2.8a.4.4,0,0,1-.5.284l-2.8-.748A.4.4,0,0,1,36.293,139.692Zm79.391,24.01-.828-1.959-.165-4.61-2.843-2.766L111,152.371l5.048-2.131.907,2.152-2.515,1.061,2.725,2.63.171,4.424,2.6-1.1.893,2.116Zm-7.847-8.1c.322-.1.668.189,1.756,3.753,1.093,3.585.961,3.981.635,4.078s-.668-.189-1.758-3.753C107.376,156.1,107.476,155.713,107.837,155.6Zm3.023,9.963c2.178-.665,2.533-2.722,1.229-6.989s-2.725-5.766-4.885-5.1c-2.178.665-2.536,2.722-1.232,6.99S108.679,166.234,110.86,165.567Zm-8.006,1.7,2.586-.514-2.394-12.025-2.583.514Zm-6.292-1.25-.024,2.187-2.5.319.762-12.457,2.468-.316,3.848,11.869-2.447.31-.591-2.107Zm.925-2.264-.86-3.023-.035,3.139Zm-5.825-5.066,1.637-.033-.044-2.314-5.911.112.044,2.314,1.637-.03.189,9.942,2.636-.05Zm-8.077,9.877,2.027.168,1.02-12.218-2.42-.2-.411,4.918-1.28-5.06-2.252-.186-1.017,12.218,2.364.2.479-5.76Zm-10-3.544L72.9,167.1l-2.483-.455L74.916,155l2.444.446.083,12.475-2.426-.44.071-2.19Zm1.566-1.877L75.25,160l-.984,2.979Zm-11.582,1.327.624-2.036,2.828-3.644-.408-3.945.635-2.072,5.24,1.6-.686,2.234-2.61-.8.4,3.768-2.707,3.5,2.7.827-.674,2.2ZM60.5,152.037c.3.154.352.6-1.339,3.925s-2.072,3.532-2.373,3.378-.352-.6,1.339-3.925S60.163,151.865,60.5,152.037Zm-4.737,9.274c2.033,1.031,3.718-.2,5.739-4.182s2.036-6.041.024-7.063c-2.033-1.034-3.718.2-5.739,4.179S53.729,160.279,55.76,161.311Zm83.88-21.619-.751-2.8a.4.4,0,0,0-.5-.287l-2.8.748a.408.408,0,0,0-.287.5l.751,2.8a.4.4,0,0,0,.494.284l2.8-.748A.406.406,0,0,0,139.64,139.692ZM20.768,60.44l-.913-3.4a.492.492,0,0,0-.6-.349l-3.4.91a.5.5,0,0,0-.349.606l.913,3.4a.49.49,0,0,0,.6.349l3.4-.91A.5.5,0,0,0,20.768,60.44Zm132.011,1.034.913-3.4a.487.487,0,0,1,.6-.349l3.4.91a.5.5,0,0,1,.349.606l-.913,3.4a.492.492,0,0,1-.6.349l-3.4-.91A.5.5,0,0,1,152.779,61.475Zm-13.222-9.827-3.387,2.243-3.1-3.517,19.958-11.819,3.056,3.464-14.239,18.3-3.032-3.437,2.624-3.109Zm4.451-.934,3.75-4.477-4.865,3.215Zm-5.089-19.571c1.224.934.257,2.264-.505,3.266-.7.919-1.835,2.3-3.035,1.386ZM133.152,38.9c3.038,2.311,6.194,2.382,9.244-1.631s1.983-6.712-.3-8.449l-4.681-3.561L123.624,43.391l3.789,2.882,5.657-7.439Zm-8.606-16.258c.57.266.692,1.091-2.208,7.386-2.911,6.327-3.588,6.709-4.161,6.446s-.692-1.091,2.2-7.386C123.3,22.759,123.911,22.345,124.546,22.638ZM116.419,40.2c3.848,1.773,6.886-.644,10.356-8.178s3.346-11.369-.47-13.125c-3.848-1.77-6.886.644-10.356,8.181S112.571,38.435,116.419,40.2Zm-11.387-4.681,4.935-17.809,4.891,1.357,1.15-4.149-9.578-2.654-6.088,21.959ZM91.26,29.231,90.4,33.2l-4.678-.352,6.041-22.4,4.607.346,2.58,23.046L94.378,33.5l-.293-4.058Zm2.53-3.777-.437-5.822-1.238,5.7ZM81.43,14.895l3.023-.375-.529-4.271L73.019,11.6l.526,4.271,3.023-.372,2.267,18.341,4.865-.6Zm-13.97,17.5.6,4.019-4.5,1.327L61.271,14.655l4.43-1.306L76.288,33.981l-4.4,1.3-1.711-3.691Zm1.028-4.427-2.477-5.29.863,5.766ZM54.019,42.442l9.017-4.581-1.951-3.839L56.4,36.4,53.9,31.472l3.526-1.791-1.951-3.839-3.526,1.791-1.965-3.869,4.492-2.285-1.951-3.836-8.831,4.489Zm-18.474-10.4c1.212-.949,2.255.325,3.029,1.318.712.91,1.755,2.361.57,3.286Zm6.029,7.545c3.009-2.347,3.877-5.382.774-9.354S36.36,26.6,34.1,28.368l-4.634,3.623L43.495,49.946l3.753-2.932-5.754-7.365ZM31.236,50.572l.26.449L37.611,56.2l-3.145,3.712L17.082,45.185l3.145-3.712,5.021,4.256-3.665-5.858,3.192-3.765,4.873,8.488L42.2,50.782l-3.189,3.765Zm90.355,89.306H108.983a18.2,18.2,0,0,1,.207-3.2c1.014-.213,5.976,1.847,8.145,1.611.653-.071.089-.1.73.334.452-.479.931-.591,1.25-1.25.748-1.543,1.014-2.935,1.64-4.5.248-.621.774-.86,1.17-1.333,1.608-1.933,1.729-7.637,1.271-10.261-.5-2.849-1.472-1.475-1.206-4.034a29.649,29.649,0,0,0-1.277-11.355c-.479-1.569-.86-.913-.638-2.949a10.268,10.268,0,0,0-.384-3.316c-1.682-7.456-1.992-.836-2.27-7.959-.006-.387-.012-.768-.024-1.132.34-2.276-.334-11.316-.7-11.13a.045.045,0,0,0-.038.027l-1.232-.239a67,67,0,0,0-11.044.564,5.646,5.646,0,0,0-.955.248l.219,10.956c-2.571.059-1.806-2.76-4.56-3-.771-.065-.972.047-1.569-.364l-3.165-2.53c3.372-3.1,2.8-5.42,4-10.288l.071-.29h0c.027-.1.05-.2.077-.3l.08-.3c.7-.189.455-.089.777-.739.18-.366.355-.768.55-1.156a12.759,12.759,0,0,0,.978-2.429c.839-3.192-1.424-3.765-2.618-3.313-.875-15.389-18.678-14.9-21-.127-2.311-.021-3.526.355-2.678,3.532.361,1.348,1.185,3.656,2.341,4.353l0,.228-.018-.024c-.053,4.315.742,8.645,3.192,11.186a29.215,29.215,0,0,1-4.661,2.722c-1.33.582-1.732,2.512-3.836,2.92l.3-11.165c-2.084-.26-9.9-1.159-12.717-.6a2.613,2.613,0,0,0-.709.222c-.594,2.16-.4,4.6-.553,6.895a12.2,12.2,0,0,0-.033,1.469,14.679,14.679,0,0,1-.109,1.614c-.05,1.25-.018,2.592-.012,3.851.015,3.313-.833,2.163-1.98,5.479a16.058,16.058,0,0,0-.632,2.982,5.072,5.072,0,0,0,.124,1.756l.361,1.114-.854.647c-.491.647-.89,3.242-1.079,4.129a6.033,6.033,0,0,0-.239,1.362c.015.733.068-.018.056.582,0,.047,0,.1-.009.145s-.015.1-.021.151c0,0-.086.411-.1.494-.455,2.811.018,3.709-.089,5.568-.03.491-1.528,3-1.649,6.124s.532,6.836,2.264,8.287c.946.792,1.1,2.477,1.549,3.635,1.572,4.073,2.666,2.879,7.808,1.634,3.629-.881,3.221-1.622,3.091,2.453H54.338Q53.27,138.9,52.3,137.9q-1.4-1.458-2.66-3.065a39.543,39.543,0,0,1-2.323-3.3,37.27,37.27,0,0,1-1.936-3.464l-4.022-8.2a1.238,1.238,0,0,0-1.522-.535L36.3,120.633l1.348-.491a53.136,53.136,0,1,1,100.646,0l-2.2-.8a1.233,1.233,0,0,0-1.519.535l-4.022,8.2a35.978,35.978,0,0,1-1.939,3.464,40.245,40.245,0,0,1-2.323,3.3q-1.263,1.6-2.657,3.065Q122.661,138.9,121.591,139.878Z" transform="translate(492 188)" fill="#6b0000" fill-rule="evenodd"/>
      <path id="Path_56" data-name="Path 56" d="M34.275,51.524a9.151,9.151,0,0,0-2.828-.9l-.8-.437c2.178-.018,8.142-.18,9.744.544a43.1,43.1,0,0,1-.171,6.274c-.3,7.028.411,13.361.254,19.186l-2.113-.2-.564-6.924c-.121-2.961.154-7.917-.041-10.716-.727,1.383-1.2,12.62-1.046,15.14.083,1.357.485.893.449,1.868-1.324,1.046-1.093.3-2.92.157-1.3-.1-1.07.163-1.942.08-.266-4.885-.739-20.1.411-23.9Zm41.81-.848c1.4-.52,7.776-.52,9.747-.479-.961.848-2.444.417-3.656,1.362L83.7,51.7a4.151,4.151,0,0,1,.393,1.259l.3,4.265c.154,2.483.269,17.265-.319,17.954-.473.343-.343.21-1.091.287-.3.03-.683.059-1.017.083-.81.059-1.59.041-2.406.095.077-2.308.287-4.439.2-6.771-.044-1.1-.139-2.19-.171-3.286-.033-1.058.177-2.338-.692-2.666-.361.573-.168,5.7-.257,7.028L78.4,72.918c-.163,2.722.588,3.307-2.435,3.239l.245-6.726c.145-2.29.168-5.012.154-7.471-.006-1.026-.035-2.137-.077-3.124C76.161,55.652,75.331,54.9,76.085,50.676ZM48.576,68.916C46.85,68.78,47.346,67.436,47.1,65.5a39.6,39.6,0,0,1-.086-4.693,8.853,8.853,0,0,1,2.305-1.637c.665.7.532,2.273,2.305,2.852a7.079,7.079,0,0,1-.884-2.24,2.907,2.907,0,0,1,.035-1.348c.231-.68.236-.547.656-.638a13.835,13.835,0,0,0,.869,1.756,9.3,9.3,0,0,0,2.435,2.178l2.019,1.383a6.759,6.759,0,0,0,.585,2.923c.576.881,1.758.476,2.814.656a8.446,8.446,0,0,1,.033,2.926A40.733,40.733,0,0,1,52.71,69.5Zm10.861-3.484a7.863,7.863,0,0,1,.225-1.374c.145-1.247-.2-.975,1.516-1.956,3.694-2.113,3.443-4.185,4.084-4.578a.748.748,0,0,1,.059.139l.157.437a3.064,3.064,0,0,1,.106,1.856,16.415,16.415,0,0,0-.618,2.107,4.848,4.848,0,0,0,2.027-2.955c.81.328,1.7,1.088,2.577,1.513l-.393,7.563c-1.33,1.1-7.1,1.7-8.068,1.289l-.145-3.6Zm-4.782-4.749C53.5,58.735,52.489,59.09,52.462,56c-.012-1.608.033-1.575.789-1.073a10.778,10.778,0,0,0,1.785,1.315c1.838,1.067,2.8,1.628,4.344,1,1.407-.576,1.829-1.1,3.5-1.812-.559,1.6-1.894,1.939-2.624,2.678l-.095.1-.257.313-.077.115a3.4,3.4,0,0,0-.349,2.187c.027,1.392.089.461-.408,1.3-.514.863-.1,1.126-.423,2.063-.242.718-.157.34-.3.541-1.646-.585.668-2.553-2.494-3.555ZM42.183,63.112a3.42,3.42,0,0,1,2.225-.662c.059,1.9.121,2.994.118,4.7l-.021,4.992c-.021,1.023.236,3.481-.449,4.279l-1.652-.245a17.749,17.749,0,0,0-.124-3.159ZM27.835,70.27l-.018-1.105.7.106c.18,2.149-.166,4.856.721,7.421l.127.29c.73.148,7.081-.984,6.36.414-.408.795-.393.765-.257,1.862-1.623.689-1.061,2.208-.993,3.331.059.978.136-.053-.228.993a4.128,4.128,0,0,0,.059,2.237,10.137,10.137,0,0,0-4.758,2.66c-.665.686-.9.9-1,1.469,1.729-1.111,3.478-2.471,6.174-2.589a12.825,12.825,0,0,1,.629,1.543,13.951,13.951,0,0,0-6.641,2.961,14.531,14.531,0,0,0-2.379,2.432c-.3.4-.624.854-.943,1.348-.4.618-.287.828-.875,1.442-1.371-2.16-.346-5.19.4-6.9,1.54-3.561,3.487-4.726,6.7-5.97l.414-.186a10.617,10.617,0,0,0-5.06,1.1,4.805,4.805,0,0,1-1.226.588,25.575,25.575,0,0,1,1-8.5c1.034.42.281.254,1.159,1.368a3.986,3.986,0,0,0,1.259,1.049,5.751,5.751,0,0,0-.842-1.865,2.336,2.336,0,0,1-.21-.535A13.722,13.722,0,0,1,27.835,70.27Zm44.3,6.174a120.694,120.694,0,0,1-.074-14.029,4.1,4.1,0,0,1,2.24.695c-.1,6.073-.168,7.519-.266,13ZM87.3,79.629a4.047,4.047,0,0,0,1.283-1.076c.461-.5.538-.978,1.073-1.215.653,1.194,1.226,6.165,1.114,8.393-.437-.092-3.248-1.717-5.346-1.744l-.969.251c2.542.112,5.308,2.722,6.218,4.17s2.639,6.2,1.286,8.52l-.417-.742c-2.276-6.41-8.967-6.517-10.471-7.341l.709-1.507a12.161,12.161,0,0,1,6.168,2.654c-.157-.771-.591-1.008-1.064-1.451a8.774,8.774,0,0,0-4.714-2.678c.4-3.375-.225-1.88-.2-3.139.012-.621.857-2.548-.961-3.416a5.205,5.205,0,0,0-.056-1.374c-.177-.683.03.092-.231-.5l-.118-.378c3.254-.556,3.28-.364,6.744-.03.136-1.173.334-2.462.473-3.588.171-1.371.018-2.763.151-4.138,1.655,1.026.7,6.874.171,8.243A16.639,16.639,0,0,0,87.3,79.629ZM43.546,77.51a6.368,6.368,0,0,1,2.7.78c2.353,2.388,2.081,4.191,4.2,5.4C64.062,91.442,63.235,90,75.248,90a37.036,37.036,0,0,1,6.724.949c1.395.443,3.077.033,3.694,1.812l-4.655.16c-3.6.065-6.156-.485-9.454-.641a3.625,3.625,0,0,0,.355.257c1.859,1.108,12.655,2.828,14.842,2.267l.266-.1a1.685,1.685,0,0,1,.207-.068c.786-.1-.293-.1.3.035.816.189,1,.245,1.327.751,1.534,2.379,1.043,6.005.015,8.591-.689,1.726-1.15,1.962-3.28,1.614-7.01-1.144-11.881-3.077-17.52-5.16L64.313,99c-.579-.275-.789-.4-1.238-.068a14.08,14.08,0,0,1,1.6.881,63.647,63.647,0,0,0,11.57,5.131c.783.251.5-.174.78.618-3.857-.086-9.484-1.362-12.546-3.068-2.344-1.306-1.194-1.058-3.682-2.013l-.1-.038L54.921,96.88c-3.313-2.258-4.968-4.374-7.557-5.5-2.586-1.067-1.971-.807-5.343-.807A12.441,12.441,0,0,1,36.979,88.7c-.993-.576-1.126-.765-.866-2.311.257-1.224-.7-1.04-.476-2.042.284-1.274.621-.112.165-2.175-.245-1.108.284-1.49.863-1.968-.053-1.785-.316-2.784,1.871-2.293a3.448,3.448,0,0,1,.955.4c1.481.692,2.911.825,4.182,1.4.638.29.272.281,1.011.467C43.841,78.947,41.193,77.912,43.546,77.51Zm19.077,8.121a32.34,32.34,0,0,0,4.415-2.684,9.324,9.324,0,0,0,.627-1.108l2.225-3.156c.99-1.244,5.494-1.9,3.677-.171-.742.706-1.167.464-1.773,1.693a15.853,15.853,0,0,1,1.868-.83c.689-.239,1.33-.316,1.951-.538,1.631-.582,2.521-1.348,3.966-.848.532,1.114.163.943.2,1.894.03.768.458.508.828,1.3.316.683-.092,1.126-.145,1.741-.115,1.359.984,1.153.245,2.157-.822,1.2-.414,1.088-.272,1.637.216.836-.313,1.235-.606,1.906-1.826-.106-3.189-.358-5.157-.355A95.873,95.873,0,0,1,64.5,88.055a14.253,14.253,0,0,1-4.161-1.114ZM39.139,91.153c1.6,0,1.15.145,1.59,1.676,4.117.491,2.882-.653,3.4-1.62.8.73.355.443.674,1.368.387,1.12,3.363,2.32,5.636,5.524,1,1.413.337,1.646-.118,2.973.718-.3,1.513-.4,3.023-1.088,2.042-.919,1.407-1.076,2.884,0-.748,1.51-5.9,2.976-7.69,3.461-3.28.89-5.453.816-7.291,1.478a.586.586,0,0,1-.092.035l-1.064-.08c-.05-.012-.109-.033-.157-.044l-.319-.139c1.439-.254,4.687-2.2,5.1-3.165l-7.985,2.574c-1.995.668-4.649.99-6.638,1.809-.369.154-.7-.012-1.345-.331-1.915-.937-2.512-5.757-1.41-8.175a8.474,8.474,0,0,1,2.2-3.177A10.125,10.125,0,0,1,31.1,93.082C34.041,91.339,32.658,91.153,39.139,91.153ZM37.886,52.047a1.5,1.5,0,1,1-1.5,1.5A1.5,1.5,0,0,1,37.886,52.047Zm10.97-14.428a8.2,8.2,0,0,1,.443-3.162c4.894-14.263,18.35-9.419,18.306,2.589-.012,3.292.053,3.872-1.232,5.97-.638,1.037-.006,2.314-.686,2.911s-2.225.109-2.89-.293c-.981-.594-.588-1.572-.715-2.882a6.655,6.655,0,0,1,.027-3.307c.609-.656,3.074-.233,3.978-.881-.609-1.773-4.149-1.986-5.024-.789-.168.228.656-4.454,5.225-1.105-.532-2.444-4.59-3.094-5.784-.854-1.847,3.461,2.465,11.278-4.214,7.814a3.273,3.273,0,0,1,.52-2.225c-1.324.361-1.549,1.714-1.324,3.218.062,1.531-1.575,3.044-4.6,3.218-1.549-1.566-1.835-1.912-1.835-4.924A52.835,52.835,0,0,1,48.857,37.619Zm3.978,10.87c1.714.121,3.6,2.707,8.636,1.179,1.2-.364,1.478-1.011,2.533-1.159-.095,1.371-.606,2.864-1.51,3.319-1.77.89-.9-.683-3.981-.68-1.484,0-1.129-.136-2.042.52C54.93,52.774,53.095,51.462,52.835,48.489Zm3.446-.319a4.567,4.567,0,0,1,4.622.121C59.99,48.645,57.135,48.893,56.281,48.169Zm-5.34-11.5c1.826-.567,2.152-2.731,5.332.467L55.1,36.862c-1.463,0-2.958.163-3.408,1.7,1.067.615,1.386.109,2.84.189l2.27.251a3.052,3.052,0,0,0-.511-3.718A3.245,3.245,0,0,0,50.94,36.67Zm-21.985,71.7a37.829,37.829,0,0,0,4.953-1.176v-.006l-.035.009A39.855,39.855,0,0,1,28.955,108.374Z" transform="translate(521.606 218.225)" fill="#fff" fill-rule="evenodd"/>
    </g>
  </g>
</svg>
