<svg xmlns="http://www.w3.org/2000/svg" xmlns:xlink="http://www.w3.org/1999/xlink" width="88" height="88" viewBox="0 0 88 88">
  <defs>
    <filter id="Ellipse_4" x="0" y="0" width="88" height="88" filterUnits="userSpaceOnUse">
      <feOffset dy="3" input="SourceAlpha"/>
      <feGaussianBlur stdDeviation="3" result="blur"/>
      <feFlood flood-opacity="0.161"/>
      <feComposite operator="in" in2="blur"/>
      <feComposite in="SourceGraphic"/>
    </filter>
  </defs>
  <g id="Group_7" data-name="Group 7" transform="translate(-4 -330)">
    <g transform="matrix(1, 0, 0, 1, 4, 330)" filter="url(#Ellipse_4)">
      <circle id="Ellipse_4-2" data-name="Ellipse 4" cx="35" cy="35" r="35" transform="translate(9 6)" fill="#fff"/>
    </g>
    <g id="pig_1_" data-name="pig(1)" transform="translate(26 354)">
      <g id="Group_4" data-name="Group 4">
        <g id="Group_3" data-name="Group 3">
          <circle id="Ellipse_2" data-name="Ellipse 2" cx="0.834" cy="0.834" r="0.834" transform="translate(11.521 14.652)"/>
          <path id="Path_21" data-name="Path 21" d="M431.11,199.94a.725.725,0,0,0-.725.725v1.73a.725.725,0,0,0,1.45,0v-1.73A.725.725,0,0,0,431.11,199.94Z" transform="translate(-392.559 -188.339)"/>
          <path id="Path_22" data-name="Path 22" d="M468.329,199.94a.725.725,0,0,0-.725.725v1.73a.725.725,0,1,0,1.45,0v-1.73A.725.725,0,0,0,468.329,199.94Z" transform="translate(-426.506 -188.339)"/>
          <path id="Path_23" data-name="Path 23" d="M43.3,78.028a11.02,11.02,0,0,0-1.374-3.145c.562-2.032.511-4.721-.917-6.164a.72.72,0,0,0-.142-.112h0a5.579,5.579,0,0,0-4.014-.461,8.7,8.7,0,0,0-3.54,1.649c-.233-.015-.466-.025-.7-.025a11.144,11.144,0,0,0-1.629.12,9.242,9.242,0,0,0-1.277-.948,5.357,5.357,0,0,0-4.041-.886.724.724,0,0,0-.168.067h0a4.725,4.725,0,0,0-2.19,3.128,8.2,8.2,0,0,0-.153,3.057H14.191a10.936,10.936,0,0,0-7.71,3.174,2.456,2.456,0,0,0-3.675-.644.724.724,0,0,0-.842-.511,2.459,2.459,0,0,0,.495,4.867H4.008A10.97,10.97,0,0,0,6.027,92.611v7.663a.725.725,0,0,0,.725.725H11.4a.725.725,0,0,0,.513-.212l.161-.161.161.161a.725.725,0,0,0,.513.212h3.135a.725.725,0,0,0,.513-.212l.161-.161.161.161a.725.725,0,0,0,.513.212h.45a.725.725,0,0,0,.725-.725V96.252h2.248v4.022a.725.725,0,0,0,.725.725h4.649a.726.726,0,0,0,.513-.212l.161-.161.161.161a.725.725,0,0,0,.513.212h3.136a.725.725,0,0,0,.513-.212l.161-.161.161.161a.725.725,0,0,0,.513.212h.45a.725.725,0,0,0,.725-.725V92.1c.068-.086.136-.172.2-.26a11.026,11.026,0,0,0,9.836-7.464,3.691,3.691,0,0,0,.232-6.349ZM2.095,79.675a1.008,1.008,0,0,1,0-1.882,2.455,2.455,0,0,0,0,1.882Zm38.02-9.787a4.816,4.816,0,0,1,.652,3.478,10.865,10.865,0,0,0-3.142-2.394A4.232,4.232,0,0,1,40.115,69.888Zm-3.038-.312q-.463.322-.98.759c-.213-.071-.429-.137-.646-.195A6.964,6.964,0,0,1,37.077,69.577Zm-10.843-.16a2.347,2.347,0,0,1,.361-.027A6.436,6.436,0,0,1,31,72.017a.017.017,0,0,1-.006.02l-4.379,2.406-.015,0C26.188,73.437,25.51,70.433,26.234,69.417ZM3.357,78.735a1.009,1.009,0,0,1,2.018,0c0,.007,0,.014,0,.021q-.323.436-.6.9a1.009,1.009,0,0,1-1.413-.925ZM16.956,99a.725.725,0,0,0-.912.093l-.461.461h-1.66v-3.3q.134,0,.267,0h2.766V99Zm14.627,0a.725.725,0,0,0-.912.093l-.462.461H28.55V95.455A11.06,11.06,0,0,0,31.583,93.6Zm1.254-8.588a.724.724,0,0,0-.578.31,9.61,9.61,0,0,1-4.673,3.553.725.725,0,0,0-.486.684V99a.725.725,0,0,0-.912.092l-.461.461H22.1V95.527a.725.725,0,0,0-.725-.725H14.19c-.3,0-.614-.015-.923-.045a.725.725,0,0,0-.794.722V99a.725.725,0,0,0-.912.092l-.461.461H7.477V92.328a.724.724,0,0,0-.2-.5A9.522,9.522,0,0,1,14.19,75.757h9.842a.725.725,0,0,0,.7-.9,7.084,7.084,0,0,1-.152-2.5,13.481,13.481,0,0,0,.709,2.72,1.4,1.4,0,0,0,1.3.824h0a1.507,1.507,0,0,0,.728-.187L31.7,73.307a1.47,1.47,0,0,0,.571-2l-.039-.067-.011-.016c.132-.006.265-.009.4-.009a9.488,9.488,0,0,1,6.019,2.122,9.642,9.642,0,0,1,2,2.206.825.825,0,1,0,.432.725v0a9.6,9.6,0,0,1,.539,1.181c-.1-.008-.2-.013-.3-.013h-4.9a3.695,3.695,0,0,0,0,7.389h4.924A9.578,9.578,0,0,1,32.837,90.407Zm2.3-7.426a2.242,2.242,0,0,1,0-3.7,3.681,3.681,0,0,0,0,3.7Zm6.168.4H38.334a2.245,2.245,0,1,1,0-4.49H41.3a2.245,2.245,0,0,1,0,4.49Z" transform="translate(0 -67.942)"/>
          <path id="Path_24" data-name="Path 24" d="M128.115,176.031a2.125,2.125,0,1,0,2.125,2.125A2.128,2.128,0,0,0,128.115,176.031Zm0,2.8a.675.675,0,1,1,.675-.675A.676.676,0,0,1,128.115,178.832Z" transform="translate(-114.917 -166.531)"/>
          <path id="Path_25" data-name="Path 25" d="M75.509,205.217a2.125,2.125,0,1,0,2.125,2.125A2.128,2.128,0,0,0,75.509,205.217Zm0,2.8a.675.675,0,1,1,.675-.675A.676.676,0,0,1,75.509,208.018Z" transform="translate(-66.934 -193.152)"/>
          <path id="Path_26" data-name="Path 26" d="M376.7,154.989a.824.824,0,1,0-.824-.824A.824.824,0,0,0,376.7,154.989Z" transform="translate(-342.837 -145.834)"/>
        </g>
      </g>
    </g>
  </g>
</svg>
