<?xml version="1.0" encoding="UTF-8"?>
<!DOCTYPE svg PUBLIC "-//W3C//DTD SVG 1.1//EN" "http://www.w3.org/Graphics/SVG/1.1/DTD/svg11.dtd">
<!-- Creator: CorelDRAW 2020 (64-Bit Evaluation Version) -->
<svg xmlns="http://www.w3.org/2000/svg" xml:space="preserve" width="20mm" height="12mm" version="1.1" style="shape-rendering:geometricPrecision; text-rendering:geometricPrecision; image-rendering:optimizeQuality; fill-rule:evenodd; clip-rule:evenodd"
viewBox="0 0 2000 1200"
 xmlns:xlink="http://www.w3.org/1999/xlink"
 xmlns:xodm="http://www.corel.com/coreldraw/odm/2003">
 <defs>
  <style type="text/css">
   <![CDATA[
    .fil0 {fill:black;fill-rule:nonzero}
   ]]>
  </style>
 </defs>
 <g id="Layer_x0020_1">
  <metadata id="CorelCorpID_0Corel-Layer"/>
  <path class="fil0" d="M1810.43 57.7c1.7,-8.02 5.38,-18.06 13.23,-20.27 8.8,-2.56 22.92,3.12 33.37,13.73 8.34,8.49 16,21.88 12.06,34.64 -5.31,18.46 -17.89,34.31 -33.02,46.24 -21.47,-17.48 -30.03,-42.38 -25.64,-74.34zm-1769.02 513.49c1.23,15.63 63.9,74.3 76.48,71.84 12.58,-2.49 22.38,-28.58 29.33,-27.08 137.34,32.92 266.05,-71.8 266.05,-71.8 0,0 18.15,5.73 17.98,6.94 31.35,31.32 162.2,159.85 162.2,159.85l17.72 16.67c0,0 12.08,10.86 14.7,12.6 20.64,132.12 -23.93,299.69 -23.93,346.63 0,46.95 -67.4,41.39 -67.4,101.06 52.94,0 52.94,1.26 81.84,1.26 28.92,0 85.02,-196.99 104.43,-234.31 25.94,-49.85 22.36,-87.95 22.36,-87.95 0,0 35.55,-41.74 44.83,-44.07 1.85,-0.4 12.6,17.75 12.6,17.75l8.54 16.53c0,0 76.7,253.8 75.05,270.24 -2.35,23.21 -54.79,26.92 -54.79,72.56 25.23,0 76.89,0.81 102.62,-2.36 25.69,-3.2 13.75,-236.54 -1.1,-280.44 -14.81,-43.88 27.74,-133.59 27.74,-133.59 0,0 118.41,1.86 264.63,-8.39 0.76,-3.12 19.64,-2.83 19.26,-1.41 76.37,-5.92 158.99,-15.1 235.67,-29.56 9.89,0.74 50.87,70.28 50.87,89.52 0,19.31 -45.38,251.12 -50.76,271.98 -5.45,20.78 -49.22,26.9 -49.22,83.5 40.57,-2.66 52.96,-1.16 85.42,-1.16 32.51,0 23.98,-58.11 40.93,-97.49 17.05,-39.36 100.25,-201.25 108.74,-219.78 8.44,-18.29 28.25,-44.45 30.06,-50.51 1.76,-5.97 -0.72,-21.77 -3.81,-28.92 -1.73,-3.88 -9.01,-14.53 -12.86,-20.26l-10.47 -15.25 15.29 -10.47 10.51 15.25c7.86,11.59 12.49,18.74 14.56,23.26 4.09,9.56 7.25,24.07 6.25,32.32 -1.04,8.28 -7.11,18.79 -7.11,18.79l1.96 18.31 5.37 18.53c0,0 37.22,91.85 49.06,94.7 16.18,3.83 20.88,120.25 21.62,137.99 0.76,17.77 -44.95,27.66 -44.95,84.69 37.86,0 80.27,-3.45 102.1,-3.45 21.78,0 17,-118.84 17,-118.84 0,0 25.47,-76.51 23.12,-114.35 -2.09,-33.6 -13.22,-56.22 -16.81,-96.1 -3.85,0.5 -5.35,-17.96 -0.95,-18.6 0.83,-53.18 66.52,-214.9 70.22,-258.14 2.55,-28.71 5.09,-89.14 -3.27,-147.45 -0.43,-14.63 -8.09,-34.87 -6.09,-33.08 -4.5,-19.27 -10.47,-37.51 -18.38,-53.42 -17.46,-34.39 -48.71,-95.89 -106.98,-156.21 11.1,-2.83 22.52,-7.3 33.65,-13.24 41.79,21.16 94.04,22.97 124.89,12.01 7.84,-2.74 14.31,-6.33 18.88,-10.63l-25.42 -26.95c-6.66,6.21 -45.72,12.2 -83.48,-0.14 15.24,-14.84 27.44,-33.11 33.43,-53.97 7.38,-23.83 -0.54,-50.53 -21.18,-71.42 -20.51,-20.66 -48.14,-29.67 -70.4,-23.02 -11.54,3.43 -32.04,14.46 -39.07,48.93l-0.15 1.09c-5.64,39.88 4.26,73.86 28.18,99 -4.49,1.57 -8.84,2.79 -13.03,3.62 -8.87,1.78 -16.67,1.86 -22.93,0.48 -3.85,-3.33 -7.65,-6.54 -11.77,-9.85 0,0 -16.05,-10.53 -14.86,-11.51 -129.83,-96.18 -349.42,-163.44 -724.02,-64.78 -75.25,-2.95 -213.33,5.11 -213.33,5.11l-18.53 1.64c0,0 -274.54,43.76 -323.97,52.99 -21.21,3.87 -72.99,18.81 -72.99,18.81l-17.64 5.47 -106 37.44c0,0 -82.6,-27.88 -118.89,-2.31 -36.27,25.49 -48.66,41.69 -106.57,80.28 -20.77,37.02 23.94,47.86 35.57,54.78 11.59,6.99 -47.09,102.67 -47.09,102.67 0,0 58.68,23.97 108.13,-37.82 8.46,98.11 -90.76,167.36 -89.64,182.99z"/>
 </g>
</svg>
