<svg xmlns="http://www.w3.org/2000/svg" xmlns:xlink="http://www.w3.org/1999/xlink" width="88" height="88" viewBox="0 0 88 88">
  <defs>
    <filter id="Ellipse_5" x="0" y="0" width="88" height="88" filterUnits="userSpaceOnUse">
      <feOffset dy="3" input="SourceAlpha"/>
      <feGaussianBlur stdDeviation="3" result="blur"/>
      <feFlood flood-opacity="0.161"/>
      <feComposite operator="in" in2="blur"/>
      <feComposite in="SourceGraphic"/>
    </filter>
  </defs>
  <g id="Group_15" data-name="Group 15" transform="translate(-174 -338)">
    <g id="Group_11" data-name="Group 11" transform="translate(12 38)">
      <g id="Group_9" data-name="Group 9" transform="translate(69 -9)">
        <g transform="matrix(1, 0, 0, 1, 93, 309)" filter="url(#Ellipse_5)">
          <circle id="Ellipse_5-2" data-name="Ellipse 5" cx="35" cy="35" r="35" transform="translate(9 6)" fill="#fff"/>
        </g>
      </g>
    </g>
    <g id="sheep" transform="translate(196 356)">
      <circle id="Ellipse_3" data-name="Ellipse 3" cx="0.964" cy="0.964" r="0.964" transform="translate(36.154 10.944)"/>
      <path id="Path_27" data-name="Path 27" d="M60.25,22.747A3.754,3.754,0,0,0,56.5,19h-.095a3,3,0,0,0-4.463-1.816,3.375,3.375,0,0,0-5.5.51,3.75,3.75,0,0,0-4.556,5.222,3.763,3.763,0,0,0-2.58,2.906,4.513,4.513,0,0,0-3.172.6A3.728,3.728,0,0,0,34,25.747a3.769,3.769,0,0,0-3.2,1.795,3.007,3.007,0,0,0-3.175.363,3,3,0,0,0-4.483.863,3.83,3.83,0,0,0-.392-.02A3.754,3.754,0,0,0,19,32.5a3.83,3.83,0,0,0,.02.392A3,3,0,0,0,17.672,36.5a4.5,4.5,0,0,0,.408,7.292,4.5,4.5,0,0,0,4.671,6.644v6.813a.745.745,0,0,0,.08.335h0l1.5,3A.75.75,0,0,0,25,61h3a.75.75,0,0,0,.671-1.085L27.25,57.07V51.23a4.126,4.126,0,0,0,2.126-.828,3.755,3.755,0,0,0,5.284-.537A3.375,3.375,0,0,0,38.391,50a4.489,4.489,0,0,0,6.109.1v7.152a.745.745,0,0,0,.08.335h0l1.5,3A.75.75,0,0,0,46.75,61h3a.75.75,0,0,0,.671-1.085L49,57.07V51.184a4.507,4.507,0,0,0,3.75-4.436q0-.037,0-.075a3.756,3.756,0,0,0,2.641-5.282,4.5,4.5,0,0,0,.769-6.579,3.735,3.735,0,0,0,.339-1.5,5.823,5.823,0,0,0,2.176.537,2.31,2.31,0,0,0,1.223-.315A2.743,2.743,0,0,0,61,31a8.364,8.364,0,0,0-2.072-5.4A3.742,3.742,0,0,0,60.25,22.747Zm-36,33.75V50.3a4.145,4.145,0,0,0,1.5.787V56.5Zm1.214,3-.75-1.5h1.323l.75,1.5ZM46,56.5V50.638a4.522,4.522,0,0,0,1.5.544V56.5Zm1.213,3-.75-1.5h1.323l.75,1.5ZM54.033,40.46a.75.75,0,0,0-.267,1.144A2.222,2.222,0,0,1,54.25,43,2.253,2.253,0,0,1,52,45.247h-.048a.75.75,0,0,0-.762.9,3.07,3.07,0,0,1,.06.6,3,3,0,0,1-5.7,1.308.75.75,0,0,0-1.35,0,3.018,3.018,0,0,1-2.7,1.692,2.975,2.975,0,0,1-2.413-1.218.75.75,0,0,0-1.134-.084,1.875,1.875,0,0,1-2.839-.214.75.75,0,0,0-1.294.149,2.252,2.252,0,0,1-3.834.514.75.75,0,0,0-1.148-.031,2.624,2.624,0,0,1-4.1-.217.75.75,0,0,0-1.037-.18,3,3,0,0,1-3.948-4.457.75.75,0,0,0-.3-1.2A3,3,0,0,1,19,37.4a.75.75,0,0,0,.249-1.067A1.49,1.49,0,0,1,19,35.5a1.5,1.5,0,0,1,1.078-1.439.75.75,0,0,0,.511-.931,2.254,2.254,0,0,1,2.792-2.792.75.75,0,0,0,.931-.511A1.5,1.5,0,0,1,27,29.419a.75.75,0,0,0,1.251,0,1.5,1.5,0,0,1,2.325-.217.75.75,0,0,0,1.259-.319,2.252,2.252,0,0,1,3.746-.988.75.75,0,0,0,1.005.043,3,3,0,0,1,1.914-.69,2.968,2.968,0,0,1,1.213.256.75.75,0,0,0,1.05-.772,2.042,2.042,0,0,1-.013-.234A2.253,2.253,0,0,1,43,24.247c.069,0,.14,0,.212.01a.75.75,0,0,0,.562-1.312,2.25,2.25,0,0,1,2.666-3.608.75.75,0,0,0,1.123-.445,1.875,1.875,0,0,1,3.525-.282.75.75,0,0,0,1.26.177A1.5,1.5,0,0,1,55,19.747c0,.024,0,.049,0,.073a.75.75,0,0,0,.94.748A2.221,2.221,0,0,1,56.5,20.5a2.25,2.25,0,1,1-2.016,3.25.75.75,0,0,0-1.275-.111,1.5,1.5,0,0,1-1.786.5,13.281,13.281,0,0,0-.185-2.272.75.75,0,0,0-1.295-.364L43.192,29a.75.75,0,0,0,.441,1.243,12.016,12.016,0,0,0,1.724.118c1.618,0,3.942-.312,5.019-1.946q.068-.1.13-.209a1.5,1.5,0,0,1,.744,1.3,3.7,3.7,0,0,1-.142.641.75.75,0,0,0,.9.982A5.051,5.051,0,0,1,52.75,31a2.251,2.251,0,0,1,1.861,3.517.75.75,0,0,0,.124.984,3,3,0,0,1-.7,4.961ZM49.124,27.585c-.68,1.032-2.417,1.277-3.792,1.276l4.586-5.1A7.01,7.01,0,0,1,49.124,27.585Zm2.008,2.5q-.012.026-.022.052a.526.526,0,0,1,.022-.052Zm.884,1.038.033-.01ZM59.5,31c0,.383-.05,1.056-.383,1.259-.625.381-2.262-.4-3.086-.822A3.752,3.752,0,0,0,52.75,29.5a2.99,2.99,0,0,0-1.665-2.688,8.462,8.462,0,0,0,.234-1.141,2.991,2.991,0,0,0,2.365-.441,3.752,3.752,0,0,0,3.894,1.111A6.97,6.97,0,0,1,59.5,31Z" transform="translate(-16 -15.997)"/>
    </g>
  </g>
</svg>
