<svg xmlns="http://www.w3.org/2000/svg" xmlns:xlink="http://www.w3.org/1999/xlink" width="88" height="88" viewBox="0 0 88 88">
  <defs>
    <filter id="Ellipse_5" x="0" y="0" width="88" height="88" filterUnits="userSpaceOnUse">
      <feOffset dy="3" input="SourceAlpha"/>
      <feGaussianBlur stdDeviation="3" result="blur"/>
      <feFlood flood-opacity="0.161"/>
      <feComposite operator="in" in2="blur"/>
      <feComposite in="SourceGraphic"/>
    </filter>
  </defs>
  <g id="Group_17" data-name="Group 17" transform="translate(-324 -342)">
    <g id="Group_13" data-name="Group 13" transform="translate(162 42)">
      <g id="Group_9" data-name="Group 9" transform="translate(69 -9)">
        <g transform="matrix(1, 0, 0, 1, 93, 309)" filter="url(#Ellipse_5)">
          <circle id="Ellipse_5-2" data-name="Ellipse 5" cx="35" cy="35" r="35" transform="translate(9 6)" fill="#fff"/>
        </g>
      </g>
    </g>
    <g id="meat_1_" data-name="meat(1)" transform="translate(345 367)">
      <path id="Path_8" data-name="Path 8" d="M89.775,87.735a21.966,21.966,0,0,1-3.78,1.058.665.665,0,0,0,.124,1.318.673.673,0,0,0,.125-.012,23.263,23.263,0,0,0,4.01-1.123.665.665,0,0,0-.479-1.24Z" transform="translate(-54.803 -62.914)"/>
      <path id="Path_9" data-name="Path 9" d="M44.132,24.288c-6.81-4.253-18.792-.371-26.988,4.249C7.322,33.509,5.119,38.3,4.81,41.108a.668.668,0,0,0-.06.269v6.457c0,3.643,2.7,6.187,6.559,6.187a10.38,10.38,0,0,0,5.472-1.286A16.755,16.755,0,0,1,21.051,51.2c2.1-.465,4.592-.081,7.227.325a24.923,24.923,0,0,0,8.341.355c7.943-1.519,12.841-5.8,13.119-11.451a.651.651,0,0,0,.008-.1v-6.24c0-.013,0-.024,0-.036A11.23,11.23,0,0,0,44.132,24.288ZM17.759,29.716l.027-.014c5.556-3.134,12.883-5.941,18.938-5.941a12.55,12.55,0,0,1,6.706,1.655c3.637,2.271,5.545,6.1,4.862,9.764-.842,4.507-5.187,7.829-11.92,9.116a23.96,23.96,0,0,1-7.891-.362c-2.761-.426-5.368-.828-7.717-.309a17.883,17.883,0,0,0-4.569,1.638,9.071,9.071,0,0,1-4.885,1.149A4.967,4.967,0,0,1,6.2,42.853C5.453,39.707,8.095,34.6,17.759,29.716ZM48.415,40.3C48.2,45.334,43.7,49.174,36.37,50.576a23.954,23.954,0,0,1-7.889-.363c-2.762-.426-5.37-.828-7.717-.309a17.9,17.9,0,0,0-4.569,1.637,9.066,9.066,0,0,1-4.885,1.15c-3.128,0-5.23-1.952-5.23-4.857v-2.36a6.743,6.743,0,0,0,5.23,2.266,10.379,10.379,0,0,0,5.472-1.286,16.748,16.748,0,0,1,4.27-1.533c2.1-.466,4.593-.081,7.227.325a24.9,24.9,0,0,0,8.341.354c5.678-1.084,9.8-3.57,11.8-7.009v1.667c0,.015,0,.03,0,.044Z" transform="translate(-4.75 -22.457)"/>
      <path id="Path_10" data-name="Path 10" d="M15.028,49.175a8.2,8.2,0,0,0,4.465-1.052,18.962,18.962,0,0,1,4.786-1.712,12.2,12.2,0,0,1,2.659-.266,36.4,36.4,0,0,1,5.407.564,36.187,36.187,0,0,0,5.344.559,11.766,11.766,0,0,0,2.221-.19c6.329-1.209,10.4-4.254,11.167-8.356.612-3.274-1.128-6.723-4.431-8.784a11.545,11.545,0,0,0-6.163-1.491c-5.154,0-12.074,2.168-18.5,5.791l-.076.041c-9.174,4.638-11.729,9.274-11.063,12.066A4.043,4.043,0,0,0,15.028,49.175Zm7.49-13.72.1-.055c6.247-3.524,12.924-5.627,17.859-5.627a10.246,10.246,0,0,1,5.459,1.289c2.836,1.771,4.339,4.68,3.829,7.412-.66,3.536-4.345,6.194-10.107,7.295a10.47,10.47,0,0,1-1.972.168,35.233,35.233,0,0,1-5.145-.544,37.372,37.372,0,0,0-5.608-.579,13.545,13.545,0,0,0-2.947.3,20.125,20.125,0,0,0-5.084,1.818,6.98,6.98,0,0,1-3.878.915,2.751,2.751,0,0,1-2.887-1.809c-.423-1.764,1.284-5.979,10.377-10.58Z" transform="translate(-8.469 -26.172)"/>
      <path id="Path_11" data-name="Path 11" d="M85.853,41.911c1.553,0,2.77-.886,2.77-2.018s-1.215-2.018-2.77-2.018-2.77.886-2.77,2.018S84.3,41.911,85.853,41.911Zm0-2.706c.866,0,1.44.414,1.44.689s-.575.688-1.44.688-1.44-.414-1.44-.688S84.989,39.2,85.853,39.2Z" transform="translate(-53.331 -32.019)"/>
    </g>
  </g>
</svg>
