<?xml version="1.0" encoding="utf-8"?>
<!-- Generator: Adobe Illustrator 24.2.3, SVG Export Plug-In . SVG Version: 6.00 Build 0)  -->
<svg version="1.1" id="Layer_1" xmlns="http://www.w3.org/2000/svg" xmlns:xlink="http://www.w3.org/1999/xlink" x="0px" y="0px"
	 viewBox="0 0 56.69 45.35" style="enable-background:new 0 0 56.69 45.35;" xml:space="preserve">
<g>
	<path d="M55.9,23.91c-0.11,0.6-0.19,1.2-0.33,1.79c-0.89,3.85-3.15,6.74-6.44,8.8c-4.86,3.04-10.08,3.88-15.61,2.16
		c-2.57-0.8-4.76-2.26-6.44-4.37c-2.95-3.71-6.88-5.41-11.48-5.82c-2.1-0.18-4.19-0.05-6.27,0.21c-3.45,0.43-6.72-1.6-7.88-4.86
		c-1.15-3.24,0.05-6.99,3.02-8.71c7-4.06,14.26-7.59,22.09-9.8c2.85-0.81,5.74-1.37,8.7-1.56c0.12-0.01,0.24-0.05,0.36-0.07
		c0.98,0,1.96,0,2.94,0c0.92,0.12,1.85,0.21,2.77,0.37c4.83,0.86,8.63,3.29,11.23,7.51c1.6,2.6,2.51,5.46,2.99,8.46
		c0.15,0.95,0.25,1.9,0.37,2.86C55.9,21.89,55.9,22.9,55.9,23.91z M52.95,23.19c-0.09-3.96-0.59-6.89-1.74-9.68
		c-1.72-4.15-4.61-7.02-9.02-8.21c-2.36-0.64-4.77-0.73-7.2-0.54c-3.53,0.27-6.94,1.11-10.29,2.22C18.28,9.1,12.26,12.09,6.39,15.4
		c-1.98,1.12-2.85,3.26-2.17,5.31C4.9,22.79,6.9,24,9.16,23.71c2.55-0.32,5.11-0.45,7.67-0.1c1.59,0.22,3.14,0.56,4.66,1.11
		c3.08,1.12,5.66,2.94,7.72,5.49c1.39,1.73,3.14,2.98,5.26,3.62c5.18,1.56,9.95,0.58,14.21-2.67
		C51.58,28.94,53.05,25.95,52.95,23.19z"/>
	<path d="M0.79,24.73c0.04-0.16,0.09-0.31,0.15-0.54c0.12,0.16,0.21,0.3,0.31,0.43c2.14,2.73,4.93,3.95,8.38,3.54
		c3.24-0.38,6.44-0.44,9.6,0.52c2.59,0.78,4.75,2.21,6.47,4.32c3.04,3.75,7.04,5.66,11.81,5.97c5.38,0.35,10.19-1.19,14.37-4.61
		c1.49-1.22,2.71-2.7,3.76-4.36c-0.04,0.35-0.07,0.69-0.12,1.04c-0.06,0.36-0.13,0.72-0.22,1.08c-0.85,3.37-2.78,6.03-5.6,7.98
		c-5.1,3.54-10.66,4.54-16.62,2.62c-2.49-0.8-4.59-2.25-6.22-4.3c-2.88-3.62-6.71-5.34-11.21-5.78c-2.1-0.2-4.19-0.13-6.27,0.17
		c-4.4,0.63-8-2.5-8.48-6.29c-0.01-0.1-0.05-0.2-0.08-0.3C0.79,25.71,0.79,25.22,0.79,24.73z"/>
	<path d="M51.45,23.7c0.07,1.93-1.31,4.52-3.89,6.42c-3.88,2.85-8.17,3.69-12.81,2.21c-1.73-0.55-3.17-1.59-4.31-3.01
		c-1.39-1.74-3.01-3.22-4.93-4.35c-1.39-0.82-2.85-1.49-4.41-1.98c-1.75-0.55-3.54-0.85-5.34-1c-2.24-0.19-4.49-0.11-6.73,0.21
		c-1.55,0.23-2.89-0.52-3.37-1.91c-0.48-1.38,0.1-2.8,1.47-3.58c5.33-3.02,10.8-5.76,16.58-7.82c3.44-1.23,6.94-2.19,10.59-2.57
		c2.3-0.24,4.58-0.24,6.85,0.26c3.98,0.88,6.74,3.24,8.41,6.93C50.84,16.32,51.34,19.29,51.45,23.7z M46.82,19.05
		c0.01-1.71-1.33-3.09-3.02-3.11c-1.71-0.02-3.11,1.35-3.12,3.06c-0.01,1.65,1.37,3.07,3,3.08C45.42,22.09,46.81,20.75,46.82,19.05z
		"/>
</g>
</svg>
